{"glyphs":{"0":{"ha":581,"x_min":0,"x_max":0,"o":"m 554 498 b 509 755 551 585 538 674 b 353 945 481 833 435 915 b 149 885 280 970 199 939 b 60 713 105 837 78 775 b 49 268 18 571 16 412 b 125 86 63 205 86 139 b 304 -13 167 30 230 -17 b 486 141 392 -7 451 67 b 553 429 527 231 547 331 b 554 498 554 452 554 475 z m 224 89 b 224 89 226 87 226 88 z m 444 240 b 396 132 431 201 418 168 b 367 96 385 115 381 110 b 358 87 364 93 361 90 b 351 82 357 86 353 83 b 345 77 350 80 346 78 b 334 71 341 75 338 73 b 329 69 332 70 331 69 b 320 66 326 67 323 66 b 293 62 310 62 305 62 b 267 67 284 62 276 64 b 254 71 262 68 258 70 b 254 71 254 71 254 71 b 252 72 253 72 253 72 b 223 89 242 77 233 83 b 221 91 223 90 222 91 b 215 97 219 93 217 95 b 202 110 210 101 206 105 b 191 122 198 114 195 118 b 188 126 191 123 189 125 b 182 135 186 129 184 132 b 161 171 175 147 168 159 b 153 189 158 177 155 183 b 150 195 152 191 151 194 b 147 203 149 198 148 201 b 132 247 141 218 136 233 b 111 344 123 279 116 311 b 110 352 111 345 110 351 b 109 361 109 354 109 359 b 106 388 108 370 107 379 b 103 439 104 405 103 422 b 105 544 102 474 103 509 b 118 637 108 581 111 599 b 144 729 125 668 133 699 b 151 746 146 734 148 740 b 153 752 151 746 152 750 b 159 763 155 756 157 759 b 178 799 164 775 171 787 b 189 815 182 804 185 810 b 193 820 190 816 191 818 b 197 825 194 821 196 824 b 223 851 205 834 213 843 b 224 852 223 851 224 852 b 223 851 224 852 224 852 b 225 852 224 852 224 852 b 226 854 226 853 227 854 b 230 856 228 855 229 855 b 246 866 235 860 240 863 b 253 869 248 867 250 868 b 253 869 253 869 253 869 b 274 876 260 871 267 874 b 331 873 292 880 312 879 b 335 871 333 872 334 872 b 336 871 336 871 336 871 b 346 866 339 870 342 868 b 356 859 349 864 353 862 b 360 856 358 858 359 857 b 360 856 360 856 360 856 b 362 855 361 856 361 856 b 379 839 368 850 373 844 b 387 829 382 836 384 833 b 389 827 387 829 388 828 b 393 822 390 825 393 821 b 421 773 404 806 413 790 b 440 724 428 757 434 743 b 457 664 447 704 452 684 b 469 603 462 644 466 623 b 471 589 470 598 471 593 b 472 586 471 589 472 587 b 472 581 472 584 472 581 b 476 552 474 571 475 562 b 479 498 477 534 478 516 b 444 240 481 410 470 325 z "},"1":{"ha":161,"x_min":0,"x_max":0,"o":"m 44 931 b 42 214 43 692 43 453 b 42 9 42 145 42 77 b 117 9 42 -39 117 -39 b 118 727 117 248 118 487 b 119 931 119 795 119 863 b 44 931 119 980 44 980 z "},"2":{"ha":536,"x_min":0,"x_max":0,"o":"m 391 385 b 470 528 420 430 448 478 b 512 676 491 576 504 624 b 485 879 521 744 522 818 b 301 978 446 943 374 975 b 90 892 222 981 143 950 b 13 666 35 831 8 748 b 51 628 15 646 29 628 b 88 666 70 628 90 645 b 135 829 84 724 99 784 b 277 903 170 874 222 900 b 420 841 331 905 391 889 b 437 684 448 795 445 733 b 423 616 434 661 430 638 b 414 588 421 607 418 598 b 408 573 412 583 410 578 b 406 567 408 573 407 569 b 402 559 405 565 403 560 b 329 428 382 513 356 470 b 144 189 273 341 213 267 b 60 97 117 158 89 127 b 34 71 51 88 43 79 b 28 64 32 69 30 67 b 32 66 29 65 30 66 b 32 66 32 66 32 66 b 18 53 26 63 22 59 b 51 -3 3 26 25 -3 b 51 -3 51 -3 51 -3 b 433 11 178 2 305 7 b 433 86 481 13 481 88 b 219 78 361 84 290 81 b 143 75 194 77 168 76 b 184 121 157 90 171 106 b 391 385 258 204 329 292 z "},"3":{"ha":542,"x_min":0,"x_max":0,"o":"m 403 134 b 391 114 399 127 395 120 b 386 108 389 112 388 110 b 385 106 386 107 385 106 b 384 105 385 106 384 105 b 362 81 377 96 370 88 b 303 46 345 65 323 53 b 267 39 289 42 278 40 b 242 38 258 38 250 38 b 222 40 233 38 226 39 b 90 177 150 53 104 101 b 44 203 86 197 62 208 b 17 157 23 197 14 177 b 178 -26 34 70 93 0 b 405 19 256 -51 342 -33 b 464 358 504 100 526 248 b 401 427 448 385 427 409 b 440 472 416 440 428 456 b 511 698 486 537 508 620 b 442 911 514 773 497 856 b 174 936 373 983 257 984 b 26 663 78 881 30 770 b 101 663 25 615 100 615 b 192 859 104 737 134 814 b 379 868 243 898 325 911 b 395 852 385 864 390 858 b 400 847 396 851 399 848 b 404 840 401 845 404 841 b 415 822 408 834 412 828 b 418 814 416 819 417 816 b 421 806 418 814 421 807 b 433 759 427 791 430 775 b 434 755 433 758 433 756 b 434 754 434 754 434 754 b 435 742 434 750 435 746 b 436 717 436 734 436 725 b 390 534 437 653 422 589 b 376 511 386 526 381 519 b 362 494 369 502 371 503 b 345 476 357 488 351 482 b 336 469 342 474 339 471 b 335 468 336 469 336 468 b 325 462 332 466 329 464 b 322 460 324 461 323 460 b 199 438 280 466 237 458 b 189 432 196 436 192 434 b 175 408 181 426 176 417 b 174 402 175 406 174 404 b 193 370 174 387 182 377 b 214 364 199 366 206 364 b 329 380 253 360 292 365 b 396 325 356 370 380 352 b 411 294 403 313 407 305 b 422 252 416 280 419 266 b 422 246 422 251 422 246 b 423 244 423 245 423 245 b 424 230 423 239 424 235 b 424 212 424 224 424 218 b 403 134 423 184 415 157 z "},"4":{"ha":600,"x_min":0,"x_max":0,"o":"m 81 485 b 101 313 64 427 61 362 b 304 255 148 256 237 251 b 477 281 362 258 420 267 b 471 10 475 191 473 100 b 546 10 469 -38 545 -38 b 564 793 552 271 558 532 b 489 793 566 842 490 842 b 479 358 486 648 482 503 b 436 348 465 355 451 352 b 387 339 420 345 404 342 b 363 335 379 338 371 336 b 360 335 363 335 361 335 b 356 334 359 335 357 334 b 341 332 351 334 346 333 b 236 331 306 329 271 328 b 230 331 234 331 232 331 b 230 331 230 331 230 331 b 218 333 226 332 222 333 b 196 339 210 335 203 337 b 186 342 193 340 189 341 b 182 345 191 341 184 343 b 173 350 179 346 176 348 b 166 354 171 351 167 354 b 155 365 162 358 159 361 b 155 366 155 365 155 366 b 151 374 153 369 152 371 b 150 374 151 374 151 374 b 151 372 151 373 151 373 b 150 374 151 373 151 373 b 150 375 149 377 149 377 b 148 379 149 377 149 378 b 145 393 147 384 146 388 b 145 395 146 390 145 391 b 145 396 145 395 145 395 b 145 395 145 395 145 395 b 145 396 145 395 145 396 b 144 403 145 398 144 401 b 145 422 144 410 144 416 b 145 428 145 423 145 426 b 146 434 146 430 146 433 b 151 454 147 441 149 448 b 165 498 154 469 159 484 b 168 507 165 500 168 505 b 172 516 169 508 171 514 b 184 540 176 524 180 532 b 248 647 202 577 225 612 b 486 914 316 745 399 832 b 433 967 521 947 468 1000 b 198 704 347 886 267 800 b 81 485 149 638 104 565 z m 231 331 b 231 331 236 331 232 331 z "},"5":{"ha":547,"x_min":0,"x_max":0,"o":"m 110 943 b 99 917 103 937 99 928 b 93 458 97 764 95 611 b 95 445 93 453 94 449 b 159 423 101 419 135 400 b 167 430 162 426 164 428 b 172 434 169 431 170 433 b 176 437 174 435 175 436 b 222 463 190 447 206 457 b 276 476 235 469 259 475 b 294 476 282 476 288 476 b 308 475 297 476 304 475 b 308 475 308 475 308 475 b 318 473 311 474 315 473 b 369 452 337 468 353 462 b 394 433 378 447 386 441 b 402 425 396 431 399 428 b 408 418 403 424 407 418 b 433 374 418 404 426 389 b 436 367 434 372 435 369 b 440 354 437 363 439 359 b 447 326 443 345 445 336 b 412 122 462 259 453 181 b 378 86 404 111 391 97 b 369 79 374 83 375 83 b 358 73 365 77 362 75 b 330 58 349 67 338 62 b 202 50 289 42 245 37 b 106 137 156 64 125 97 b 97 158 100 148 101 146 b 90 182 95 166 92 174 b 87 199 89 188 88 193 b 86 201 87 200 86 200 b 86 201 86 201 86 201 b 49 239 84 221 71 239 b 11 201 30 239 9 222 b 131 0 20 121 61 43 b 445 46 230 -59 366 -34 b 526 307 512 113 537 215 b 484 438 521 353 508 398 b 368 535 457 483 418 516 b 169 521 302 562 230 553 b 174 880 171 640 172 760 b 459 882 269 881 364 882 b 459 957 508 883 508 958 b 137 955 352 957 244 956 b 110 943 125 955 116 950 z m 433 374 b 433 374 433 374 433 374 b 433 374 435 370 433 373 z "},"6":{"ha":560,"x_min":0,"x_max":0,"o":"m 157 2 b 450 64 256 -50 381 -21 b 520 349 514 143 540 250 b 380 538 505 427 452 505 b 116 478 287 581 184 547 b 137 571 122 509 129 540 b 171 676 147 606 158 641 b 180 700 174 684 177 692 b 185 711 182 704 183 707 b 185 712 185 711 185 711 b 188 719 186 714 187 717 b 209 764 195 734 202 749 b 256 843 223 791 239 818 b 262 850 258 845 260 848 b 263 852 262 851 263 851 b 263 852 263 852 263 852 b 276 867 267 857 272 862 b 301 892 284 876 292 884 b 302 893 302 892 302 893 b 301 892 302 893 301 892 b 303 893 301 892 302 893 b 303 894 305 895 305 895 b 307 897 305 895 306 896 b 320 904 312 899 316 902 b 325 907 322 905 324 906 b 329 908 326 907 328 908 b 368 918 341 912 355 916 b 400 918 378 919 389 919 b 404 918 402 918 403 918 b 405 917 404 918 404 918 b 417 915 409 917 413 916 b 422 913 418 915 420 914 b 427 911 419 914 418 916 b 428 911 427 911 428 911 b 427 911 428 911 427 911 b 427 911 427 911 427 911 b 442 902 432 909 438 905 b 473 862 457 890 464 879 b 538 900 496 819 560 857 b 442 986 517 938 484 972 b 291 973 393 1001 336 994 b 173 852 239 950 202 899 b 79 640 132 787 103 713 b 28 393 54 560 36 477 b 41 165 21 318 21 239 b 157 2 58 99 95 34 z m 200 451 b 308 482 234 475 268 486 b 310 482 309 482 310 482 b 317 481 312 482 315 481 b 335 476 323 480 329 478 b 360 464 344 473 350 470 b 399 431 375 455 385 446 b 406 422 401 428 404 425 b 407 421 406 421 407 421 b 410 417 408 420 409 419 b 421 400 414 412 417 406 b 435 373 426 392 432 380 b 444 346 438 367 442 354 b 447 332 445 341 446 336 b 449 323 448 329 448 326 b 450 317 449 322 450 318 b 450 256 452 297 452 276 b 414 143 447 219 433 176 b 339 68 395 111 372 85 b 316 59 330 63 328 62 b 286 52 307 56 293 53 b 219 57 263 50 241 51 b 188 70 208 60 198 64 b 175 79 183 73 179 76 b 175 79 175 79 175 79 b 172 81 174 79 173 80 b 159 94 167 85 163 89 b 153 100 157 96 155 98 b 150 104 152 101 151 102 b 130 136 143 114 136 125 b 126 146 129 140 127 143 b 125 147 126 146 125 147 b 125 148 125 147 125 148 b 117 170 122 155 120 162 b 107 214 113 184 109 199 b 104 232 105 220 104 226 b 102 241 104 232 103 239 b 101 253 102 245 102 249 b 99 328 99 278 98 303 b 114 342 106 331 111 336 b 200 451 133 385 162 426 z "},"7":{"ha":574,"x_min":0,"x_max":0,"o":"m 131 21 b 157 -25 125 2 138 -20 b 203 1 178 -31 197 -18 b 437 717 281 240 359 478 b 503 921 459 785 481 853 b 477 967 509 940 496 962 b 454 966 469 969 461 968 b 452 966 454 966 453 966 b 106 964 336 965 221 965 b 106 889 57 963 57 888 b 414 891 209 889 312 890 b 197 225 342 669 270 447 b 131 21 175 157 153 89 z "},"8":{"ha":563,"x_min":0,"x_max":0,"o":"m 182 -12 b 388 -3 248 -39 324 -33 b 516 143 449 26 493 80 b 514 380 542 216 541 308 b 400 515 493 438 454 486 b 493 628 443 541 475 581 b 489 830 516 690 514 769 b 365 950 465 886 423 928 b 179 939 306 973 237 967 b 53 720 98 900 55 808 b 70 617 52 685 57 649 b 160 511 88 571 119 535 b 26 255 71 460 29 353 b 182 -12 24 142 72 32 z m 141 638 b 138 647 140 641 139 644 b 134 661 136 652 135 657 b 131 675 133 666 132 671 b 130 682 130 677 130 679 b 129 682 129 682 129 682 b 129 682 129 682 129 682 b 128 720 128 695 128 707 b 129 741 128 727 129 734 b 130 742 129 741 129 741 b 131 750 130 745 130 747 b 136 772 132 758 134 765 b 144 795 138 780 141 788 b 145 797 144 796 145 797 b 146 800 145 798 145 799 b 153 814 148 805 151 810 b 186 854 163 832 169 840 b 235 881 197 865 217 875 b 305 888 258 888 282 891 b 410 821 350 883 389 856 b 416 809 412 817 414 813 b 418 805 417 808 418 806 b 419 803 419 804 419 803 b 427 776 422 794 425 785 b 432 756 429 770 430 763 b 432 755 432 755 432 755 b 432 753 432 754 432 754 b 433 744 432 750 432 747 b 433 720 433 736 433 728 b 433 703 433 714 433 709 b 432 692 433 700 432 696 b 431 686 432 690 431 688 b 425 661 429 678 427 669 b 415 637 421 649 421 648 b 377 590 405 618 394 603 b 252 557 342 563 295 552 b 142 636 203 563 162 593 b 141 638 142 637 141 638 z m 103 208 b 102 255 102 224 101 239 b 103 280 102 263 102 272 b 104 284 103 281 104 283 b 105 294 104 287 105 291 b 111 321 107 303 109 312 b 169 425 122 361 139 396 b 309 467 204 457 259 475 b 433 380 364 460 408 426 b 444 353 439 368 440 366 b 453 321 448 342 451 332 b 456 307 454 316 455 311 b 456 302 456 305 456 304 b 458 280 457 295 458 288 b 459 250 459 270 459 260 b 458 230 459 243 458 237 b 457 217 458 226 457 221 b 455 206 457 221 455 208 b 391 88 446 159 428 119 b 248 47 352 54 296 40 b 166 83 218 51 189 63 b 137 114 155 92 144 103 b 126 132 133 120 130 126 b 122 139 125 134 124 137 b 119 146 123 139 119 146 b 108 182 115 158 111 170 b 105 199 107 188 106 193 b 104 206 104 201 104 203 b 103 208 105 197 103 206 z "},"9":{"ha":557,"x_min":0,"x_max":0,"o":"m 69 213 b 31 175 50 213 29 195 b 59 70 34 138 43 103 b 198 -25 86 15 137 -20 b 386 63 272 -31 341 6 b 486 265 434 122 464 193 b 528 517 510 346 524 432 b 508 756 532 597 528 679 b 406 926 491 821 461 885 b 139 905 327 984 211 964 b 27 631 60 842 21 730 b 152 410 32 542 75 458 b 448 452 248 349 368 380 b 448 451 448 451 448 451 b 446 437 447 446 447 441 b 446 435 446 436 446 436 b 445 429 446 433 445 431 b 440 401 444 419 442 410 b 429 345 437 382 433 363 b 399 240 421 309 411 274 b 390 218 396 233 393 225 b 388 212 389 216 388 214 b 387 212 388 212 387 212 b 382 199 385 208 384 203 b 360 156 375 184 368 170 b 335 119 352 143 344 131 b 334 116 335 118 334 117 b 327 109 331 114 329 111 b 314 94 323 104 318 99 b 300 82 309 90 305 85 b 296 78 299 80 297 79 b 290 74 294 77 292 75 b 276 65 286 71 281 68 b 268 61 274 64 271 63 b 268 61 268 61 268 61 b 267 61 268 61 267 61 b 155 67 230 48 190 41 b 138 84 152 69 143 77 b 132 93 139 83 133 92 b 125 106 129 97 127 101 b 116 127 120 116 120 115 b 110 152 114 135 111 143 b 108 162 109 155 108 159 b 107 164 107 166 106 176 b 106 175 107 167 106 171 b 69 213 104 195 90 213 z m 351 474 b 235 455 315 455 272 447 b 177 483 214 461 195 469 b 170 489 177 483 171 488 b 160 499 167 492 163 496 b 151 508 157 502 154 505 b 144 517 150 510 143 519 b 108 594 125 542 115 565 b 109 715 99 632 100 676 b 160 821 119 754 136 793 b 201 859 173 837 188 850 b 223 871 208 863 216 867 b 231 874 226 872 229 873 b 353 871 270 887 314 893 b 366 863 358 868 362 866 b 368 861 367 862 368 861 b 376 854 371 858 373 856 b 388 841 380 850 384 845 b 390 838 388 840 389 839 b 396 830 392 836 394 833 b 416 794 403 819 410 806 b 418 789 416 793 417 791 b 421 782 419 787 421 782 b 428 760 424 775 426 768 b 441 714 433 745 437 730 b 445 691 442 707 444 699 b 447 679 446 687 446 683 b 448 672 447 677 448 674 b 448 672 448 672 448 672 b 448 671 448 671 448 671 b 454 579 452 641 454 610 b 452 576 454 578 453 577 b 351 474 427 533 394 497 z m 446 434 b 446 434 445 432 446 433 z "},"\u0000":{"ha":0,"x_min":0,"x_max":0,"o":""},"\n":{"ha":0,"x_min":0,"x_max":0,"o":""},"\r":{"ha":0,"x_min":0,"x_max":0,"o":""}," ":{"ha":318,"x_min":0,"x_max":0,"o":""},"!":{"ha":189,"x_min":0,"x_max":0,"o":"m 135 244 b 128 956 133 481 131 719 b 53 956 128 1004 53 1004 b 60 244 56 719 58 481 b 135 244 60 196 135 196 z m 142 112 b 48 124 119 140 77 143 b 31 78 33 114 25 95 b 41 35 30 63 33 48 b 128 17 60 6 99 -2 b 142 112 161 39 167 82 z "},"\"":{"ha":250,"x_min":0,"x_max":0,"o":"m 62 925 b 25 887 41 925 26 907 b 18 756 22 844 20 800 b 56 719 17 736 36 719 b 93 756 77 719 92 736 b 100 887 95 800 98 844 b 62 925 101 907 82 925 z m 194 905 b 156 867 172 905 157 888 b 150 750 154 828 152 789 b 187 712 149 730 168 712 b 225 750 208 712 224 730 b 231 867 227 789 229 828 b 194 905 232 888 213 905 z "},"#":{"ha":615,"x_min":0,"x_max":0,"o":"m 507 637 b 401 629 472 634 437 632 b 417 720 407 659 412 690 b 391 766 421 740 412 760 b 345 740 373 771 349 760 b 324 623 338 701 331 662 b 231 617 293 621 262 619 b 262 767 242 667 252 717 b 236 813 266 786 256 807 b 190 787 217 818 194 806 b 154 611 178 728 166 669 b 71 605 126 609 99 607 b 34 567 51 603 34 589 b 71 530 34 548 51 528 b 138 535 93 531 116 533 b 116 430 131 500 123 465 b 43 420 92 426 67 423 b 16 373 23 417 12 391 b 63 347 22 352 42 345 b 100 352 75 349 88 351 b 66 186 89 297 77 241 b 92 140 62 166 71 145 b 138 166 111 135 134 146 b 179 363 152 232 165 297 b 280 377 212 368 246 372 b 253 231 271 328 262 279 b 279 185 250 211 259 190 b 326 211 298 180 322 191 b 357 387 336 270 347 328 b 441 399 385 391 413 395 b 468 445 461 401 472 427 b 421 471 462 466 442 474 b 371 464 405 469 388 466 b 387 553 377 494 382 523 b 481 560 419 555 450 557 b 489 559 484 559 486 559 b 507 562 495 560 501 561 b 545 599 528 564 545 577 b 507 637 545 618 528 638 z m 293 454 b 195 440 261 449 228 445 b 215 540 202 474 209 507 b 310 547 247 543 279 545 b 293 454 305 516 299 485 z "},"$":{"ha":515,"x_min":0,"x_max":0,"o":"m 289 519 b 294 802 291 613 292 708 b 296 912 294 839 295 876 b 341 899 311 910 327 906 b 360 889 345 897 355 892 b 377 877 369 884 370 883 b 408 835 390 866 401 852 b 417 791 415 818 416 806 b 455 753 418 770 434 753 b 492 791 474 753 494 770 b 446 914 490 836 476 879 b 355 974 422 942 389 961 b 297 988 336 981 317 985 b 298 1057 297 1011 298 1034 b 223 1057 299 1105 224 1105 b 222 988 223 1034 222 1011 b 134 961 191 984 161 975 b 22 791 68 929 30 862 b 59 645 16 740 32 688 b 213 483 98 581 156 532 b 208 163 211 376 210 270 b 206 66 207 130 207 98 b 166 83 192 70 178 75 b 133 111 152 91 144 97 b 110 160 121 125 114 142 b 107 200 107 172 106 185 b 32 200 109 249 34 249 b 144 9 29 120 70 44 b 205 -11 163 0 184 -6 b 203 -92 204 -38 204 -65 b 278 -92 202 -140 278 -140 b 280 -17 279 -67 279 -42 b 361 1 308 -15 335 -9 b 452 72 398 16 429 38 b 486 176 473 103 483 140 b 453 336 492 231 478 287 b 289 519 414 409 352 465 z m 215 582 b 206 590 212 585 209 587 b 148 649 186 609 166 628 b 142 657 146 652 144 654 b 139 660 141 658 140 659 b 129 675 135 665 132 670 b 110 708 122 686 115 697 b 108 712 109 709 109 711 b 106 718 107 714 107 716 b 100 736 104 724 102 730 b 97 752 99 741 98 747 b 97 755 97 753 97 754 b 96 765 96 758 96 762 b 96 784 96 772 96 778 b 97 789 96 785 97 787 b 97 791 97 790 97 791 b 99 799 98 794 98 797 b 105 820 100 807 102 814 b 160 890 114 848 135 875 b 221 911 178 900 199 908 b 215 582 219 802 217 692 z m 411 173 b 410 169 411 172 411 171 b 408 159 410 166 409 162 b 401 134 406 150 404 142 b 391 116 399 129 395 123 b 375 96 387 108 382 103 b 368 90 374 95 369 91 b 362 85 367 89 363 86 b 340 73 355 81 348 77 b 338 72 340 73 339 72 b 333 70 336 71 335 71 b 322 67 330 69 326 68 b 297 61 314 64 306 62 b 281 59 293 60 287 59 b 287 420 283 179 285 299 b 307 401 294 413 300 407 b 337 369 317 391 327 380 b 351 354 342 364 346 359 b 357 346 353 351 355 349 b 357 346 357 346 357 346 b 360 342 358 344 359 343 b 383 307 368 330 376 319 b 392 289 386 301 389 295 b 396 281 394 287 395 284 b 398 276 397 279 397 278 b 409 237 403 263 407 250 b 411 227 410 234 410 230 b 411 223 411 226 411 225 b 412 203 412 217 412 210 b 411 173 413 193 412 183 z "},"%":{"ha":539,"x_min":0,"x_max":0,"o":"m 510 905 b 497 956 519 923 515 946 b 446 943 480 966 454 961 b 112 257 335 714 223 485 b 18 63 81 192 50 128 b 32 12 10 45 13 23 b 83 25 48 2 74 7 b 416 711 194 254 305 483 b 510 905 448 776 479 840 z m 135 642 b 142 637 137 640 140 639 b 185 641 155 630 173 631 b 196 644 189 641 192 642 b 222 690 215 650 228 669 b 217 701 221 694 219 697 b 236 802 230 733 239 767 b 148 914 230 853 200 901 b 31 852 98 926 49 901 b 50 716 15 808 29 756 b 135 642 67 681 99 652 z m 99 815 b 111 840 100 826 103 836 b 139 837 117 843 130 842 b 160 802 150 830 157 817 b 144 719 165 774 156 745 b 109 767 128 729 115 749 b 99 815 102 784 99 798 z m 451 282 b 331 205 395 302 342 259 b 397 51 318 143 357 93 b 397 50 397 51 397 50 b 397 -3 381 38 383 10 b 450 -3 412 -18 434 -16 b 526 148 495 34 522 90 b 451 282 529 201 504 263 z m 449 138 b 442 112 448 129 446 120 b 403 187 422 134 400 161 b 416 211 404 194 409 204 b 417 211 414 209 422 212 b 423 212 424 213 415 213 b 427 211 418 213 425 212 b 430 210 428 211 429 210 b 448 181 437 203 444 193 b 449 138 451 169 452 153 z "},"&":{"ha":631,"x_min":0,"x_max":0,"o":"m 528 107 b 423 261 491 157 457 209 b 483 482 454 331 471 407 b 494 551 487 505 491 528 b 468 597 497 571 489 591 b 422 571 450 602 425 591 b 374 342 410 494 399 416 b 245 588 327 422 284 504 b 245 589 245 588 245 589 b 400 731 302 631 362 669 b 374 968 445 804 446 912 b 140 911 297 1027 187 988 b 146 627 87 823 109 716 b 153 612 148 622 150 617 b 73 525 122 587 95 559 b 23 271 26 450 9 359 b 175 78 36 190 88 97 b 382 186 262 58 336 117 b 444 96 402 155 423 125 b 490 33 459 75 474 54 b 532 16 500 20 515 11 b 559 52 548 21 559 36 b 560 71 560 59 560 65 b 528 107 560 93 545 105 z m 193 848 b 261 918 204 881 229 908 b 340 897 291 927 323 920 b 352 806 359 870 361 837 b 282 710 341 767 312 736 b 214 658 261 691 237 674 b 193 848 189 719 171 784 z m 285 185 b 193 151 260 161 225 143 b 93 331 121 169 93 264 b 184 541 92 411 126 486 b 338 256 229 443 281 348 b 285 185 324 230 307 206 z "},"'":{"ha":118,"x_min":0,"x_max":0,"o":"m 22 900 b 19 756 21 852 20 804 b 95 756 19 708 94 708 b 97 900 95 804 96 852 b 22 900 98 948 23 948 z "},"(":{"ha":232,"x_min":0,"x_max":0,"o":"m 223 947 b 158 984 245 989 180 1027 b 81 120 20 719 -9 405 b 150 -49 99 62 123 6 b 201 -62 159 -67 184 -72 b 215 -11 220 -52 224 -29 b 187 48 205 8 196 28 b 187 49 187 48 187 48 b 186 50 187 49 187 49 b 183 58 185 53 184 55 b 176 75 181 64 178 69 b 161 118 171 89 166 104 b 112 320 138 184 122 252 b 154 783 92 476 107 635 b 223 947 174 844 194 891 z "},")":{"ha":217,"x_min":0,"x_max":0,"o":"m 149 798 b 91 982 134 860 115 922 b 45 1008 83 1001 66 1014 b 18 962 27 1003 11 981 b 67 153 121 705 140 420 b 10 -14 52 96 33 41 b 37 -60 3 -32 19 -55 b 83 -34 58 -66 75 -52 b 149 798 192 228 215 522 z "},"*":{"ha":397,"x_min":0,"x_max":0,"o":"m 361 871 b 315 865 345 880 328 876 b 243 806 291 846 267 826 b 241 893 242 835 242 864 b 166 893 240 942 165 942 b 168 792 167 860 167 826 b 119 823 152 802 135 813 b 81 758 78 849 40 784 b 139 722 100 746 119 734 b 25 629 101 691 63 660 b 25 576 9 616 11 589 b 78 576 40 560 62 563 b 171 651 109 601 140 626 b 173 541 171 615 172 578 b 248 541 174 493 249 493 b 246 653 247 578 246 616 b 289 626 260 644 274 635 b 327 691 330 600 367 665 b 266 729 306 704 286 716 b 326 778 286 746 306 762 b 370 804 344 775 364 782 b 378 829 373 812 375 820 b 361 871 383 845 375 863 z "},"+":{"ha":408,"x_min":0,"x_max":0,"o":"m 362 402 b 289 396 337 400 313 398 b 296 541 291 444 293 492 b 303 586 308 551 314 568 b 293 604 300 592 296 598 b 223 585 273 637 225 622 b 213 390 220 520 216 455 b 107 381 178 387 142 384 b 69 344 87 380 69 365 b 107 306 69 325 87 305 b 209 315 141 309 175 312 b 203 184 207 271 205 227 b 200 169 201 180 200 175 b 201 138 201 159 201 148 b 276 138 201 90 274 90 b 285 321 279 199 282 260 b 362 327 311 323 336 325 b 400 365 382 329 400 343 b 362 402 400 384 382 404 z "},",":{"ha":167,"x_min":0,"x_max":0,"o":"m 103 132 b 15 64 60 145 12 109 b 37 18 15 46 24 29 b 34 15 36 17 35 16 b -11 -44 14 -1 -1 -19 b 16 -90 -18 -62 -2 -85 b 62 -64 37 -96 54 -82 b 94 -33 67 -52 83 -41 b 143 19 113 -18 132 -3 b 103 132 163 59 152 119 z "},"-":{"ha":281,"x_min":0,"x_max":0,"o":"m 231 402 b 49 389 170 398 110 394 b 11 352 28 388 11 373 b 49 314 11 333 28 313 b 231 327 110 319 170 323 b 269 365 252 329 269 343 b 231 402 269 384 252 404 z "},".":{"ha":158,"x_min":0,"x_max":0,"o":"m 85 109 b 14 59 54 112 22 90 b 13 53 14 57 14 55 b 13 45 13 51 13 48 b 79 -23 12 9 43 -22 b 144 41 115 -24 143 6 b 85 109 146 77 120 106 z "},"/":{"ha":524,"x_min":0,"x_max":0,"o":"m 379 942 b 139 193 299 692 219 443 b 71 -17 116 123 94 53 b 144 -37 57 -63 129 -83 b 384 712 224 212 304 462 b 452 922 407 782 429 852 b 379 942 467 968 394 988 z "},":":{"ha":165,"x_min":0,"x_max":0,"o":"m 104 530 b 138 614 137 542 155 582 b 99 643 130 629 115 639 b 55 648 88 654 70 657 b 26 566 27 631 13 597 b 104 530 38 537 73 518 z m 145 236 b 77 295 143 273 112 298 b 67 294 73 295 70 294 b 20 228 38 286 18 257 b 85 171 22 194 51 169 b 145 236 119 173 147 202 z "},";":{"ha":207,"x_min":0,"x_max":0,"o":"m 170 622 b 86 630 148 644 112 646 b 70 584 71 620 63 600 b 89 533 68 565 75 546 b 172 537 113 513 151 514 b 170 622 195 561 192 599 z m 162 238 b 107 293 158 266 139 291 b 49 214 65 295 37 253 b 60 193 52 206 56 199 b 26 157 49 181 37 169 b 79 104 -7 122 46 69 b 124 151 94 119 109 135 b 146 177 132 159 139 168 b 154 180 149 178 151 179 b 167 231 172 189 177 215 b 162 238 166 234 164 236 z m 89 227 b 90 229 89 228 90 228 b 89 227 90 229 90 228 z m 112 244 b 114 245 112 244 113 245 b 112 244 113 244 112 244 z "},"<":{"ha":451,"x_min":0,"x_max":0,"o":"m 431 612 b 379 626 419 632 398 634 b 30 476 263 576 146 526 b 30 411 5 465 5 422 b 369 260 143 361 256 311 b 420 274 387 252 409 255 b 406 325 429 290 425 317 b 142 443 318 364 230 404 b 417 561 234 482 325 522 b 431 612 436 569 440 596 z "},"=":{"ha":315,"x_min":0,"x_max":0,"o":"m 54 447 b 257 453 122 449 189 451 b 252 528 305 455 300 530 b 49 521 184 526 117 524 b 54 447 1 520 6 445 z m 264 312 b 55 305 194 310 124 307 b 55 230 7 303 6 228 b 264 237 124 232 194 234 b 264 312 312 238 312 313 z "},">":{"ha":421,"x_min":0,"x_max":0,"o":"m 391 476 b 71 626 285 526 178 576 b 20 612 53 634 31 631 b 34 561 11 596 15 570 b 286 443 118 522 202 482 b 43 325 205 404 124 364 b 30 274 25 316 20 290 b 81 260 41 255 63 252 b 391 411 185 311 288 361 b 391 476 416 423 416 464 z "},"?":{"ha":436,"x_min":0,"x_max":0,"o":"m 356 855 b 209 976 333 918 276 967 b 23 879 134 986 57 946 b 36 828 14 861 18 838 b 88 841 53 818 78 823 b 201 902 109 883 157 910 b 290 808 246 894 285 855 b 217 654 297 749 255 694 b 85 508 172 607 119 564 b 72 296 47 444 33 362 b 137 334 97 254 162 292 b 168 495 106 386 133 451 b 315 655 213 552 272 596 b 356 855 355 711 381 787 z m 85 162 b 59 134 72 159 62 147 b 46 74 45 118 39 96 b 127 33 55 41 95 22 b 169 116 161 45 180 82 b 85 162 159 152 121 169 z "},"@":{"ha":657,"x_min":0,"x_max":0,"o":"m 572 792 b 341 895 517 864 431 908 b 126 735 247 882 173 814 b 34 458 76 651 47 553 b 44 168 21 362 21 262 b 235 -35 67 71 132 -16 b 482 90 335 -53 438 -3 b 469 141 491 108 487 130 b 417 128 452 151 426 146 b 265 36 390 69 331 31 b 128 148 200 42 150 88 b 101 382 101 222 97 305 b 154 622 106 464 124 545 b 285 797 181 689 220 759 b 467 791 344 832 410 830 b 561 613 524 752 554 681 b 522 372 568 531 548 450 b 467 276 511 340 500 292 b 450 271 461 273 455 271 b 439 273 446 271 440 273 b 426 302 430 280 427 291 b 439 428 423 343 433 387 b 460 581 446 479 453 530 b 434 627 463 601 455 622 b 389 607 418 632 395 623 b 174 412 285 593 197 517 b 231 273 163 360 167 288 b 351 333 280 262 321 296 b 351 302 350 323 350 312 b 418 202 355 259 374 217 b 542 242 462 185 513 207 b 602 376 573 280 587 330 b 634 523 617 424 628 473 b 572 792 645 616 629 717 z m 308 399 b 265 352 296 383 282 364 b 247 347 259 349 253 345 b 245 350 247 347 246 348 b 244 358 247 346 243 361 b 288 476 238 398 261 446 b 355 522 307 496 330 512 b 308 399 350 478 332 436 z "},"A":{"ha":538,"x_min":0,"x_max":0,"o":"m 429 170 b 472 2 443 114 457 58 b 544 22 484 -44 556 -24 b 359 745 482 263 421 504 b 307 950 342 814 324 882 b 235 950 298 986 244 986 b 46 218 172 706 109 462 b -7 10 29 149 11 79 b 65 -10 -19 -37 53 -57 b 110 162 80 47 95 105 b 429 170 216 165 322 168 z m 410 245 b 129 238 316 243 223 240 b 253 722 171 399 212 561 b 271 789 259 744 265 767 b 410 245 317 608 363 426 z "},"B":{"ha":575,"x_min":0,"x_max":0,"o":"m 43 139 b 44 124 42 134 42 129 b 48 19 45 89 46 54 b 85 -19 48 -1 64 -19 b 123 19 105 -19 124 -1 b 122 31 123 23 122 27 b 194 -13 144 13 168 -2 b 421 -25 264 -43 350 -54 b 551 198 507 11 560 105 b 497 323 547 245 530 288 b 399 384 470 351 435 369 b 390 388 396 385 393 387 b 503 495 435 414 474 451 b 534 781 559 580 570 686 b 312 958 498 877 421 958 b 122 870 238 958 171 923 b 125 942 123 894 124 918 b 87 979 126 962 107 979 b 50 942 66 979 51 962 b 41 218 39 700 36 459 b 43 139 42 191 43 165 z m 420 290 b 471 221 443 275 463 248 b 405 50 489 160 465 84 b 314 34 376 34 347 32 b 306 35 311 34 309 34 b 299 35 306 35 300 35 b 283 38 294 36 288 37 b 247 47 271 41 259 44 b 154 103 210 59 179 79 b 126 134 144 113 135 123 b 125 134 125 134 125 134 b 125 134 125 134 125 134 b 120 141 123 137 122 139 b 118 144 119 142 119 143 b 115 301 117 196 116 248 b 219 327 149 313 184 323 b 338 326 258 332 299 335 b 372 315 349 323 361 319 b 381 311 374 314 380 311 b 420 290 395 305 408 298 z m 191 834 b 241 867 205 847 222 858 b 263 875 249 871 253 872 b 279 879 268 877 274 878 b 290 882 281 880 291 882 b 395 855 330 887 362 879 b 402 850 396 855 398 853 b 413 839 406 847 410 843 b 423 829 417 836 420 832 b 428 823 425 827 426 825 b 429 822 428 822 429 822 b 431 819 429 821 430 820 b 459 768 442 803 452 786 b 463 758 459 768 463 759 b 467 745 465 753 466 749 b 475 716 470 735 473 726 b 477 704 476 712 477 708 b 479 694 478 702 479 693 b 481 665 480 684 481 674 b 446 545 480 621 467 581 b 432 523 442 538 437 530 b 427 517 430 521 429 519 b 421 510 427 516 422 511 b 402 489 415 503 409 496 b 292 428 371 459 334 439 b 231 418 268 422 254 420 b 171 420 211 417 191 418 b 159 421 167 420 163 421 b 155 422 158 421 156 421 b 137 425 149 423 143 424 b 118 429 130 426 124 428 b 114 430 117 430 115 430 b 117 710 114 523 115 617 b 125 724 120 714 123 718 b 191 834 137 767 158 804 z "},"C":{"ha":571,"x_min":0,"x_max":0,"o":"m 223 18 b 478 44 307 -21 407 -23 b 559 210 523 86 549 149 b 562 234 561 218 562 226 b 525 272 564 255 544 272 b 488 236 503 272 490 255 b 487 234 488 235 488 235 b 487 234 487 234 487 234 b 487 230 487 232 487 230 b 487 229 487 229 487 229 b 487 229 487 229 487 229 b 480 199 485 219 483 209 b 469 163 477 187 473 175 b 468 161 468 162 468 162 b 467 160 468 161 468 160 b 463 150 466 156 464 153 b 450 128 459 142 455 135 b 387 73 436 105 416 84 b 277 76 351 59 313 64 b 266 80 273 77 270 79 b 264 81 265 80 264 81 b 262 82 263 81 263 81 b 247 89 257 84 252 86 b 225 103 239 93 232 98 b 221 106 223 104 222 105 b 217 109 220 106 217 108 b 204 120 212 113 208 116 b 180 146 196 128 188 137 b 172 158 181 146 174 156 b 163 173 169 163 166 168 b 143 209 155 185 149 197 b 139 218 142 212 140 215 b 137 224 139 219 137 223 b 130 240 134 229 132 234 b 117 282 125 253 121 267 b 91 454 99 343 93 391 b 94 547 90 485 91 516 b 106 631 96 580 99 597 b 129 715 111 659 119 687 b 136 733 131 721 133 727 b 138 740 136 736 137 738 b 141 746 139 741 140 745 b 159 782 146 758 152 770 b 178 813 165 793 171 803 b 181 817 179 814 180 815 b 185 821 182 817 184 821 b 198 836 189 826 193 831 b 220 857 205 843 212 850 b 230 864 218 854 228 862 b 243 872 234 866 239 869 b 257 879 248 874 252 876 b 259 879 258 879 258 879 b 260 880 259 880 260 880 b 275 885 265 882 270 884 b 337 894 295 892 316 895 b 432 846 378 893 407 875 b 457 808 440 836 449 824 b 467 787 461 801 464 794 b 468 786 468 787 468 786 b 469 784 468 786 468 785 b 473 773 470 780 472 777 b 487 723 479 757 484 740 b 533 696 490 703 515 691 b 559 743 554 702 563 723 b 502 878 550 790 531 839 b 410 953 477 911 448 937 b 259 959 362 973 309 974 b 45 699 141 923 77 811 b 36 294 8 569 6 426 b 223 18 61 185 116 66 z "},"D":{"ha":578,"x_min":0,"x_max":0,"o":"m 46 9 b 84 -29 47 -11 63 -29 b 121 9 103 -29 122 -11 b 120 49 121 22 120 36 b 345 -1 178 -11 265 -28 b 471 99 399 17 439 52 b 537 261 503 148 523 205 b 541 661 568 391 568 530 b 481 830 529 719 511 778 b 377 936 457 872 423 915 b 134 901 295 972 201 964 b 122 889 130 897 126 893 b 123 931 122 903 123 917 b 86 969 124 952 106 969 b 48 931 65 969 49 952 b 40 208 38 690 35 449 b 46 9 42 141 44 75 z m 127 753 b 130 761 128 756 129 759 b 132 765 130 761 131 763 b 133 769 132 766 133 769 b 137 777 135 772 136 775 b 160 816 144 791 151 804 b 165 823 161 819 163 821 b 169 829 166 824 169 829 b 185 846 174 835 179 840 b 217 869 196 857 202 861 b 318 878 244 884 283 887 b 341 870 326 875 333 873 b 342 870 341 870 341 870 b 343 869 342 870 342 869 b 350 866 345 868 348 867 b 359 860 353 864 356 862 b 365 856 361 859 363 857 b 367 854 356 862 366 855 b 388 834 375 847 381 841 b 395 824 389 832 396 823 b 405 811 399 820 402 815 b 421 783 411 802 416 793 b 429 767 424 778 427 772 b 433 758 431 764 432 761 b 436 753 434 757 435 755 b 461 677 446 728 454 703 b 477 593 468 649 473 621 b 478 590 477 592 478 591 b 478 588 478 590 478 589 b 479 577 478 585 479 581 b 482 555 480 570 481 562 b 485 506 483 539 484 523 b 484 416 486 476 485 446 b 480 371 483 401 482 386 b 478 355 479 366 479 360 b 477 348 478 353 477 348 b 475 334 477 343 476 339 b 457 251 470 306 464 278 b 444 213 453 238 449 225 b 438 196 442 207 440 202 b 436 192 437 195 436 192 b 431 180 434 188 432 184 b 415 151 426 170 420 161 b 405 136 412 146 409 141 b 401 129 404 134 402 131 b 396 122 400 128 395 122 b 378 103 390 116 384 109 b 366 92 374 99 370 96 b 366 92 365 91 358 86 b 359 87 363 90 361 88 b 346 80 355 84 351 82 b 338 76 344 78 341 77 b 338 76 334 74 334 74 b 331 73 335 75 333 74 b 277 61 313 67 295 62 b 176 99 236 59 202 74 b 148 135 162 113 157 119 b 136 156 143 142 139 149 b 132 164 135 159 133 161 b 129 171 132 165 129 171 b 115 215 123 185 119 200 b 116 717 111 382 112 550 b 127 753 119 729 123 741 z "},"E":{"ha":456,"x_min":0,"x_max":0,"o":"m 46 16 b 80 -33 40 -6 51 -33 b 421 -27 194 -31 308 -29 b 421 48 470 -26 470 49 b 120 43 321 46 220 44 b 114 268 117 118 115 193 b 389 266 206 267 297 267 b 389 342 437 266 437 341 b 113 343 297 342 205 342 b 116 730 112 472 113 601 b 122 889 118 783 120 836 b 413 892 219 890 316 891 b 413 967 461 892 461 967 b 109 964 311 966 210 965 b 105 964 107 964 106 964 b 86 969 99 967 93 969 b 48 931 65 969 49 952 b 40 208 38 690 35 449 b 46 16 41 144 43 80 z "},"F":{"ha":456,"x_min":0,"x_max":0,"o":"m 46 9 b 84 -29 47 -11 63 -29 b 121 9 103 -29 122 -11 b 114 268 118 95 115 181 b 412 266 213 267 312 267 b 412 342 460 266 460 341 b 113 343 312 342 213 342 b 116 730 112 472 113 601 b 122 887 118 783 119 835 b 122 887 122 887 122 887 b 426 890 223 888 325 889 b 426 965 474 891 474 966 b 122 962 325 964 223 963 b 110 960 117 962 113 962 b 86 969 103 966 94 969 b 48 931 65 969 49 952 b 40 208 38 690 35 449 b 46 9 42 141 44 75 z "},"G":{"ha":583,"x_min":0,"x_max":0,"o":"m 217 21 b 456 26 292 -16 386 -26 b 564 248 526 78 557 164 b 564 317 566 271 565 294 b 526 355 564 337 546 356 b 291 343 448 351 369 347 b 253 305 271 342 253 326 b 291 268 253 286 271 267 b 490 278 357 271 424 274 b 479 195 490 250 487 222 b 465 153 475 180 470 165 b 452 131 461 145 457 138 b 446 120 450 127 448 124 b 439 112 442 115 442 115 b 363 66 418 88 397 72 b 266 80 329 61 298 68 b 264 81 266 81 265 81 b 263 82 264 81 263 82 b 255 86 260 83 257 84 b 243 92 251 88 247 90 b 223 105 236 96 230 100 b 222 105 223 105 222 105 b 222 106 222 105 222 105 b 215 111 219 108 217 109 b 202 123 211 115 206 119 b 181 147 195 131 187 139 b 177 152 180 148 178 151 b 172 160 175 155 174 157 b 162 175 168 165 165 170 b 143 209 155 186 149 198 b 136 225 141 214 139 219 b 134 231 136 226 134 230 b 130 240 132 234 131 237 b 117 279 125 253 121 266 b 97 367 108 308 102 337 b 96 374 97 370 97 372 b 96 377 96 375 96 376 b 96 379 96 377 96 378 b 93 401 95 386 94 394 b 90 450 92 417 91 434 b 92 540 89 480 90 510 b 103 622 94 573 96 589 b 125 704 108 650 116 677 b 132 724 127 711 129 717 b 136 733 133 727 134 730 b 136 735 136 734 136 734 b 137 736 136 735 137 736 b 154 772 142 748 148 760 b 174 804 160 783 167 794 b 180 812 176 807 178 809 b 183 816 180 812 182 815 b 193 828 186 820 189 824 b 217 853 200 837 209 845 b 224 858 220 855 222 856 b 225 859 224 859 225 859 b 226 859 225 859 225 859 b 240 869 230 863 235 866 b 264 882 248 874 256 878 b 270 884 265 882 269 884 b 281 889 274 886 278 887 b 306 896 290 891 298 894 b 413 878 342 904 380 901 b 470 800 436 863 459 830 b 489 670 485 758 490 714 b 564 670 487 621 562 621 b 485 915 567 756 547 850 b 247 956 423 980 328 988 b 43 694 136 911 74 805 b 35 294 7 565 5 424 b 217 21 60 188 114 71 z "},"H":{"ha":526,"x_min":0,"x_max":0,"o":"m 46 9 b 84 -29 47 -11 63 -29 b 121 9 103 -29 122 -11 b 114 268 118 95 115 181 b 406 267 211 267 309 267 b 407 208 406 247 407 227 b 413 9 409 141 411 75 b 451 -29 414 -11 430 -29 b 488 9 471 -29 489 -11 b 483 730 479 249 477 490 b 491 931 485 797 488 864 b 453 969 491 952 473 969 b 415 931 432 969 416 952 b 405 342 407 735 403 538 b 113 343 308 342 210 342 b 116 730 112 472 113 601 b 123 931 118 797 120 864 b 86 969 124 952 106 969 b 48 931 65 969 49 952 b 40 208 38 690 35 449 b 46 9 42 141 44 75 z "},"I":{"ha":158,"x_min":0,"x_max":0,"o":"m 46 9 b 84 -29 47 -11 63 -29 b 121 9 103 -29 122 -11 b 116 730 112 249 110 490 b 123 931 118 797 120 864 b 86 969 124 952 106 969 b 48 931 65 969 49 952 b 40 208 38 690 35 449 b 46 9 42 141 44 75 z "},"J":{"ha":490,"x_min":0,"x_max":0,"o":"m 128 -13 b 389 49 212 -33 327 -18 b 450 242 438 100 446 175 b 452 545 456 343 452 444 b 452 942 452 677 452 809 b 399 975 452 973 422 984 b 153 975 317 975 235 975 b 153 900 104 975 104 900 b 377 900 228 900 302 900 b 377 319 377 706 380 513 b 371 197 377 278 376 238 b 370 194 371 196 371 195 b 370 191 370 194 370 193 b 368 181 369 188 369 185 b 363 158 367 173 365 165 b 358 139 362 152 360 145 b 354 130 357 136 356 133 b 355 132 355 131 355 132 b 354 128 355 131 354 130 b 345 113 351 123 348 118 b 341 107 344 111 342 109 b 339 105 340 106 340 106 b 328 94 335 101 332 97 b 324 90 327 93 325 92 b 319 87 322 89 320 87 b 275 66 303 76 292 72 b 211 55 252 59 233 56 b 83 94 165 52 111 59 b 69 122 75 105 72 111 b 67 129 69 124 68 127 b 66 136 67 130 67 134 b 65 147 66 138 65 145 b 67 171 65 155 66 163 b 67 173 67 171 67 172 b 68 179 67 175 68 177 b -4 199 79 226 7 246 b 1 89 -13 163 -12 123 b 128 -13 23 34 71 -1 z m 66 169 b 66 169 66 168 66 168 z "},"K":{"ha":461,"x_min":0,"x_max":0,"o":"m 46 9 b 84 -29 47 -11 63 -29 b 121 9 103 -29 122 -11 b 113 360 117 126 114 243 b 365 -6 197 238 281 116 b 417 -20 377 -23 398 -31 b 430 31 433 -10 442 15 b 149 439 336 167 243 303 b 404 744 249 527 345 623 b 464 916 430 799 450 857 b 392 936 476 963 403 983 b 286 691 371 848 337 765 b 272 672 281 684 277 678 b 271 670 271 671 271 670 b 269 668 270 670 270 669 b 261 658 266 665 264 661 b 220 612 248 642 234 627 b 127 520 190 580 159 550 b 113 507 122 516 117 512 b 116 730 113 582 114 656 b 123 931 118 797 120 864 b 86 969 124 952 106 969 b 48 931 65 969 49 952 b 40 208 38 690 35 449 b 46 9 42 141 44 75 z "},"L":{"ha":408,"x_min":0,"x_max":0,"o":"m 46 9 b 50 -7 46 3 48 -2 b 86 -37 53 -23 65 -37 b 394 -38 189 -37 291 -38 b 394 37 442 -38 443 37 b 120 38 303 37 212 38 b 116 730 112 269 110 499 b 123 931 118 797 120 864 b 86 969 124 952 106 969 b 48 931 65 969 49 952 b 40 208 38 690 35 449 b 46 9 42 141 44 75 z "},"M":{"ha":614,"x_min":0,"x_max":0,"o":"m 40 208 b 46 9 42 141 44 75 b 84 -29 47 -11 63 -29 b 121 9 103 -29 122 -11 b 116 730 112 249 110 490 b 117 745 116 735 117 740 b 278 321 170 604 224 462 b 305 293 281 308 292 296 b 309 292 306 293 308 292 b 310 292 310 292 310 292 b 313 292 311 292 312 292 b 314 292 313 292 314 292 b 316 292 315 292 316 292 b 318 292 317 292 318 292 b 320 292 319 292 319 292 b 325 293 321 292 323 293 b 352 322 337 297 349 309 b 497 729 400 458 448 594 b 496 208 500 556 500 382 b 489 9 494 142 492 75 b 564 9 487 -39 562 -39 b 572 730 574 249 576 490 b 567 928 571 796 569 862 b 539 968 569 945 555 963 b 512 965 529 970 520 969 b 492 939 502 960 494 952 b 313 438 432 772 373 605 b 123 940 250 605 186 773 b 98 967 120 952 110 963 b 98 967 98 967 98 967 b 95 968 97 967 96 967 b 94 968 95 968 94 968 b 92 968 93 968 93 968 b 90 969 92 968 91 969 b 89 969 90 969 89 969 b 86 969 88 969 87 969 b 86 969 86 969 86 969 b 85 969 86 969 86 969 b 83 969 84 969 83 969 b 81 969 82 969 82 969 b 79 968 81 969 80 968 b 77 968 78 968 78 968 b 76 968 77 968 76 968 b 75 967 76 968 75 967 b 74 967 75 967 74 967 b 72 966 73 967 73 966 b 70 965 71 966 70 966 b 69 965 70 965 69 965 b 59 957 65 963 62 960 b 48 928 51 949 47 938 b 40 208 38 688 35 448 z "},"N":{"ha":567,"x_min":0,"x_max":0,"o":"m 40 208 b 46 9 42 141 44 75 b 84 -29 47 -11 63 -29 b 121 9 103 -29 122 -11 b 116 720 112 246 110 483 b 345 182 181 536 258 356 b 444 -3 377 120 410 58 b 456 -21 446 -11 451 -17 b 497 -23 468 -31 484 -30 b 517 1 506 -19 514 -11 b 518 9 517 4 518 6 b 518 9 518 9 518 9 b 525 730 527 249 530 490 b 520 931 524 797 522 864 b 445 931 518 980 443 980 b 449 208 453 691 455 449 b 447 148 448 188 448 168 b 186 747 346 341 258 541 b 123 939 164 810 143 874 b 115 955 122 945 119 951 b 114 957 114 956 114 956 b 112 958 113 957 113 958 b 111 959 112 958 111 959 b 86 969 104 965 95 969 b 60 958 76 969 67 965 b 48 928 52 952 47 941 b 40 208 38 688 35 448 z "},"O":{"ha":557,"x_min":0,"x_max":0,"o":"m 99 90 b 284 -28 138 23 202 -33 b 467 108 368 -24 430 37 b 535 378 510 191 528 286 b 537 443 536 400 537 422 b 518 678 537 522 531 601 b 444 896 506 753 487 832 b 261 984 402 958 338 996 b 100 847 186 973 132 912 b 28 591 59 768 40 679 b 24 341 17 509 14 424 b 99 90 34 255 54 166 z m 182 99 b 182 99 184 97 183 98 z m 97 529 b 144 761 103 606 116 685 b 189 851 154 791 169 822 b 194 858 190 852 194 857 b 199 864 196 860 197 862 b 216 881 204 870 210 876 b 224 888 218 884 221 886 b 225 889 225 889 225 889 b 228 891 226 890 226 890 b 247 902 234 895 240 899 b 250 904 248 903 249 903 b 250 904 250 904 250 904 b 260 907 254 905 257 906 b 269 910 263 908 266 909 b 277 911 271 910 279 911 b 296 912 283 912 290 912 b 303 911 297 912 301 911 b 311 909 305 911 310 910 b 325 905 316 908 320 907 b 331 902 324 905 329 903 b 341 897 334 901 338 899 b 349 891 343 895 346 893 b 351 889 343 895 349 891 b 367 873 357 884 362 879 b 373 866 369 871 371 868 b 375 863 374 865 375 864 b 388 843 380 856 384 850 b 400 822 392 836 396 829 b 405 811 401 818 403 815 b 406 808 405 810 406 809 b 408 804 407 807 407 805 b 438 701 421 770 431 736 b 461 490 453 630 459 565 b 462 443 462 474 462 459 b 425 202 462 360 452 281 b 377 105 414 168 399 137 b 375 102 377 104 376 103 b 373 100 374 102 374 100 b 365 91 371 97 368 94 b 347 73 359 84 353 78 b 345 71 346 72 345 71 b 344 70 345 71 344 71 b 334 64 340 68 337 66 b 324 58 331 62 327 60 b 316 54 322 57 315 54 b 296 48 309 52 303 50 b 290 47 294 48 291 47 b 279 46 286 47 282 47 b 267 47 275 46 271 46 b 260 48 265 47 261 47 b 239 53 253 49 246 51 b 236 54 238 54 237 54 b 235 55 236 54 236 54 b 225 60 232 57 228 58 b 215 66 222 62 219 64 b 212 69 214 67 213 68 b 211 69 211 69 211 69 b 210 70 211 69 211 70 b 194 85 205 75 199 80 b 186 94 192 88 189 91 b 182 99 185 96 184 97 b 181 100 182 99 182 100 b 104 306 137 160 118 231 b 97 529 92 375 91 454 z "},"P":{"ha":649,"x_min":0,"x_max":0,"o":"m 46 9 b 84 -29 47 -11 63 -29 b 121 9 103 -29 122 -11 b 113 405 116 141 113 273 b 234 295 140 358 180 319 b 482 309 314 260 406 266 b 624 494 553 349 601 417 b 620 785 651 585 650 695 b 471 963 594 861 545 929 b 214 948 389 1001 291 996 b 120 849 175 923 144 888 b 123 931 121 876 122 904 b 86 969 124 952 106 969 b 48 931 65 969 49 952 b 40 208 38 690 35 449 b 46 9 42 141 44 75 z m 138 661 b 139 673 139 665 139 669 b 140 673 139 673 140 673 b 141 681 140 676 140 678 b 148 715 143 693 145 704 b 216 852 160 768 180 815 b 285 900 236 873 256 888 b 388 912 317 913 353 917 b 536 793 457 900 508 853 b 560 717 545 774 555 743 b 563 699 561 711 562 705 b 563 697 563 698 564 687 b 564 691 564 695 564 693 b 566 662 565 681 566 672 b 567 623 567 649 568 636 b 566 597 567 614 567 606 b 565 579 566 591 566 585 b 564 572 565 577 564 574 b 563 566 564 571 563 567 b 491 408 554 505 533 451 b 313 349 444 362 375 339 b 210 400 274 355 238 373 b 157 483 187 423 168 455 b 143 533 151 499 147 516 b 140 554 142 540 141 547 b 139 556 139 555 139 555 b 139 558 139 556 139 557 b 138 567 139 561 138 564 b 136 627 136 587 136 607 b 138 661 136 638 137 650 z "},"Q":{"ha":504,"x_min":0,"x_max":0,"o":"m 89 93 b 255 -28 120 29 177 -33 b 325 -7 281 -27 304 -19 b 367 -70 339 -28 353 -49 b 418 -83 378 -86 400 -94 b 432 -32 435 -73 443 -49 b 381 43 415 -7 398 18 b 420 107 397 63 409 85 b 480 376 458 191 474 284 b 482 443 481 398 482 421 b 466 677 482 522 477 600 b 401 894 455 751 439 829 b 237 984 366 954 309 995 b 93 851 168 974 120 911 b 29 597 56 771 39 684 b 24 344 19 513 16 428 b 89 93 33 258 50 171 z m 98 532 b 139 763 103 611 115 687 b 148 790 142 772 145 781 b 152 801 150 794 151 797 b 155 807 153 803 154 805 b 156 810 155 807 156 809 b 179 852 163 824 170 839 b 185 862 181 856 183 859 b 190 869 186 863 189 867 b 194 874 191 870 193 873 b 202 883 196 877 199 880 b 214 894 206 887 210 891 b 219 898 215 895 217 897 b 227 903 222 900 225 901 b 233 906 228 903 231 905 b 239 908 235 906 238 908 b 247 910 241 909 244 909 b 254 911 249 911 252 911 b 268 911 259 911 263 911 b 270 911 269 911 270 911 b 270 911 270 911 270 911 b 281 909 274 910 277 910 b 284 908 282 909 283 908 b 286 907 284 908 285 907 b 288 906 286 907 287 907 b 286 907 287 907 287 907 b 290 905 287 907 288 906 b 296 902 292 904 294 903 b 302 898 297 901 300 899 b 307 894 304 896 306 894 b 313 888 309 892 311 890 b 319 881 315 886 317 883 b 323 876 320 879 322 877 b 344 841 331 865 338 853 b 349 830 346 837 348 834 b 352 824 350 829 352 825 b 356 815 353 822 355 817 b 360 802 357 811 359 806 b 386 701 372 769 380 735 b 406 489 399 633 404 563 b 407 443 407 474 407 459 b 375 201 407 360 398 281 b 336 110 364 166 355 140 b 291 177 321 132 306 155 b 240 191 280 194 258 201 b 226 139 223 181 215 156 b 283 55 245 111 264 83 b 280 53 282 54 281 54 b 274 51 280 53 276 51 b 265 48 271 50 268 49 b 258 47 263 48 258 47 b 249 46 255 47 252 46 b 239 47 246 46 243 47 b 238 47 239 47 239 47 b 236 47 238 47 237 47 b 226 50 233 48 230 49 b 222 51 225 50 224 51 b 206 61 217 54 212 57 b 203 63 205 61 204 62 b 203 63 203 63 203 63 b 194 71 200 66 197 69 b 181 86 189 76 185 81 b 177 90 180 87 178 89 b 170 102 175 94 172 98 b 129 194 150 134 140 159 b 104 309 118 232 110 271 b 98 363 102 323 99 344 b 95 417 96 381 95 399 b 98 532 94 455 95 494 z "},"R":{"ha":629,"x_min":0,"x_max":0,"o":"m 41 208 b 48 9 43 141 45 75 b 85 -29 48 -11 64 -29 b 123 9 105 -29 123 -11 b 115 316 119 111 116 213 b 461 21 230 217 346 119 b 514 21 477 8 499 6 b 514 74 528 34 530 61 b 277 276 435 141 356 208 b 459 309 339 266 403 277 b 601 494 530 349 578 417 b 596 785 628 585 627 695 b 447 963 571 861 521 929 b 191 948 366 1001 267 996 b 123 886 165 931 142 910 b 125 931 123 901 124 916 b 87 969 126 952 107 969 b 50 931 66 969 51 952 b 41 680 46 848 43 764 b 38 627 39 662 38 644 b 40 571 37 609 38 590 b 41 208 38 450 39 329 z m 192 852 b 261 900 212 873 233 888 b 364 912 294 913 330 917 b 513 793 434 900 484 853 b 537 717 522 774 531 743 b 540 699 538 711 539 705 b 540 697 540 698 541 687 b 541 691 540 695 541 693 b 543 662 542 681 543 672 b 544 623 544 649 544 636 b 543 597 544 614 544 606 b 542 579 543 591 542 585 b 541 572 541 577 541 574 b 540 566 541 571 540 567 b 467 408 530 505 510 451 b 290 349 421 362 352 339 b 187 400 251 355 215 373 b 134 483 163 423 144 455 b 120 533 128 499 124 516 b 116 554 119 540 118 547 b 116 556 116 555 116 555 b 116 558 116 556 116 557 b 115 567 115 561 115 564 b 115 569 115 568 115 568 b 116 673 115 604 116 638 b 118 681 117 676 117 679 b 124 715 119 693 122 704 b 192 852 137 768 157 815 z "},"S":{"ha":542,"x_min":0,"x_max":0,"o":"m 183 505 b 262 444 209 485 236 464 b 269 439 265 442 267 440 b 276 434 270 438 275 434 b 295 418 282 429 289 424 b 331 388 307 409 319 399 b 395 325 354 369 375 348 b 401 317 397 322 399 320 b 404 314 402 316 403 315 b 404 313 404 314 404 314 b 417 295 408 308 413 302 b 437 259 424 284 430 271 b 437 258 437 258 437 258 b 438 255 438 257 438 256 b 441 247 439 252 440 250 b 447 226 444 240 446 233 b 449 216 448 223 449 219 b 450 211 450 214 450 212 b 452 192 451 205 451 198 b 450 162 452 182 451 172 b 450 161 450 162 450 162 b 449 156 450 160 450 158 b 447 146 449 153 448 149 b 443 133 446 141 444 137 b 440 124 443 131 440 124 b 408 82 432 108 420 91 b 390 70 402 78 396 74 b 369 61 381 66 374 63 b 265 46 333 48 304 44 b 168 71 233 48 196 56 b 130 99 150 81 142 86 b 103 149 116 113 108 130 b 100 168 100 160 100 160 b 100 189 99 175 99 182 b 62 226 100 209 82 226 b 25 189 41 226 25 209 b 389 -11 17 2 241 -65 b 491 62 430 4 465 27 b 526 170 513 93 523 132 b 483 331 530 226 513 283 b 355 466 450 384 403 427 b 275 528 329 487 302 508 b 257 542 269 533 263 537 b 249 548 254 544 251 546 b 246 550 248 549 247 550 b 242 553 245 551 243 553 b 206 582 230 562 218 572 b 142 641 184 600 162 620 b 129 656 138 646 133 651 b 123 664 127 658 125 661 b 122 665 122 664 122 664 b 120 667 122 665 121 666 b 100 699 113 677 106 688 b 96 708 99 702 97 705 b 96 709 96 708 96 708 b 96 709 96 709 96 709 b 90 727 93 715 91 721 b 86 744 88 732 87 738 b 86 744 86 744 86 744 b 86 746 86 745 86 745 b 85 756 85 749 85 752 b 85 773 85 761 85 767 b 85 774 85 774 85 774 b 95 811 88 787 91 799 b 99 819 95 810 98 818 b 105 830 101 823 103 827 b 123 853 111 839 115 845 b 165 882 135 865 149 874 b 183 889 170 884 174 886 b 211 897 192 892 202 895 b 262 903 230 901 241 902 b 369 885 301 904 332 899 b 387 877 375 883 379 881 b 409 863 395 873 402 868 b 415 859 409 863 414 859 b 424 849 418 856 421 853 b 443 822 432 841 438 832 b 452 798 447 814 450 806 b 454 787 453 794 453 791 b 455 778 454 788 455 779 b 492 740 456 758 471 740 b 530 778 512 740 531 757 b 134 950 517 968 281 1015 b 11 777 64 919 19 853 b 54 631 5 725 24 673 b 183 505 89 582 135 542 z "},"T":{"ha":485,"x_min":0,"x_max":0,"o":"m 15 903 b 200 903 77 903 139 903 b 198 214 200 673 199 443 b 198 9 198 145 198 77 b 273 9 198 -39 273 -39 b 275 727 274 248 274 487 b 275 903 275 785 275 844 b 469 902 340 902 404 902 b 469 977 517 902 517 977 b 15 978 318 978 167 978 b 15 903 -33 978 -33 903 z "},"U":{"ha":501,"x_min":0,"x_max":0,"o":"m 236 -9 b 376 66 295 -14 344 20 b 442 247 413 118 430 185 b 468 487 457 326 464 406 b 469 903 475 625 468 764 b 470 931 469 912 469 922 b 395 931 471 980 396 980 b 395 781 393 881 395 831 b 396 562 397 708 397 635 b 380 330 394 485 390 407 b 379 325 380 329 380 327 b 379 324 379 325 379 324 b 377 311 379 319 378 315 b 373 282 376 301 374 292 b 362 231 370 265 366 248 b 350 185 359 216 354 200 b 342 164 347 178 345 171 b 339 154 341 160 340 157 b 338 151 338 152 338 152 b 337 150 337 151 337 150 b 319 115 331 138 326 126 b 309 100 316 110 312 105 b 308 99 308 99 308 99 b 302 92 306 96 304 94 b 290 81 298 88 294 84 b 290 80 290 81 290 81 b 282 75 287 79 285 77 b 276 72 280 74 278 73 b 275 71 276 72 275 72 b 276 72 276 72 276 72 b 275 71 276 72 275 71 b 271 70 273 71 272 70 b 260 67 267 69 264 68 b 257 66 259 67 258 66 b 256 66 258 66 258 66 b 253 65 255 66 254 66 b 255 66 254 66 255 66 b 253 66 255 66 254 66 b 237 66 248 66 242 67 b 237 66 237 66 237 66 b 228 68 234 67 231 67 b 221 71 226 69 224 70 b 221 71 221 71 221 71 b 221 71 221 71 221 71 b 208 78 216 73 212 76 b 207 79 207 79 207 79 b 201 84 205 81 203 82 b 190 96 197 88 194 92 b 188 97 189 96 189 97 b 183 105 186 100 185 102 b 164 139 175 116 169 127 b 159 148 162 142 161 145 b 158 151 163 141 160 148 b 150 173 156 158 153 166 b 127 269 140 205 133 237 b 123 295 125 278 124 286 b 121 307 122 299 121 303 b 120 310 121 308 121 309 b 120 315 120 312 120 315 b 114 373 117 335 115 354 b 106 492 110 413 108 452 b 108 902 101 629 109 765 b 107 931 108 912 108 922 b 32 931 106 980 30 980 b 31 766 34 876 32 821 b 30 533 29 688 28 611 b 49 286 32 450 37 368 b 105 88 58 218 73 149 b 236 -9 133 37 176 -3 z m 309 100 b 309 100 310 101 312 103 z m 188 98 b 188 98 186 100 187 99 z "},"V":{"ha":539,"x_min":0,"x_max":0,"o":"m 471 950 b 286 218 409 706 348 462 b 270 153 281 196 275 175 b 120 742 220 349 170 546 b 67 950 102 811 84 881 b -6 930 55 997 -18 977 b 181 198 57 686 119 442 b 234 -10 199 129 216 59 b 306 -10 243 -46 297 -46 b 491 722 368 234 429 478 b 543 930 508 792 526 861 b 471 950 555 977 483 997 z "},"W":{"ha":753,"x_min":0,"x_max":0,"o":"m 31 533 b 46 293 33 453 36 372 b 95 88 54 223 66 153 b 210 -9 116 40 154 -4 b 333 66 264 -14 307 22 b 374 174 352 99 365 136 b 403 88 382 145 391 116 b 518 -9 425 40 463 -4 b 641 66 572 -14 615 22 b 697 246 673 120 687 185 b 719 486 710 326 716 406 b 720 902 724 625 719 763 b 720 931 720 912 720 922 b 645 931 722 980 647 980 b 646 562 641 808 648 685 b 633 331 645 485 641 408 b 630 304 632 322 631 313 b 629 294 630 301 629 297 b 627 282 629 293 627 284 b 618 231 624 265 622 248 b 595 144 612 202 605 172 b 591 134 594 140 593 137 b 589 128 591 134 590 130 b 587 124 588 127 587 124 b 582 115 585 121 584 118 b 574 100 580 110 577 105 b 570 93 573 98 571 95 b 569 91 567 90 560 83 b 559 81 565 88 563 84 b 554 76 558 79 556 78 b 553 75 554 76 554 75 b 555 76 554 75 554 76 b 553 75 554 76 554 75 b 552 74 551 73 550 73 b 543 69 549 72 546 71 b 545 69 544 69 544 69 b 543 69 544 69 544 69 b 543 69 543 69 543 69 b 541 68 539 67 539 67 b 537 67 540 68 539 67 b 532 66 536 66 534 66 b 526 66 530 66 528 66 b 522 66 522 66 517 68 b 520 66 529 63 522 66 b 514 68 518 67 516 68 b 509 71 512 69 510 70 b 503 74 507 72 505 73 b 493 84 500 77 496 80 b 489 89 492 86 490 88 b 488 90 488 89 488 90 b 479 105 485 95 482 100 b 471 120 476 110 473 115 b 467 127 470 123 469 125 b 465 133 467 129 466 131 b 452 173 460 146 456 159 b 433 269 443 204 437 237 b 431 281 432 273 431 277 b 431 282 431 282 431 282 b 430 288 430 284 430 286 b 427 316 429 297 428 306 b 421 374 425 335 423 355 b 415 492 418 413 417 452 b 417 901 411 628 417 765 b 416 931 417 911 417 921 b 377 968 415 956 396 968 b 337 931 357 968 338 956 b 338 562 333 808 340 685 b 325 331 336 485 333 408 b 322 304 324 322 323 313 b 320 294 321 301 321 297 b 319 282 320 293 319 284 b 310 231 316 265 313 248 b 287 144 304 202 297 172 b 283 134 285 140 284 137 b 281 128 283 134 281 130 b 279 124 280 127 279 124 b 274 115 277 121 276 118 b 266 100 272 110 269 105 b 261 93 264 98 263 95 b 260 91 259 90 252 83 b 251 81 257 88 254 84 b 246 76 249 79 248 78 b 245 75 246 76 245 75 b 246 76 246 75 246 76 b 245 75 246 76 245 75 b 243 74 242 73 241 73 b 235 69 241 72 238 71 b 237 69 236 69 236 69 b 235 69 236 69 236 69 b 235 69 235 69 235 69 b 233 68 231 67 231 67 b 229 67 232 68 230 67 b 224 66 227 66 225 66 b 217 66 222 66 220 66 b 214 66 214 66 209 68 b 212 66 221 63 214 66 b 206 68 210 67 208 68 b 200 71 204 69 202 70 b 195 74 199 72 197 73 b 185 84 192 77 188 80 b 180 89 183 86 182 88 b 180 90 180 89 180 90 b 171 105 177 95 173 100 b 163 120 168 110 165 115 b 159 127 161 123 160 125 b 157 133 158 129 158 131 b 144 173 152 146 148 159 b 124 269 135 204 129 237 b 122 281 124 273 123 277 b 122 282 122 282 122 282 b 122 288 122 284 122 286 b 118 316 120 297 119 306 b 113 374 116 335 115 355 b 107 492 110 413 108 452 b 108 901 103 628 109 765 b 108 931 108 911 108 921 b 33 931 106 980 31 980 b 31 533 37 799 29 666 z "},"X":{"ha":513,"x_min":0,"x_max":0,"o":"m 209 393 b 135 225 185 337 160 281 b 44 23 105 158 75 90 b 58 -29 36 4 39 -18 b 109 -15 74 -38 101 -34 b 249 298 156 89 202 193 b 291 194 263 263 277 229 b 376 -10 320 126 348 58 b 422 -36 383 -29 401 -42 b 448 10 440 -31 456 -9 b 291 392 396 137 343 264 b 425 694 335 492 380 593 b 515 896 455 761 485 829 b 502 947 524 915 521 936 b 451 934 486 957 459 953 b 251 487 384 785 318 636 b 153 724 219 566 186 645 b 69 929 125 793 97 861 b 23 955 61 947 44 961 b -4 909 5 950 -11 928 b 209 393 67 737 138 565 z "},"Y":{"ha":564,"x_min":0,"x_max":0,"o":"m 574 913 b 561 965 583 931 579 954 b 509 951 544 974 518 969 b 285 498 434 800 360 649 b 278 497 282 498 280 498 b 54 955 203 650 129 802 b 3 968 45 973 19 978 b -11 917 -16 957 -20 935 b 248 389 75 741 161 565 b 243 -3 246 258 244 127 b 318 -3 242 -52 317 -52 b 323 406 319 133 321 269 b 574 913 407 575 490 744 z "},"Z":{"ha":483,"x_min":0,"x_max":0,"o":"m 454 48 b 99 45 336 47 217 46 b 388 694 195 261 291 477 b 478 896 418 761 448 829 b 473 940 485 911 484 929 b 446 953 467 948 458 953 b 29 950 307 952 168 951 b 29 875 -19 949 -19 874 b 388 877 149 875 268 876 b 97 225 291 660 194 442 b 13 35 69 162 41 98 b 4 -9 1 24 -1 5 b 21 -29 7 -17 12 -24 b 56 -30 30 -35 45 -35 b 454 -28 189 -29 321 -28 b 454 48 502 -27 502 48 z "},"[":{"ha":221,"x_min":0,"x_max":0,"o":"m 118 901 b 178 901 138 901 158 901 b 178 976 226 901 226 976 b 99 977 152 976 125 976 b 96 976 98 977 97 976 b 44 943 74 985 44 974 b 41 210 43 699 42 454 b 40 3 41 141 41 72 b 46 -19 40 -6 43 -13 b 83 -49 50 -35 65 -50 b 154 -41 107 -46 131 -43 b 192 -3 175 -39 192 -25 b 154 34 192 15 175 36 b 115 30 141 33 128 31 b 118 735 116 265 117 500 b 118 901 118 791 118 846 z "},"\\":{"ha":460,"x_min":0,"x_max":0,"o":"m 388 10 b 197 712 324 244 261 478 b 143 910 179 778 161 844 b 71 890 131 957 58 937 b 262 188 135 656 198 422 b 316 -10 280 122 298 56 b 388 10 328 -57 401 -37 z "},"]":{"ha":299,"x_min":0,"x_max":0,"o":"m 230 975 b 210 980 224 979 218 981 b 106 978 175 980 140 979 b 106 903 57 977 57 902 b 182 905 131 904 157 904 b 180 208 181 672 181 440 b 179 34 180 150 179 92 b 109 27 156 32 132 30 b 71 -10 89 25 71 11 b 109 -48 71 -29 89 -50 b 203 -38 140 -45 172 -41 b 213 -36 207 -38 210 -37 b 254 0 233 -38 254 -26 b 257 733 255 244 256 489 b 257 940 257 802 257 871 b 230 975 257 960 245 972 z "},"^":{"ha":286,"x_min":0,"x_max":0,"o":"m 191 929 b 14 578 132 812 73 695 b 28 526 5 559 10 537 b 79 540 44 516 70 521 b 177 735 112 605 144 670 b 168 548 174 673 171 610 b 205 511 167 528 186 511 b 243 548 226 511 242 528 b 261 910 249 669 255 790 b 191 929 263 947 208 962 z "},"_":{"ha":410,"x_min":0,"x_max":0,"o":"m 367 30 b 40 23 258 28 149 25 b 40 -52 -8 22 -8 -53 b 367 -45 149 -50 258 -48 b 367 30 415 -44 415 31 z "},"`":{"ha":160,"x_min":0,"x_max":0,"o":"m 140 866 b 82 968 121 900 102 934 b 18 930 59 1010 -6 973 b 75 828 37 896 56 862 b 140 866 99 786 163 824 z "},"a":{"ha":558,"x_min":0,"x_max":0,"o":"m 516 740 b 523 942 518 807 520 874 b 486 979 524 962 505 979 b 448 942 464 979 449 962 b 443 808 446 897 444 852 b 311 960 418 872 378 936 b 126 895 242 983 169 949 b 47 723 87 845 63 784 b 38 282 11 581 9 425 b 105 102 51 219 71 156 b 269 1 141 47 199 -3 b 438 159 356 5 407 87 b 441 168 439 162 440 165 b 446 19 442 118 444 69 b 483 -19 447 -1 462 -19 b 521 19 503 -19 522 -1 b 516 740 511 259 510 500 z m 391 255 b 348 146 380 214 368 181 b 336 126 344 139 340 132 b 329 116 334 122 331 119 b 323 109 329 116 324 110 b 307 93 318 103 313 98 b 304 91 306 92 305 92 b 304 91 304 91 304 91 b 294 84 301 88 298 86 b 285 80 291 83 288 81 b 282 79 292 83 286 80 b 258 76 274 76 266 75 b 234 82 250 76 242 79 b 231 83 233 82 232 83 b 223 87 228 85 225 86 b 210 95 219 90 214 92 b 209 96 210 96 209 96 b 210 95 209 96 209 96 b 209 96 209 96 209 96 b 207 98 207 98 206 99 b 203 101 206 99 204 100 b 180 125 195 109 187 117 b 179 127 180 126 179 127 b 174 134 177 130 175 132 b 163 151 170 140 167 145 b 145 186 157 162 151 174 b 143 192 145 188 143 191 b 140 198 142 194 141 196 b 133 219 138 205 135 212 b 120 262 128 233 124 248 b 109 308 116 277 112 293 b 105 331 108 316 107 323 b 103 343 105 335 104 339 b 102 353 103 344 102 352 b 94 452 98 386 95 419 b 96 555 93 486 94 521 b 101 605 98 571 99 588 b 102 614 101 608 102 611 b 103 622 102 616 103 620 b 107 647 105 630 106 639 b 129 737 113 677 120 708 b 144 778 134 751 139 764 b 144 778 144 778 144 778 b 145 781 144 779 145 780 b 149 789 147 784 148 787 b 158 808 152 796 155 802 b 178 839 164 819 171 829 b 180 843 179 841 180 842 b 184 847 181 844 183 846 b 196 860 188 852 192 856 b 207 871 199 864 203 867 b 208 871 207 871 208 871 b 215 876 210 873 213 875 b 227 883 219 879 223 881 b 234 886 229 884 232 885 b 236 887 223 880 233 886 b 291 887 256 893 271 892 b 292 887 291 887 292 887 b 293 886 292 887 293 887 b 303 881 296 884 300 883 b 311 876 306 879 309 877 b 317 870 304 880 315 872 b 333 854 322 865 328 860 b 335 851 334 852 335 852 b 336 849 335 851 335 851 b 344 838 339 845 342 842 b 369 789 354 822 362 806 b 419 565 398 724 413 637 b 422 512 421 548 422 530 b 391 255 424 424 414 339 z "},"b":{"ha":629,"x_min":0,"x_max":0,"o":"m 600 506 b 451 685 575 582 525 650 b 194 669 369 723 271 718 b 115 592 162 649 136 622 b 118 740 115 642 116 691 b 125 942 119 807 122 874 b 87 979 126 962 107 979 b 50 942 66 979 51 962 b 41 218 39 700 36 459 b 48 19 43 151 45 85 b 85 -19 48 -1 64 -19 b 123 19 105 -19 124 -1 b 120 87 122 42 121 65 b 214 17 145 58 176 33 b 463 30 294 -19 386 -13 b 604 216 533 70 581 139 b 600 506 631 307 630 416 z m 548 344 b 547 319 548 336 547 327 b 545 300 546 312 546 306 b 544 293 545 298 545 295 b 543 287 544 292 544 288 b 471 130 534 227 514 172 b 293 70 424 83 355 60 b 190 122 254 77 219 94 b 138 205 167 145 148 176 b 124 254 132 221 127 237 b 120 275 122 261 121 268 b 119 277 120 276 120 277 b 119 279 119 278 119 278 b 118 289 119 282 119 285 b 116 348 116 309 116 328 b 118 382 116 360 117 371 b 120 394 119 386 119 390 b 120 394 120 394 120 394 b 121 403 120 397 121 400 b 128 437 123 414 125 425 b 196 574 140 489 160 536 b 265 621 216 595 236 610 b 368 633 297 634 333 639 b 517 514 437 622 488 575 b 540 439 526 495 535 464 b 543 421 541 433 542 427 b 544 418 543 419 545 409 b 544 413 544 417 544 415 b 547 383 545 403 546 393 b 548 344 547 370 548 357 z "},"c":{"ha":518,"x_min":0,"x_max":0,"o":"m 472 272 b 434 234 450 272 436 255 b 434 229 434 233 434 231 b 434 228 434 229 434 229 b 434 228 434 228 434 228 b 427 196 432 217 430 207 b 400 124 420 167 414 148 b 343 71 386 100 370 81 b 293 65 327 65 310 64 b 272 70 289 66 279 68 b 260 74 268 71 264 72 b 250 78 259 74 249 78 b 222 93 240 82 231 87 b 216 97 220 94 218 95 b 216 97 215 98 208 103 b 208 104 213 99 210 101 b 185 127 200 111 192 119 b 180 133 184 129 182 131 b 169 149 177 138 173 143 b 151 180 163 159 157 169 b 143 197 148 186 146 191 b 141 203 142 199 141 201 b 140 204 140 203 140 203 b 138 208 139 205 139 207 b 114 286 128 234 120 259 b 105 327 110 299 107 313 b 101 349 104 335 102 342 b 100 360 101 352 100 356 b 100 361 100 360 100 360 b 99 368 99 363 99 366 b 92 458 95 398 93 428 b 95 548 92 488 93 518 b 99 589 96 562 97 575 b 100 597 99 592 99 594 b 101 604 100 599 101 604 b 105 629 102 613 103 621 b 124 711 110 657 116 684 b 137 749 128 724 132 736 b 141 760 138 751 141 760 b 150 777 144 766 147 772 b 167 809 155 788 160 799 b 176 823 170 814 173 819 b 183 833 178 826 186 836 b 203 855 189 840 196 848 b 214 865 207 858 211 861 b 214 865 214 865 214 865 b 215 865 215 865 215 865 b 221 869 217 866 219 868 b 297 894 245 885 267 894 b 352 879 317 895 335 889 b 382 851 363 872 372 863 b 387 845 382 851 387 845 b 395 833 390 841 392 837 b 407 810 399 825 403 818 b 411 801 408 807 410 804 b 412 800 412 800 412 800 b 414 794 413 798 413 796 b 421 775 417 788 419 781 b 434 723 426 758 431 740 b 480 696 437 703 462 692 b 506 743 501 702 509 723 b 454 880 498 790 481 840 b 373 953 433 910 407 937 b 231 957 328 973 277 974 b 43 698 121 917 69 804 b 34 299 11 569 9 429 b 197 20 55 195 99 74 b 432 42 273 -21 368 -23 b 506 210 475 87 497 150 b 509 234 507 218 508 226 b 472 272 511 255 491 272 z m 181 132 b 180 133 181 132 180 132 b 181 132 185 127 182 131 z "},"d":{"ha":635,"x_min":0,"x_max":0,"o":"m 593 730 b 600 931 594 797 597 864 b 562 969 601 952 582 969 b 525 931 541 969 526 952 b 515 602 520 822 517 712 b 416 685 489 637 456 666 b 159 669 334 723 235 718 b 6 348 53 602 8 469 b 178 17 3 218 50 73 b 427 30 259 -19 351 -13 b 519 113 464 51 495 80 b 523 9 520 78 521 44 b 560 -29 523 -11 539 -29 b 598 9 580 -29 598 -11 b 593 730 588 249 586 490 z m 512 344 b 511 319 512 336 512 327 b 510 300 511 312 510 306 b 509 293 509 298 509 295 b 508 287 509 292 508 288 b 435 130 498 227 478 172 b 258 70 389 83 320 60 b 155 122 219 77 183 94 b 102 205 131 145 112 176 b 88 254 96 221 92 237 b 84 275 87 261 86 268 b 84 277 84 276 84 277 b 84 279 84 278 84 278 b 83 289 83 282 83 285 b 81 348 81 309 80 328 b 83 382 81 360 82 371 b 84 394 83 386 84 390 b 84 394 84 394 84 394 b 86 403 85 397 85 400 b 92 437 87 414 90 425 b 160 574 105 489 125 536 b 229 621 180 595 201 610 b 332 633 262 634 298 639 b 481 514 402 622 452 575 b 505 439 490 495 500 464 b 508 421 506 433 507 427 b 508 418 508 419 509 409 b 509 413 508 417 509 415 b 511 383 510 403 511 393 b 512 344 512 370 512 357 z "},"e":{"ha":547,"x_min":0,"x_max":0,"o":"m 506 767 b 386 948 488 837 452 911 b 184 927 320 985 242 975 b 93 796 143 893 114 844 b 18 390 37 670 15 527 b 47 194 20 324 28 257 b 129 48 63 141 88 86 b 378 9 194 -14 297 -28 b 505 206 456 43 494 126 b 507 229 506 214 506 221 b 469 266 507 249 489 266 b 432 229 448 266 432 249 b 430 209 431 222 431 216 b 430 207 430 209 430 208 b 428 199 429 205 429 202 b 423 178 427 192 425 185 b 416 156 421 171 419 164 b 408 138 413 147 413 148 b 379 98 399 121 392 111 b 271 64 351 72 310 61 b 217 78 254 66 232 71 b 199 87 213 79 205 84 b 193 91 197 89 195 90 b 192 92 193 92 192 92 b 192 92 192 92 192 92 b 170 114 184 99 176 106 b 164 120 168 116 166 118 b 164 120 164 120 164 120 b 164 120 164 120 164 120 b 154 135 161 125 157 130 b 137 167 148 145 142 156 b 133 175 135 170 134 172 b 133 176 133 176 133 176 b 132 177 132 176 132 176 b 125 196 130 183 127 189 b 104 276 116 222 109 249 b 101 297 103 283 102 290 b 100 304 100 299 100 302 b 99 313 100 305 99 311 b 95 359 97 328 96 343 b 93 420 94 379 93 400 b 482 426 223 422 353 424 b 520 464 504 427 517 443 b 506 767 531 564 532 669 z m 451 542 b 448 501 450 528 449 514 b 96 495 331 499 214 497 b 97 502 97 497 97 499 b 99 525 98 509 98 517 b 100 535 100 528 100 532 b 102 546 101 537 101 544 b 103 554 102 547 103 552 b 105 566 103 558 104 562 b 109 590 106 574 107 582 b 118 634 112 605 115 620 b 143 721 125 664 133 692 b 150 740 145 727 147 734 b 154 750 151 743 153 747 b 155 754 154 751 155 753 b 156 754 156 754 156 754 b 173 790 161 766 167 778 b 192 823 179 801 185 812 b 201 837 195 827 198 832 b 203 840 202 838 203 839 b 208 845 203 839 207 844 b 230 868 215 853 222 861 b 236 873 233 871 245 880 b 249 882 240 876 244 879 b 261 888 252 884 257 886 b 267 891 263 889 265 890 b 326 892 287 897 306 897 b 341 887 331 891 336 889 b 342 886 341 887 341 887 b 352 881 345 885 349 883 b 360 876 355 879 357 878 b 362 875 361 875 361 875 b 363 874 362 874 362 874 b 379 859 368 869 374 864 b 385 852 381 856 383 854 b 389 848 386 851 388 848 b 401 829 393 842 397 835 b 420 790 409 815 416 801 b 451 542 450 710 454 626 z "},"f":{"ha":540,"x_min":0,"x_max":0,"o":"m 324 968 b 99 822 223 970 142 910 b 31 528 54 731 39 628 b 30 220 23 425 24 322 b 49 9 34 149 40 79 b 87 -29 52 -11 64 -29 b 124 9 105 -29 127 -11 b 100 324 111 113 102 219 b 109 323 103 324 106 323 b 382 324 200 324 291 324 b 382 399 430 324 430 399 b 109 398 291 399 200 399 b 100 397 106 398 103 398 b 102 456 100 417 101 436 b 106 533 103 482 104 507 b 110 567 107 544 108 556 b 112 585 110 573 111 579 b 113 592 112 587 112 589 b 114 598 113 593 113 598 b 143 733 120 644 129 689 b 154 763 147 743 150 753 b 156 769 155 765 156 767 b 157 769 157 769 157 769 b 157 770 157 769 157 770 b 164 785 159 775 162 780 b 192 832 172 801 181 817 b 198 838 193 833 196 836 b 206 847 200 841 203 844 b 214 855 209 850 211 853 b 221 861 216 857 227 865 b 240 873 227 865 233 869 b 250 878 243 875 247 876 b 253 879 251 878 252 879 b 255 880 241 874 252 879 b 352 890 286 892 319 898 b 391 871 366 886 379 880 b 396 867 390 872 396 867 b 404 859 399 864 402 862 b 412 851 407 856 410 854 b 417 845 413 850 417 845 b 467 636 460 787 470 709 b 542 636 465 587 540 588 b 324 968 547 775 494 966 z "},"g":{"ha":636,"x_min":0,"x_max":0,"o":"m 530 942 b 530 868 530 917 530 892 b 421 963 503 908 466 942 b 164 948 339 1001 241 996 b 11 627 59 880 14 747 b 184 295 9 496 55 352 b 433 309 264 260 357 266 b 521 387 468 329 497 355 b 515 273 519 349 518 311 b 511 221 514 255 512 238 b 508 198 510 213 509 206 b 508 194 508 197 508 196 b 506 184 507 191 507 187 b 491 119 503 162 498 140 b 489 113 489 114 482 101 b 483 101 487 109 485 105 b 478 92 482 98 480 95 b 475 88 477 90 476 89 b 461 73 470 83 466 78 b 459 72 461 73 460 72 b 439 59 454 71 444 61 b 148 116 348 9 219 40 b 95 63 115 152 62 99 b 411 -31 174 -22 298 -56 b 549 65 467 -18 522 13 b 586 222 574 113 581 169 b 599 516 596 320 597 418 b 605 942 602 658 604 800 b 530 942 606 990 531 990 z m 518 623 b 517 597 518 614 517 606 b 515 579 516 591 516 585 b 514 572 515 577 515 574 b 513 566 514 571 514 567 b 441 408 504 505 484 451 b 263 349 394 362 326 339 b 160 400 224 355 189 373 b 108 483 137 423 118 455 b 94 533 102 499 97 516 b 90 554 92 540 91 547 b 90 556 90 555 90 555 b 89 558 90 556 89 557 b 88 567 89 561 89 564 b 86 627 86 587 86 607 b 88 661 87 638 87 650 b 90 673 89 665 89 669 b 90 673 90 673 90 673 b 91 681 90 676 91 678 b 98 715 93 693 95 704 b 166 852 111 768 130 815 b 235 900 186 873 206 888 b 338 912 267 913 303 917 b 487 793 407 900 458 853 b 510 717 496 774 505 743 b 513 699 511 711 512 705 b 514 697 514 698 515 687 b 514 691 514 695 514 693 b 517 662 515 681 516 672 b 518 623 517 649 518 636 z m 475 87 b 475 88 471 82 473 86 b 475 87 475 88 475 88 z "},"h":{"ha":547,"x_min":0,"x_max":0,"o":"m 531 292 b 440 474 518 358 492 430 b 237 494 383 523 303 529 b 114 350 179 464 141 408 b 118 730 113 477 114 603 b 125 931 119 797 122 864 b 87 969 126 952 107 969 b 50 931 66 969 51 952 b 41 208 39 690 36 449 b 47 23 43 146 45 84 b 47 23 47 23 47 23 b 47 17 47 21 47 19 b 48 9 47 14 48 12 b 85 -29 48 -11 64 -29 b 123 9 105 -29 124 -11 b 122 23 123 14 122 18 b 164 273 125 108 136 192 b 206 362 175 304 187 332 b 218 380 210 368 214 374 b 220 382 219 381 219 381 b 221 384 220 382 220 383 b 226 389 223 385 224 387 b 240 404 230 394 235 399 b 247 411 242 406 245 408 b 254 417 248 411 254 416 b 281 433 263 423 272 428 b 286 435 283 433 285 434 b 295 437 289 436 292 437 b 312 441 301 439 306 440 b 321 442 311 441 321 442 b 336 442 326 442 331 442 b 361 436 345 441 353 439 b 362 436 363 436 371 432 b 370 432 365 435 367 434 b 385 423 375 429 380 426 b 394 414 381 425 392 416 b 407 401 399 410 403 406 b 408 400 407 400 407 400 b 408 399 408 399 408 399 b 414 391 410 396 412 393 b 424 373 418 385 421 379 b 434 355 428 367 431 361 b 435 352 434 353 435 352 b 436 350 435 351 435 351 b 440 339 437 346 439 343 b 455 289 446 323 451 306 b 463 9 476 199 473 102 b 501 -29 461 -11 482 -29 b 538 9 523 -29 536 -11 b 531 292 549 103 550 199 z "},"i":{"ha":154,"x_min":0,"x_max":0,"o":"m 40 777 b 36 9 39 521 37 265 b 111 9 36 -39 111 -39 b 115 777 113 265 114 521 b 40 777 116 826 40 826 z m 76 872 b 114 910 97 873 114 889 b 114 940 114 920 114 930 b 76 978 114 960 96 979 b 39 940 56 977 39 961 b 39 910 39 930 39 920 b 76 872 38 890 56 872 z "},"j":{"ha":404,"x_min":0,"x_max":0,"o":"m 294 792 b 295 487 296 691 296 589 b 287 219 295 398 294 308 b 283 177 286 205 285 191 b 283 174 283 176 283 175 b 281 166 282 171 282 169 b 278 148 280 160 279 154 b 271 120 276 139 274 129 b 267 111 270 117 268 114 b 265 105 266 109 266 107 b 260 97 263 102 261 99 b 257 92 259 95 258 94 b 255 90 256 91 255 90 b 245 81 252 86 246 82 b 244 79 245 80 244 80 b 220 66 236 75 228 69 b 172 54 209 61 185 55 b 76 102 131 52 93 63 b 67 150 69 117 67 131 b 68 172 67 157 67 165 b 68 176 68 174 68 175 b 69 179 68 177 68 178 b 42 225 72 199 63 219 b -4 199 24 230 0 219 b -2 96 -10 165 -10 130 b 98 -11 12 45 48 7 b 309 38 166 -36 261 -17 b 356 158 338 72 349 115 b 369 411 368 241 368 327 b 369 792 371 538 371 665 b 294 792 369 841 294 841 z m 256 90 b 259 95 257 92 259 95 b 256 90 259 94 258 92 z m 333 872 b 371 910 353 873 370 889 b 371 940 371 920 371 930 b 333 978 371 960 353 979 b 296 940 313 977 296 961 b 295 910 296 930 296 920 b 333 872 295 890 313 872 z "},"k":{"ha":514,"x_min":0,"x_max":0,"o":"m 488 292 b 406 473 476 356 454 426 b 249 508 364 514 303 526 b 480 907 326 641 403 774 b 415 945 504 949 439 987 b 114 425 315 772 214 599 b 118 730 114 527 115 629 b 125 931 119 797 122 864 b 87 969 126 952 107 969 b 50 931 66 969 51 952 b 41 208 39 690 36 449 b 46 57 43 157 44 107 b 44 23 45 46 45 34 b 48 5 44 16 46 10 b 85 -29 51 -14 66 -29 b 123 9 105 -29 124 -11 b 121 57 122 25 121 41 b 157 274 125 130 135 203 b 194 361 167 307 177 332 b 206 380 198 367 201 374 b 213 390 207 382 213 390 b 241 420 221 401 231 410 b 242 421 241 420 242 421 b 243 421 242 421 243 421 b 250 426 245 423 248 425 b 265 435 255 430 260 432 b 266 435 266 435 266 435 b 272 437 268 436 270 437 b 289 441 278 439 283 440 b 297 442 287 441 297 442 b 312 442 302 442 308 442 b 325 438 317 441 321 439 b 328 437 326 438 327 437 b 337 432 331 435 334 434 b 344 428 340 431 342 429 b 345 427 345 427 345 427 b 347 425 346 427 346 426 b 359 414 351 421 355 418 b 365 407 361 411 363 409 b 366 406 365 407 365 406 b 366 405 366 406 366 405 b 386 371 373 394 380 383 b 389 364 387 369 388 366 b 392 357 390 363 392 358 b 400 336 395 350 397 343 b 412 289 405 321 409 305 b 419 9 431 199 429 102 b 457 -29 417 -11 438 -29 b 494 9 479 -29 492 -11 b 488 292 504 103 505 198 z m 266 435 b 266 435 268 436 271 437 z m 329 437 b 329 437 330 436 331 436 z "},"l":{"ha":310,"x_min":0,"x_max":0,"o":"m 288 38 b 122 38 232 38 177 38 b 118 730 113 269 112 499 b 125 931 119 797 122 864 b 87 969 126 952 107 969 b 50 931 66 969 51 952 b 41 208 39 690 36 449 b 48 9 43 141 45 75 b 52 -7 48 3 49 -2 b 87 -37 55 -23 67 -37 b 288 -38 154 -37 221 -37 b 288 38 336 -38 336 37 z "},"m":{"ha":647,"x_min":0,"x_max":0,"o":"m 608 555 b 588 873 608 660 611 770 b 551 955 582 902 572 933 b 465 970 528 978 494 984 b 410 904 439 957 422 930 b 367 772 391 862 378 817 b 335 632 355 726 345 679 b 335 666 335 643 335 655 b 329 813 334 715 333 764 b 314 913 327 846 324 881 b 262 975 305 939 290 966 b 195 955 237 983 212 974 b 156 878 175 933 165 905 b 126 757 143 838 134 797 b 117 715 123 743 120 729 b 117 727 117 719 117 723 b 118 931 117 795 117 863 b 42 931 118 980 43 980 b 41 214 42 692 41 453 b 40 9 41 145 40 77 b 115 9 40 -39 115 -39 b 116 259 116 92 116 176 b 187 682 139 400 160 542 b 216 816 196 727 205 772 b 230 864 221 832 225 848 b 237 882 232 870 235 876 b 238 883 237 882 237 882 b 242 891 239 885 240 888 b 248 863 244 882 247 872 b 250 852 249 859 250 856 b 251 848 250 851 251 850 b 254 823 251 840 253 832 b 259 689 258 779 259 734 b 257 208 262 529 258 369 b 270 180 257 196 262 186 b 285 172 274 176 279 174 b 330 196 302 167 325 177 b 332 205 331 198 332 201 b 425 695 362 368 389 532 b 464 838 436 743 448 791 b 473 862 467 846 470 854 b 475 867 474 864 474 866 b 481 879 477 871 479 875 b 491 895 484 884 487 890 b 491 895 491 895 491 895 b 496 901 493 897 495 899 b 497 902 497 901 497 902 b 497 902 497 902 497 902 b 497 902 497 902 497 902 b 498 902 497 902 497 902 b 498 902 498 902 498 902 b 498 902 498 902 498 902 b 498 902 498 902 498 902 b 498 902 498 902 498 902 b 498 902 498 902 498 902 b 499 902 498 902 498 902 b 499 902 499 902 499 902 b 499 902 499 902 499 902 b 500 900 499 901 499 901 b 501 898 500 899 501 898 b 501 898 501 898 501 898 b 504 892 502 896 503 894 b 505 889 504 891 505 891 b 506 888 505 891 505 891 b 506 888 506 888 506 888 b 508 884 507 886 508 884 b 507 884 508 884 508 884 b 508 884 508 884 508 884 b 513 864 510 877 512 871 b 518 842 515 857 517 849 b 521 829 519 838 520 834 b 522 817 521 827 522 817 b 528 756 525 797 527 777 b 533 588 532 700 533 644 b 529 9 535 395 530 202 b 604 9 529 -39 604 -39 b 608 555 605 191 609 373 z m 235 905 b 235 905 235 905 235 905 b 235 905 235 905 235 905 b 235 905 235 905 235 905 z m 494 905 b 494 904 494 905 494 904 b 494 904 494 904 494 904 b 494 905 494 904 494 904 z m 495 903 b 494 904 495 903 494 903 b 496 903 494 904 495 903 b 496 903 496 903 496 903 b 495 903 495 903 495 903 z m 497 902 b 496 902 496 902 496 902 b 497 902 496 902 496 902 b 497 902 497 902 497 902 b 497 902 497 902 497 902 z m 499 902 b 498 902 499 902 499 902 b 499 902 500 902 500 902 z "},"n":{"ha":524,"x_min":0,"x_max":0,"o":"m 488 635 b 463 858 486 709 483 787 b 367 975 449 907 421 962 b 246 921 317 987 273 963 b 208 841 229 897 218 869 b 170 712 193 799 181 755 b 116 488 150 637 133 563 b 117 727 117 567 117 647 b 118 931 117 795 117 863 b 42 931 118 980 43 980 b 41 214 42 692 41 453 b 40 9 41 145 40 77 b 115 9 40 -39 115 -39 b 116 110 115 43 116 77 b 228 634 150 285 185 461 b 268 782 240 684 252 733 b 285 833 273 799 279 816 b 289 843 287 836 288 840 b 290 844 290 844 290 844 b 290 846 290 845 290 845 b 298 863 293 851 296 857 b 314 888 303 872 308 880 b 317 892 315 890 316 891 b 323 898 319 894 321 896 b 326 900 324 898 325 899 b 328 901 326 900 327 900 b 334 902 330 901 332 902 b 335 903 334 903 335 903 b 339 903 336 903 338 903 b 345 903 341 903 343 903 b 345 903 345 903 345 903 b 351 901 347 902 349 902 b 351 901 351 901 351 901 b 350 902 351 902 350 902 b 351 901 350 902 351 902 b 355 899 354 901 356 899 b 360 896 357 898 359 897 b 365 892 362 895 364 893 b 369 887 367 890 368 889 b 370 886 369 887 369 887 b 378 872 373 882 375 877 b 381 866 379 870 380 868 b 382 864 381 865 382 865 b 382 863 382 864 382 864 b 402 780 391 836 398 809 b 403 774 403 778 403 776 b 405 762 404 770 404 766 b 408 735 406 753 407 744 b 411 677 409 716 410 697 b 405 89 420 481 406 285 b 405 9 405 62 405 35 b 480 9 405 -39 480 -40 b 488 635 478 218 493 427 z m 403 774 b 403 774 403 776 403 778 z "},"o":{"ha":549,"x_min":0,"x_max":0,"o":"m 511 663 b 436 871 498 734 479 811 b 256 955 394 932 331 967 b 96 823 183 944 129 886 b 27 581 57 748 38 664 b 23 338 16 500 13 418 b 97 99 33 255 53 170 b 279 -13 136 34 200 -17 b 526 374 461 -2 515 228 b 529 439 528 396 529 417 b 511 663 529 513 523 589 z m 418 210 b 398 162 411 191 407 180 b 371 118 390 147 381 132 b 370 116 371 118 371 117 b 367 113 369 115 367 113 b 360 105 365 110 362 107 b 342 88 354 99 348 93 b 340 86 341 87 340 86 b 338 84 339 86 339 85 b 329 79 335 82 332 81 b 319 73 326 77 323 75 b 315 71 318 72 316 72 b 313 70 314 71 314 70 b 313 70 313 70 313 70 b 292 64 306 68 299 65 b 286 63 290 64 286 63 b 274 62 282 62 278 62 b 263 62 270 62 267 62 b 255 63 262 62 257 63 b 247 65 253 63 248 64 b 236 68 243 66 240 67 b 229 71 235 68 230 70 b 223 74 227 72 225 73 b 213 79 220 76 217 77 b 205 85 212 81 207 84 b 200 90 204 86 201 89 b 192 98 197 92 194 95 b 177 115 186 103 181 109 b 173 120 176 116 174 119 b 166 130 170 123 168 127 b 153 153 161 138 157 145 b 133 196 143 170 139 180 b 103 305 120 231 110 268 b 92 408 97 339 94 370 b 95 516 91 444 92 480 b 141 739 100 590 114 666 b 160 782 147 756 150 765 b 185 824 167 797 175 811 b 188 829 186 826 187 827 b 188 829 188 829 188 829 b 195 837 190 832 193 834 b 212 854 200 843 206 849 b 218 859 214 856 216 857 b 223 863 218 859 222 862 b 242 874 229 867 236 870 b 244 875 243 874 244 875 b 246 875 244 875 245 875 b 254 878 249 876 251 878 b 265 881 258 879 261 880 b 272 882 267 882 273 882 b 290 883 278 883 284 883 b 298 882 293 883 295 883 b 305 881 295 883 303 882 b 322 876 311 880 317 878 b 325 874 323 875 324 875 b 335 869 328 873 332 871 b 343 863 338 867 340 865 b 344 863 343 863 344 863 b 345 862 344 863 344 862 b 360 848 350 857 355 853 b 367 840 362 845 365 842 b 369 837 367 839 368 838 b 369 837 369 837 369 837 b 382 817 373 831 378 824 b 393 798 386 811 389 805 b 397 789 394 795 396 792 b 402 779 398 786 402 777 b 430 683 412 753 423 715 b 440 631 434 666 437 648 b 442 619 441 627 441 623 b 443 610 442 618 443 611 b 446 585 444 602 445 593 b 453 483 450 551 452 517 b 454 439 454 468 454 453 b 418 210 454 360 444 286 z "},"p":{"ha":576,"x_min":0,"x_max":0,"o":"m 549 787 b 411 964 526 860 481 930 b 176 946 336 1002 244 995 b 124 897 156 932 139 916 b 125 931 124 909 125 920 b 88 969 126 952 108 969 b 50 931 67 969 51 952 b 42 691 47 851 44 771 b 38 627 40 669 38 648 b 40 562 37 606 38 584 b 42 208 39 444 39 326 b 48 9 44 141 46 75 b 86 -29 49 -11 65 -29 b 123 9 105 -29 124 -11 b 115 359 119 125 116 242 b 195 295 136 333 163 311 b 429 312 270 259 360 266 b 554 497 494 355 534 423 b 549 787 578 589 577 696 z m 491 563 b 489 550 491 564 489 552 b 485 531 487 544 486 537 b 472 487 481 516 477 502 b 430 412 464 463 448 433 b 269 349 389 365 327 337 b 132 484 198 363 152 421 b 120 531 127 499 123 515 b 116 551 118 538 117 544 b 115 557 116 552 116 557 b 115 560 115 558 115 559 b 117 682 116 601 116 642 b 123 714 119 693 121 704 b 144 786 128 739 135 763 b 146 791 145 787 146 790 b 150 799 148 794 149 797 b 159 816 153 805 156 811 b 170 835 163 823 166 829 b 181 849 175 842 177 844 b 246 900 200 873 218 888 b 334 912 273 913 305 917 b 418 867 367 906 395 890 b 465 798 438 848 456 820 b 488 719 476 773 483 746 b 491 702 489 714 490 708 b 491 701 491 702 491 702 b 491 700 491 701 491 700 b 492 692 491 697 491 695 b 494 662 493 682 493 672 b 491 563 496 629 495 596 z "},"q":{"ha":585,"x_min":0,"x_max":0,"o":"m 540 586 b 541 661 542 611 542 636 b 543 730 542 684 542 707 b 550 931 544 797 547 864 b 512 969 551 952 532 969 b 475 931 491 969 476 952 b 473 884 474 916 473 900 b 381 964 449 917 419 946 b 143 945 305 1002 212 995 b 6 627 45 874 8 743 b 164 295 3 502 41 353 b 399 312 240 260 329 266 b 464 372 424 329 446 349 b 466 208 464 317 465 262 b 473 9 468 141 470 75 b 510 -29 473 -11 489 -29 b 548 9 530 -29 548 -11 b 540 586 540 201 537 394 z m 465 597 b 464 582 465 592 464 587 b 463 573 464 579 463 576 b 462 564 463 572 462 564 b 400 412 454 508 437 453 b 238 349 359 365 297 337 b 144 404 201 356 169 376 b 99 486 123 428 108 457 b 87 533 94 501 90 517 b 85 544 87 536 86 540 b 84 551 85 545 85 550 b 82 569 84 557 83 563 b 81 627 81 588 80 607 b 83 660 81 638 82 649 b 84 672 83 664 83 668 b 84 676 84 673 84 675 b 85 678 84 674 84 676 b 85 680 85 679 85 679 b 85 679 85 679 85 679 b 85 680 85 679 85 679 b 91 714 87 691 89 703 b 112 785 96 739 103 762 b 113 788 113 786 113 787 b 114 790 114 788 114 789 b 119 801 116 794 118 797 b 128 817 122 806 125 812 b 138 834 131 823 135 828 b 145 843 140 837 143 840 b 146 846 146 845 146 845 b 148 848 147 846 147 847 b 302 912 185 893 241 922 b 438 793 368 901 414 851 b 459 718 446 774 455 742 b 462 702 460 712 461 707 b 463 691 461 702 463 692 b 465 662 464 681 464 672 b 466 642 465 656 466 649 b 465 597 465 627 465 612 z "},"r":{"ha":503,"x_min":0,"x_max":0,"o":"m 400 945 b 204 924 338 983 257 970 b 120 796 165 890 139 843 b 125 931 121 841 123 886 b 87 969 126 952 107 969 b 50 931 66 969 51 952 b 41 208 39 690 36 449 b 48 9 43 141 45 75 b 85 -29 48 -11 64 -29 b 123 9 105 -29 124 -11 b 114 453 117 157 114 305 b 119 470 117 458 118 464 b 122 496 120 479 121 488 b 123 508 122 500 123 504 b 124 513 122 496 124 509 b 129 545 126 524 127 534 b 165 700 138 597 149 650 b 179 742 169 715 174 729 b 186 761 181 749 184 755 b 189 768 186 762 188 766 b 192 775 190 769 192 774 b 232 844 203 799 216 823 b 234 847 232 845 233 846 b 239 853 236 849 238 851 b 252 866 243 858 248 862 b 258 872 254 868 256 870 b 259 873 259 872 259 873 b 260 873 259 873 260 873 b 274 882 264 876 269 879 b 281 886 276 883 278 884 b 281 886 281 886 281 886 b 281 886 281 886 281 886 b 301 891 288 888 294 890 b 347 887 318 894 331 892 b 352 885 349 887 350 886 b 354 884 353 885 353 885 b 365 878 357 882 361 880 b 367 876 365 878 366 877 b 370 874 368 875 370 874 b 402 832 386 860 392 851 b 427 703 421 795 427 747 b 502 703 427 655 502 655 b 400 945 502 791 479 895 z m 231 843 b 231 843 231 843 231 843 z m 351 886 b 351 886 349 887 349 887 z m 353 885 b 353 885 353 885 353 885 b 354 885 353 885 354 885 b 353 885 354 885 353 885 z "},"s":{"ha":496,"x_min":0,"x_max":0,"o":"m 196 578 b 138 638 176 597 156 617 b 132 645 136 640 134 643 b 129 649 131 646 130 648 b 119 664 126 654 122 659 b 100 696 112 674 106 685 b 98 700 100 698 99 699 b 96 706 98 702 97 704 b 91 724 94 712 92 718 b 87 741 89 730 88 735 b 87 743 87 742 87 742 b 86 754 87 747 86 750 b 87 772 86 760 86 766 b 87 777 87 773 87 776 b 88 780 87 778 87 779 b 89 788 88 783 89 785 b 95 809 91 795 93 802 b 151 879 104 837 125 864 b 238 903 176 893 209 902 b 332 887 272 904 302 900 b 350 877 335 886 345 881 b 367 866 359 872 361 871 b 398 824 380 854 391 840 b 408 779 405 807 407 794 b 445 741 409 759 424 741 b 483 779 465 741 484 759 b 436 902 480 825 466 867 b 345 963 412 931 379 950 b 125 950 275 988 191 983 b 12 779 59 917 20 851 b 49 634 7 728 23 677 b 297 389 111 534 215 470 b 327 358 308 379 318 369 b 341 342 332 353 336 348 b 347 334 343 340 345 337 b 347 334 347 334 347 334 b 351 330 348 333 350 331 b 373 295 359 319 366 307 b 382 278 376 290 380 284 b 386 269 384 275 385 272 b 388 264 387 268 388 266 b 400 225 393 252 397 238 b 401 216 400 222 401 219 b 402 212 401 214 401 213 b 403 191 402 205 403 198 b 401 162 403 181 402 172 b 401 158 401 160 401 159 b 398 147 400 154 399 151 b 391 122 396 139 394 130 b 381 104 389 118 386 111 b 366 84 377 97 372 91 b 358 78 364 83 360 79 b 352 73 357 77 353 74 b 331 62 345 69 338 65 b 328 60 330 62 329 61 b 324 59 326 60 325 59 b 313 55 320 58 316 56 b 287 49 304 53 296 51 b 242 47 276 47 259 46 b 156 71 213 48 182 56 b 123 99 142 79 134 85 b 100 149 111 114 104 131 b 97 189 97 161 97 173 b 22 189 99 237 24 237 b 134 -2 19 108 60 33 b 351 -11 200 -33 282 -38 b 443 61 388 4 420 27 b 477 164 463 91 473 128 b 443 325 482 220 469 276 b 196 578 387 430 282 500 z "},"t":{"ha":543,"x_min":0,"x_max":0,"o":"m 513 837 b 305 837 444 837 374 837 b 306 956 305 877 305 916 b 230 956 306 1004 231 1004 b 230 837 230 916 230 877 b 36 837 166 837 101 837 b 36 762 -12 837 -12 762 b 230 762 101 762 165 762 b 229 220 230 581 229 401 b 228 9 229 149 228 79 b 303 9 228 -39 303 -39 b 305 745 304 254 304 500 b 305 762 305 751 305 756 b 513 762 374 762 444 762 b 513 837 561 762 561 837 z "},"u":{"ha":507,"x_min":0,"x_max":0,"o":"m 434 953 b 379 920 412 962 380 951 b 361 593 377 811 371 702 b 350 494 358 560 355 527 b 344 449 348 476 347 470 b 336 401 342 433 339 417 b 294 221 326 340 313 280 b 280 184 290 209 285 196 b 278 179 279 182 279 180 b 275 172 278 178 276 174 b 268 156 273 167 270 161 b 250 125 262 146 257 135 b 242 113 248 121 245 117 b 242 113 242 113 242 113 b 237 107 240 111 238 109 b 227 96 233 103 230 100 b 219 90 225 95 221 91 b 218 89 219 89 218 89 b 212 85 216 87 214 86 b 207 82 210 84 209 83 b 205 81 207 82 206 82 b 202 80 204 81 203 80 b 197 78 200 79 199 79 b 183 77 191 77 188 76 b 180 78 182 77 181 78 b 172 83 177 80 174 82 b 168 87 171 84 169 85 b 164 92 167 88 165 90 b 149 117 159 100 153 108 b 147 122 149 118 148 120 b 145 126 146 123 146 125 b 139 144 143 132 141 138 b 129 182 135 157 132 169 b 121 225 126 197 123 211 b 115 267 118 243 118 247 b 108 375 112 303 109 339 b 122 858 101 536 110 697 b 126 913 123 876 125 895 b 89 951 128 933 108 951 b 51 913 67 951 53 933 b 31 413 38 747 27 580 b 51 188 33 338 38 262 b 110 39 61 136 75 80 b 253 22 147 -4 207 -8 b 341 136 294 49 321 92 b 384 261 359 176 373 218 b 383 217 384 247 384 232 b 379 19 382 151 381 85 b 454 19 378 -29 453 -29 b 469 718 459 252 464 485 b 473 917 470 784 471 850 b 434 953 473 942 453 954 z m 172 83 b 172 83 172 83 172 83 b 172 83 174 81 175 79 z "},"v":{"ha":475,"x_min":0,"x_max":0,"o":"m 449 951 b 403 925 431 956 408 945 b 247 213 351 688 299 451 b 238 174 244 200 241 187 b 116 722 197 356 157 539 b 71 925 101 789 86 857 b 24 951 66 945 43 956 b -2 905 4 946 -6 925 b 157 193 51 668 104 431 b 202 -10 172 126 187 58 b 274 -10 210 -46 266 -46 b 431 702 326 227 379 464 b 476 905 446 769 461 837 b 449 951 480 925 470 946 z "},"w":{"ha":626,"x_min":0,"x_max":0,"o":"m 567 969 b 529 931 545 969 530 952 b 503 475 520 779 513 627 b 490 308 499 419 495 363 b 482 237 488 284 485 261 b 481 222 482 232 481 227 b 480 216 480 220 480 218 b 480 214 481 226 480 216 b 475 184 478 204 477 194 b 455 97 470 155 464 125 b 452 89 454 94 453 92 b 452 88 452 89 452 89 b 445 75 449 84 447 79 b 442 71 444 74 443 72 b 438 67 441 70 439 68 b 439 67 438 67 439 67 b 438 66 439 67 439 66 b 438 66 438 66 438 66 b 437 66 438 66 437 66 b 437 66 437 66 437 66 b 437 66 437 66 437 66 b 437 66 437 66 437 66 b 437 66 437 66 437 66 b 437 67 437 66 437 67 b 435 69 436 67 436 68 b 432 72 434 70 432 72 b 427 81 430 75 429 78 b 423 89 426 84 425 86 b 422 93 423 90 422 91 b 414 118 419 101 416 110 b 383 278 399 170 391 225 b 348 532 370 363 359 447 b 332 553 346 541 340 548 b 321 558 329 555 326 557 b 312 559 318 559 315 559 b 311 559 312 559 311 559 b 311 559 311 559 311 559 b 301 558 307 559 304 559 b 290 553 297 557 293 555 b 275 532 282 548 276 541 b 210 144 256 403 242 271 b 194 91 206 126 201 108 b 193 88 194 90 194 89 b 190 81 192 86 191 83 b 184 70 189 79 186 74 b 183 68 184 70 183 69 b 181 67 182 68 182 67 b 176 72 180 68 177 70 b 173 76 175 73 174 75 b 166 90 170 80 169 85 b 166 90 166 90 166 90 b 163 98 165 93 164 95 b 157 118 161 105 159 111 b 148 161 153 132 150 146 b 143 186 146 169 145 178 b 141 199 143 190 142 195 b 141 204 141 200 141 202 b 141 200 141 203 141 202 b 140 209 141 203 141 206 b 133 275 137 231 135 253 b 122 432 128 327 125 380 b 97 931 113 598 106 765 b 60 969 96 952 81 969 b 22 931 40 969 21 952 b 46 458 31 774 37 616 b 73 151 51 356 56 252 b 142 2 82 101 94 30 b 220 2 166 -12 196 -14 b 271 84 248 20 261 54 b 308 248 289 137 298 193 b 310 262 308 253 309 258 b 337 114 317 213 325 163 b 459 -6 351 59 384 -29 b 540 123 512 10 529 76 b 573 409 560 217 566 314 b 604 931 586 583 594 757 b 567 969 605 952 586 969 z m 176 62 b 178 64 176 62 177 63 b 178 64 178 64 178 64 b 176 62 177 63 176 62 z m 179 65 b 178 64 179 65 179 64 b 179 65 179 65 179 65 b 179 65 179 65 179 65 z m 181 66 b 181 66 181 66 181 66 b 180 66 179 66 179 66 b 178 66 179 66 178 66 b 180 67 178 66 179 67 b 181 66 180 66 181 66 b 181 66 181 66 181 66 z m 182 66 b 182 66 182 66 182 66 b 182 66 182 66 182 66 b 182 66 182 66 182 66 b 182 66 182 66 182 66 b 182 66 182 66 182 66 b 182 66 182 66 182 66 b 182 66 182 66 182 66 b 182 67 182 67 182 67 b 182 66 182 67 182 67 b 182 66 182 66 182 66 z m 183 65 b 183 66 183 66 183 66 b 184 66 183 66 183 66 b 183 65 185 65 186 65 z m 436 66 b 437 66 437 66 437 66 b 436 66 436 66 436 66 b 436 66 436 66 436 66 z m 435 66 b 436 65 435 65 436 65 b 435 66 435 65 434 65 z m 437 66 b 435 66 436 66 436 66 b 436 66 436 66 436 66 b 437 66 436 66 436 66 b 437 66 437 66 437 66 z m 439 65 b 440 65 439 65 440 65 b 441 64 441 64 442 64 b 439 65 441 64 440 64 z m 440 66 b 439 66 440 66 440 66 b 440 67 440 66 440 66 b 442 66 441 67 441 66 b 440 66 442 66 441 66 z m 442 70 b 442 71 438 64 440 69 b 442 70 442 71 442 70 z "},"x":{"ha":438,"x_min":0,"x_max":0,"o":"m 436 905 b 410 951 444 924 428 946 b 364 925 389 957 371 944 b 216 544 314 798 265 671 b 150 727 194 605 172 666 b 77 929 126 794 101 861 b 31 955 70 948 51 961 b 5 909 12 950 -2 928 b 174 438 61 752 118 595 b 87 214 145 363 116 289 b 9 14 61 147 35 80 b 35 -33 2 -5 17 -28 b 81 -6 56 -38 74 -25 b 213 331 125 106 169 219 b 263 192 230 285 246 239 b 336 -10 287 125 312 57 b 382 -36 343 -29 362 -42 b 408 10 401 -31 415 -9 b 254 437 357 152 306 295 b 358 705 289 526 323 616 b 436 905 384 771 410 838 z "},"y":{"ha":528,"x_min":0,"x_max":0,"o":"m 488 555 b 494 940 489 684 490 812 b 444 974 494 970 466 982 b 404 938 425 975 405 963 b 395 796 403 891 400 843 b 388 737 393 776 391 757 b 387 726 388 735 387 726 b 385 712 386 721 386 717 b 380 679 383 701 382 690 b 352 548 373 635 364 591 b 332 484 346 526 340 505 b 327 472 330 480 329 476 b 324 465 326 469 325 467 b 324 464 324 464 324 464 b 311 437 320 455 316 446 b 298 413 307 429 303 421 b 291 403 296 410 294 406 b 286 395 289 400 285 394 b 272 380 282 390 277 385 b 264 373 270 378 267 375 b 263 372 264 373 264 372 b 260 369 262 371 260 370 b 251 364 257 367 254 365 b 246 362 250 363 248 362 b 239 359 244 361 240 359 b 228 356 236 358 232 357 b 190 362 215 355 202 358 b 182 366 193 361 184 365 b 170 374 178 369 174 371 b 166 377 169 375 167 376 b 156 387 163 380 159 383 b 150 395 155 388 149 395 b 141 407 147 399 144 403 b 127 435 136 416 131 425 b 125 437 126 435 126 436 b 123 443 125 439 124 441 b 117 461 121 449 119 455 b 91 652 96 525 92 585 b 115 905 91 737 100 822 b 88 951 118 925 109 946 b 42 925 70 956 46 945 b 35 474 17 779 0 621 b 101 336 47 424 67 374 b 257 286 140 293 201 270 b 406 470 339 309 381 397 b 413 490 409 477 411 483 b 412 336 413 439 413 387 b 409 214 412 295 412 255 b 407 189 408 206 407 197 b 405 178 406 185 406 182 b 405 178 405 178 405 178 b 405 173 405 177 405 174 b 396 135 402 160 400 147 b 391 118 395 129 392 124 b 387 110 389 115 388 112 b 379 97 384 105 382 101 b 378 96 379 97 379 97 b 379 97 379 97 379 97 b 378 96 379 97 379 97 b 377 95 377 94 376 93 b 374 91 376 94 375 92 b 364 81 371 88 367 85 b 363 81 364 81 363 81 b 363 81 363 81 363 81 b 352 73 359 79 356 76 b 299 56 336 64 320 59 b 197 94 263 50 217 58 b 184 146 187 111 185 128 b 185 171 184 155 184 163 b 185 172 185 172 185 172 b 185 173 185 173 185 173 b 185 176 185 174 185 175 b 186 177 186 178 186 178 b 186 179 186 177 186 178 b 160 225 190 199 181 219 b 114 199 142 230 117 219 b 117 90 107 163 107 125 b 228 -15 134 38 174 -1 b 447 64 306 -35 402 -7 b 486 256 482 119 484 192 b 488 555 490 356 487 456 z "},"z":{"ha":438,"x_min":0,"x_max":0,"o":"m 406 48 b 96 45 303 47 200 46 b 355 703 183 264 269 484 b 435 905 382 770 409 838 b 429 937 439 916 436 928 b 402 952 424 945 415 952 b 397 953 400 953 399 953 b 31 950 275 952 153 951 b 31 875 -18 949 -18 874 b 344 877 135 875 239 876 b 83 216 257 657 170 436 b 11 33 59 155 35 94 b 2 7 5 26 2 16 b 30 -33 0 -10 14 -28 b 55 -30 39 -35 48 -34 b 406 -28 172 -29 289 -28 b 406 48 455 -27 455 48 z "},"{":{"ha":339,"x_min":0,"x_max":0,"o":"m 213 1014 b 112 907 170 990 133 952 b 89 739 87 853 83 797 b 96 587 95 689 106 633 b 76 535 92 567 87 552 b 37 503 67 521 55 511 b 37 438 12 493 12 449 b 84 328 80 420 89 372 b 47 144 78 266 50 208 b 115 1 45 91 63 26 b 243 55 163 -22 231 0 b 217 102 247 75 237 96 b 171 75 198 107 175 95 b 166 68 169 70 171 71 b 161 67 169 70 164 68 b 154 66 161 67 153 67 b 142 73 150 67 147 69 b 130 90 137 78 132 84 b 140 233 110 135 128 189 b 156 394 154 285 167 340 b 120 469 151 421 138 448 b 170 689 174 523 179 616 b 171 855 164 744 153 802 b 251 949 185 895 214 929 b 213 1014 293 973 255 1038 z "},"|":{"ha":164,"x_min":0,"x_max":0,"o":"m 49 1021 b 41 86 46 709 44 398 b 39 -180 40 -3 40 -91 b 114 -180 38 -228 114 -228 b 122 755 116 132 119 443 b 124 1021 122 843 123 932 b 49 1021 124 1069 49 1069 z "},"}":{"ha":357,"x_min":0,"x_max":0,"o":"m 322 526 b 274 617 293 545 278 583 b 282 776 267 670 279 723 b 257 924 286 827 280 878 b 154 1009 236 965 199 998 b 108 982 134 1013 113 1003 b 134 936 102 963 114 941 b 199 870 166 929 188 902 b 202 720 215 823 207 771 b 249 491 193 641 195 551 b 196 389 225 461 207 426 b 195 226 180 335 183 281 b 194 94 204 184 219 131 b 180 81 189 88 186 84 b 178 80 179 80 178 80 b 173 78 176 79 175 79 b 169 77 172 78 170 78 b 166 77 168 77 167 77 b 159 77 164 77 161 77 b 157 78 158 77 158 77 b 150 80 157 78 150 80 b 146 82 149 80 148 81 b 145 83 146 82 146 82 b 144 85 143 85 143 87 b 97 111 137 104 118 116 b 71 65 79 106 64 84 b 168 2 86 24 124 0 b 269 77 215 4 251 34 b 263 347 307 167 244 256 b 330 467 272 393 295 435 b 322 526 348 485 342 514 z "},"":{"ha":318,"x_min":0,"x_max":0,"o":""},"":{"ha":185,"x_min":0,"x_max":0,"o":"m 124 783 b 49 783 122 831 47 831 b 74 68 58 544 66 306 b 149 68 76 20 151 20 b 124 783 141 306 133 544 z m 142 907 b 106 983 155 939 137 972 b 30 954 77 994 47 977 b 44 902 19 938 27 911 b 49 900 45 901 47 901 b 58 888 51 895 54 891 b 142 907 84 862 128 875 z "},"":{"ha":415,"x_min":0,"x_max":0,"o":"m 349 628 b 387 693 391 605 429 669 b 294 726 358 709 326 721 b 299 854 296 769 297 812 b 224 854 301 903 226 902 b 219 728 222 812 221 770 b 146 700 194 724 169 715 b 26 520 84 660 44 591 b 113 185 -5 402 23 271 b 198 133 137 163 166 144 b 194 31 197 99 195 65 b 269 31 192 -17 267 -17 b 273 124 270 62 271 93 b 372 150 307 125 340 134 b 385 201 390 158 395 184 b 334 214 374 220 352 223 b 327 211 332 213 329 212 b 320 208 327 211 319 208 b 298 202 312 206 305 204 b 275 198 290 200 283 199 b 292 651 281 349 286 500 b 349 628 312 646 331 638 z m 201 213 b 174 231 190 219 181 225 b 146 259 164 240 155 249 b 142 265 146 260 143 264 b 139 270 141 266 140 268 b 127 287 135 275 131 281 b 112 314 122 296 117 305 b 107 325 111 318 109 321 b 107 326 107 325 107 326 b 106 328 106 327 106 328 b 106 328 106 328 106 328 b 105 330 106 329 105 330 b 106 329 105 330 105 329 b 166 621 70 426 90 551 b 174 628 169 624 171 626 b 181 633 174 628 180 632 b 202 645 188 638 195 642 b 204 646 203 646 204 646 b 217 651 208 648 212 649 b 201 213 211 505 206 359 z "},"":{"ha":481,"x_min":0,"x_max":0,"o":"m 373 104 b 122 92 289 100 206 96 b 222 389 182 179 216 282 b 222 412 222 396 222 404 b 295 415 246 413 270 414 b 332 453 315 416 332 432 b 295 490 332 472 315 491 b 217 487 269 489 243 488 b 197 609 211 528 203 568 b 217 789 188 668 185 735 b 279 838 232 813 253 830 b 349 828 305 845 326 844 b 400 841 365 816 391 825 b 387 893 411 860 403 881 b 206 885 333 930 258 921 b 117 701 146 842 121 771 b 142 484 112 627 133 556 b 93 482 126 483 109 483 b 53 484 82 490 68 493 b 36 475 47 481 42 478 b 55 405 4 457 18 404 b 147 409 86 407 116 408 b 125 269 146 362 139 315 b 16 77 104 198 66 132 b 42 13 -5 54 8 11 b 373 29 152 18 263 23 b 411 66 393 30 411 45 b 373 104 411 86 393 105 z "},"":{"ha":454,"x_min":0,"x_max":0,"o":"m 362 723 b 318 650 347 699 333 674 b 260 685 300 666 281 679 b 211 696 250 700 231 709 b 193 684 205 692 199 688 b 183 679 190 682 186 681 b 168 662 176 676 170 670 b 138 632 157 653 147 643 b 93 710 123 658 108 684 b 28 672 68 752 3 714 b 92 563 49 636 71 599 b 69 504 83 544 75 524 b 88 271 47 429 49 340 b 30 175 69 239 49 207 b 95 137 5 133 70 96 b 141 213 110 162 125 188 b 195 194 157 203 175 196 b 292 223 230 190 264 203 b 329 161 304 203 317 182 b 394 199 353 120 418 157 b 347 278 378 226 362 252 b 397 502 394 342 411 424 b 366 585 392 527 381 557 b 427 685 387 618 407 652 b 362 723 452 727 387 764 z m 137 351 b 140 480 126 393 129 439 b 141 481 140 480 140 480 b 177 418 153 460 165 439 b 137 351 164 396 150 373 z m 228 615 b 228 615 228 615 228 615 b 246 609 234 615 240 612 b 277 583 258 603 268 593 b 222 491 259 552 240 522 b 179 563 207 515 193 539 b 228 615 193 583 209 600 z m 200 268 b 179 277 192 269 186 272 b 221 345 193 299 207 322 b 254 288 232 326 243 307 b 200 268 238 276 220 266 z m 304 351 b 265 418 291 373 278 395 b 319 506 283 447 301 477 b 322 492 320 502 321 497 b 304 351 333 445 326 394 z "},"":{"ha":546,"x_min":0,"x_max":0,"o":"m 458 913 b 407 900 442 923 415 919 b 230 500 348 767 289 634 b 86 886 182 629 134 758 b 85 890 86 888 86 889 b 80 904 83 895 82 900 b 34 931 72 923 55 936 b 7 884 15 925 0 903 b 173 440 62 736 118 588 b 88 432 145 437 117 434 b 51 394 68 430 51 416 b 88 357 51 375 68 355 b 194 367 124 360 159 363 b 193 308 194 347 193 327 b 101 301 162 306 132 303 b 64 264 81 300 64 285 b 101 226 64 244 81 225 b 191 233 131 228 161 230 b 187 14 190 160 188 87 b 262 14 185 -34 259 -34 b 263 38 262 22 262 30 b 262 45 263 41 263 43 b 267 238 264 110 265 174 b 343 244 292 240 318 242 b 381 281 363 245 381 260 b 343 319 381 300 363 320 b 268 313 318 317 293 315 b 269 374 269 333 269 354 b 389 385 309 378 349 381 b 426 423 409 387 426 401 b 389 460 426 441 409 462 b 289 451 355 457 322 454 b 472 862 350 588 411 725 b 458 913 480 881 477 902 z "},"":{"ha":389,"x_min":0,"x_max":0,"o":"m 305 794 b 358 847 339 760 392 813 b 183 888 313 892 243 909 b 74 743 121 865 81 808 b 118 616 69 695 88 652 b 58 504 80 594 56 550 b 160 339 62 435 111 383 b 249 191 204 299 249 255 b 169 88 249 144 219 94 b 104 115 144 85 117 95 b 102 177 91 135 91 158 b 37 214 127 218 62 256 b 79 36 1 154 23 75 b 271 60 138 -4 223 10 b 312 260 323 112 336 192 b 280 321 304 282 293 302 b 326 357 298 328 313 340 b 305 550 371 417 350 496 b 177 662 268 594 216 620 b 169 789 144 698 137 748 b 305 794 201 831 267 831 z m 166 556 b 181 560 171 557 176 558 b 268 470 215 535 250 509 b 264 399 279 446 280 417 b 251 389 260 394 257 391 b 247 388 252 389 248 388 b 241 386 241 385 247 387 b 227 388 234 386 231 386 b 222 391 228 387 222 391 b 219 393 222 391 217 395 b 192 411 212 402 203 409 b 177 426 187 416 182 421 b 133 509 156 448 133 477 b 145 544 133 521 136 532 b 166 556 151 551 160 556 z "},"":{"ha":647,"x_min":0,"x_max":0,"o":"m 504 839 b 293 895 445 889 369 906 b 115 791 222 885 159 847 b 33 410 34 688 4 537 b 129 233 48 344 80 280 b 343 159 186 178 264 152 b 541 260 420 165 492 199 b 620 457 586 317 611 385 b 623 503 622 472 623 488 b 504 839 623 619 597 760 z m 545 461 b 545 458 545 460 545 459 b 545 456 545 458 545 457 b 543 446 544 453 544 449 b 537 420 541 437 540 429 b 525 381 534 407 530 394 b 507 343 521 370 516 358 b 381 240 479 292 436 256 b 334 233 363 236 351 234 b 310 233 326 233 318 233 b 285 235 301 233 291 234 b 203 268 252 241 231 249 b 115 396 163 296 131 348 b 104 437 111 409 107 423 b 100 456 103 443 102 450 b 100 458 100 457 100 458 b 100 459 100 459 100 459 b 99 472 100 464 99 468 b 100 552 97 499 98 525 b 101 561 101 555 101 558 b 102 565 102 562 102 564 b 105 585 103 572 104 578 b 117 632 108 601 112 616 b 149 708 126 663 133 681 b 200 773 165 736 176 751 b 266 812 217 789 244 805 b 431 800 322 831 384 828 b 440 794 434 798 437 796 b 448 789 441 794 447 789 b 464 774 453 784 459 779 b 479 757 469 769 474 763 b 480 756 480 757 480 756 b 482 754 481 755 481 755 b 487 746 483 751 485 749 b 524 668 507 717 514 698 b 536 622 529 653 533 638 b 540 599 538 614 539 607 b 542 589 541 596 541 592 b 543 584 542 587 542 586 b 548 503 546 557 548 530 b 545 461 548 489 547 475 z m 429 462 b 378 448 411 473 389 465 b 308 444 363 427 330 428 b 268 552 275 468 267 513 b 306 646 270 585 280 625 b 377 649 328 663 360 665 b 430 702 412 616 465 669 b 302 727 396 734 346 743 b 207 626 255 710 224 673 b 296 366 173 535 198 406 b 443 411 350 345 410 363 b 429 462 454 427 446 452 z "},"":{"ha":0,"x_min":0,"x_max":0,"o":""},"":{"ha":497,"x_min":0,"x_max":0,"o":"m 384 935 b 89 900 297 1005 159 986 b 30 629 30 827 6 720 b 103 504 42 582 66 536 b 263 452 147 466 204 448 b 426 541 329 457 386 488 b 475 698 459 586 474 643 b 384 935 474 782 453 880 z m 160 554 b 160 554 161 553 164 550 z m 398 673 b 397 663 398 672 397 665 b 393 646 396 657 394 652 b 372 596 387 624 384 616 b 336 555 362 579 354 569 b 329 549 340 557 331 551 b 315 542 324 547 320 544 b 288 532 307 538 300 535 b 224 528 268 526 242 525 b 192 536 213 529 202 532 b 166 550 187 538 175 544 b 160 554 164 551 162 552 b 159 555 160 554 159 554 b 148 565 155 558 152 561 b 138 575 145 568 141 572 b 135 580 137 577 136 578 b 132 583 134 580 133 582 b 117 608 126 591 122 599 b 113 617 116 609 113 615 b 111 621 112 619 111 621 b 108 629 110 624 109 627 b 101 655 105 638 103 646 b 98 668 100 659 99 664 b 98 670 98 669 98 670 b 97 677 98 671 97 676 b 98 729 96 694 96 712 b 98 733 98 731 98 732 b 99 736 98 733 99 734 b 101 748 100 740 100 744 b 109 780 103 759 106 769 b 114 793 110 784 112 789 b 117 803 114 795 117 803 b 131 829 121 812 126 820 b 165 870 141 847 148 855 b 169 874 166 872 168 873 b 172 876 170 875 171 876 b 184 884 176 879 180 881 b 210 896 196 891 199 892 b 274 902 233 903 249 904 b 299 897 280 902 289 900 b 306 895 301 897 304 896 b 310 894 307 895 309 894 b 314 892 312 893 313 892 b 322 888 317 891 319 889 b 334 880 326 885 330 883 b 343 873 334 880 342 874 b 353 862 346 869 350 866 b 356 859 354 861 355 860 b 358 855 356 858 358 856 b 374 828 364 846 370 837 b 377 822 375 826 376 824 b 378 820 377 821 378 821 b 378 820 378 820 378 820 b 383 806 380 815 381 810 b 397 748 389 787 394 767 b 398 738 396 748 397 740 b 399 725 398 734 398 729 b 400 698 399 716 400 707 b 398 673 400 689 399 681 z m 325 803 b 247 755 295 793 269 776 b 246 776 247 762 246 769 b 208 814 245 796 230 814 b 171 776 189 814 170 796 b 179 646 174 733 177 689 b 217 608 181 625 196 608 b 252 632 232 608 247 618 b 270 655 260 637 267 645 b 345 730 281 690 310 719 b 371 776 364 737 377 756 b 325 803 366 795 344 809 z "},"":{"ha":551,"x_min":0,"x_max":0,"o":"m 480 143 b 434 169 474 164 454 172 b 401 187 423 167 408 178 b 381 240 389 202 384 222 b 369 379 372 285 370 332 b 397 671 367 477 376 575 b 370 717 401 691 391 712 b 324 691 352 723 329 711 b 295 341 299 576 289 458 b 298 299 296 327 297 313 b 284 270 290 293 284 283 b 196 189 285 224 246 183 b 132 287 148 196 122 244 b 113 329 138 307 127 322 b 115 509 114 389 114 449 b 117 698 116 572 117 635 b 42 698 118 746 43 746 b 34 41 40 479 37 260 b 32 -147 34 -22 33 -85 b 107 -147 31 -196 106 -196 b 111 149 108 -48 109 50 b 191 115 133 131 160 119 b 324 170 244 109 293 132 b 454 96 348 119 397 88 b 480 143 474 100 485 125 z "},"":{"ha":554,"x_min":0,"x_max":0,"o":"m 508 618 b 499 621 505 619 502 621 b 504 708 501 650 503 679 b 517 907 509 775 513 841 b 479 944 518 927 499 944 b 469 943 476 944 472 944 b 234 923 392 972 306 964 b 86 728 161 880 110 807 b 118 481 60 646 61 550 b 295 404 160 429 228 402 b 279 22 290 277 284 149 b 316 -15 278 2 296 -15 b 354 22 337 -15 353 2 b 371 419 359 154 365 287 b 413 440 385 424 399 431 b 398 208 408 362 403 285 b 385 9 394 141 390 75 b 423 -28 384 -11 404 -28 b 460 9 444 -28 459 -11 b 492 515 471 178 482 347 b 521 567 504 531 513 549 b 508 618 529 585 527 607 z m 314 848 b 298 479 309 725 304 602 b 188 516 258 476 218 489 b 152 686 141 559 137 627 b 248 842 166 746 199 804 b 339 883 274 862 306 876 b 314 848 325 877 315 864 z m 419 544 b 375 504 406 528 391 515 b 389 848 379 619 384 733 b 354 885 390 867 373 884 b 440 875 383 889 413 886 b 419 544 433 764 426 654 z "},"":{"ha":428,"x_min":0,"x_max":0,"o":"m 367 212 b 314 212 354 228 327 226 b 314 159 299 197 301 175 b 321 97 327 143 328 119 b 269 54 313 76 294 60 b 150 134 216 41 165 80 b 206 311 131 197 162 264 b 355 468 256 363 319 403 b 374 708 395 540 403 630 b 328 734 367 727 349 740 b 302 688 310 729 295 707 b 272 479 328 618 318 538 b 105 300 222 414 147 373 b 101 61 63 227 54 134 b 316 -9 147 -11 236 -44 b 367 212 401 29 426 141 z m 312 794 b 391 814 339 776 375 787 b 372 893 406 841 399 877 b 298 882 349 906 315 904 b 296 881 297 882 297 881 b 291 873 294 878 292 876 b 312 794 276 845 285 811 z "},"":{"ha":539,"x_min":0,"x_max":0,"o":"m 544 30 b 359 753 482 271 421 512 b 307 958 342 821 324 889 b 235 958 298 994 244 994 b 46 226 172 714 109 470 b -7 18 29 156 11 87 b 65 -2 -19 -29 53 -49 b 110 170 80 55 95 112 b 429 178 216 173 322 175 b 472 10 443 122 457 66 b 544 30 484 -37 556 -17 z m 129 245 b 253 730 171 407 212 568 b 271 797 259 752 265 774 b 410 253 317 615 363 434 b 129 245 316 250 223 248 z m 254 1039 b 305 1026 266 1023 286 1015 b 319 1077 321 1036 330 1061 b 261 1158 299 1104 280 1131 b 210 1171 249 1174 228 1182 b 196 1120 193 1162 184 1137 b 254 1039 215 1093 235 1066 z "},"":{"ha":883,"x_min":0,"x_max":0,"o":"m 849 50 b 547 45 748 48 648 47 b 541 270 545 120 543 195 b 816 269 633 269 725 269 b 816 344 864 268 865 344 b 540 345 724 344 632 344 b 544 732 539 474 540 603 b 549 891 545 785 547 838 b 840 894 646 892 743 893 b 840 969 888 894 888 969 b 536 966 739 968 638 967 b 532 966 535 966 533 966 b 513 971 526 969 520 971 b 476 934 492 971 477 954 b 465 338 467 735 463 536 b 359 753 430 476 395 614 b 307 958 342 821 324 889 b 235 958 298 994 244 994 b 46 226 172 714 109 470 b -7 18 29 156 11 87 b 65 -2 -19 -29 53 -49 b 110 170 80 55 95 112 b 429 178 216 173 322 175 b 472 10 443 122 457 66 b 472 10 472 10 472 10 b 508 -31 470 -10 482 -31 b 849 -25 622 -29 735 -27 b 849 50 897 -24 897 51 z m 129 245 b 253 730 171 407 212 568 b 271 797 259 752 265 774 b 410 253 317 615 363 434 b 129 245 316 250 223 248 z "},"":{"ha":571,"x_min":0,"x_max":0,"o":"m 525 265 b 488 228 503 265 490 248 b 487 227 488 228 488 228 b 487 226 487 227 487 227 b 487 222 487 225 487 223 b 487 222 487 222 487 222 b 487 222 487 222 487 222 b 480 192 485 212 483 202 b 469 156 477 180 473 168 b 468 154 468 155 468 155 b 467 152 468 154 468 153 b 463 143 466 149 464 146 b 450 120 459 135 455 128 b 387 66 436 98 416 77 b 277 69 351 52 313 57 b 266 73 273 70 270 71 b 264 74 265 73 264 74 b 262 74 263 74 263 74 b 247 82 257 77 252 79 b 225 96 239 86 232 90 b 221 98 223 96 222 97 b 217 102 220 99 217 101 b 204 113 212 105 208 109 b 180 139 196 121 188 130 b 172 150 181 139 174 148 b 163 166 169 155 166 161 b 143 202 155 177 149 190 b 139 211 142 205 140 208 b 137 216 139 211 137 215 b 130 232 134 222 132 227 b 117 275 125 246 121 260 b 91 447 99 336 93 384 b 94 540 90 478 91 509 b 106 624 96 573 99 590 b 129 707 111 652 119 680 b 136 726 131 714 133 720 b 138 733 136 728 137 731 b 141 738 139 734 140 738 b 159 775 146 751 152 763 b 178 805 165 785 171 796 b 181 809 179 807 180 808 b 185 814 182 810 184 813 b 198 829 189 819 193 824 b 220 850 205 836 212 843 b 230 856 218 847 228 855 b 243 864 234 859 239 862 b 257 871 248 867 252 869 b 259 872 258 872 258 872 b 260 873 259 872 260 872 b 275 878 265 874 270 876 b 337 887 295 884 316 888 b 432 839 378 885 407 868 b 457 801 440 829 449 817 b 467 780 461 794 464 787 b 468 779 468 779 468 779 b 469 777 468 778 468 778 b 473 766 470 773 472 770 b 487 715 479 749 484 733 b 533 689 490 696 515 684 b 559 735 554 695 563 715 b 502 871 550 783 531 832 b 410 946 477 903 448 930 b 259 952 362 966 309 966 b 45 692 141 916 77 804 b 36 287 8 562 6 418 b 223 10 61 178 116 59 b 256 -3 234 5 245 1 b 271 -69 249 -24 254 -50 b 317 -101 283 -84 300 -93 b 338 -111 324 -104 332 -106 b 344 -121 341 -114 343 -118 b 314 -160 350 -140 336 -158 b 254 -118 288 -162 264 -143 b 207 -91 246 -99 228 -86 b 181 -138 189 -96 174 -119 b 277 -231 198 -181 230 -218 b 398 -193 320 -243 370 -229 b 402 -71 425 -159 428 -107 b 349 -33 389 -52 369 -42 b 333 -24 348 -32 339 -27 b 339 -16 335 -21 337 -19 b 478 37 389 -16 438 -1 b 559 203 523 79 549 142 b 562 227 561 211 562 219 b 525 265 564 247 544 265 z m 316 -34 b 319 -33 317 -34 318 -33 b 316 -34 319 -33 318 -34 z "},"":{"ha":457,"x_min":0,"x_max":0,"o":"m 423 50 b 121 45 322 48 222 47 b 115 270 119 120 117 195 b 390 269 207 269 299 269 b 390 344 438 268 439 344 b 114 345 298 344 206 344 b 118 732 113 474 114 603 b 123 891 119 785 121 838 b 414 894 220 892 317 893 b 414 969 462 894 462 969 b 110 966 313 968 212 967 b 106 966 109 966 107 966 b 87 971 100 969 94 971 b 50 934 66 971 51 954 b 41 210 39 692 36 451 b 47 18 43 146 45 82 b 82 -31 41 -4 52 -31 b 423 -25 196 -29 309 -27 b 423 50 471 -24 471 51 z m 126 1098 b 177 1013 154 1076 171 1048 b 223 987 181 993 205 982 b 250 1033 245 992 253 1013 b 179 1151 242 1079 216 1123 b 126 1151 163 1164 141 1167 b 126 1098 113 1138 110 1111 z "},"":{"ha":160,"x_min":0,"x_max":0,"o":"m 117 747 b 124 948 118 814 121 881 b 86 985 125 968 106 985 b 49 948 65 985 50 968 b 40 224 38 707 35 465 b 46 25 42 158 44 92 b 84 -12 47 5 63 -12 b 122 25 104 -12 122 5 b 117 747 112 266 110 506 z m 109 1053 b 56 1147 91 1084 74 1116 b -9 1109 32 1189 -32 1151 b 44 1015 9 1078 26 1046 b 109 1053 68 973 132 1011 z "},"":{"ha":568,"x_min":0,"x_max":0,"o":"m 527 738 b 521 939 525 805 524 872 b 446 939 520 987 444 987 b 450 216 455 698 456 457 b 449 156 450 196 449 176 b 187 754 347 349 260 549 b 124 946 165 818 144 882 b 116 963 123 953 120 958 b 115 964 116 963 115 964 b 114 966 114 965 114 965 b 113 966 113 966 113 966 b 87 977 106 973 97 977 b 62 966 77 977 68 972 b 50 936 53 959 48 949 b 41 215 39 696 36 455 b 48 16 43 149 45 83 b 85 -21 48 -4 64 -21 b 123 16 105 -21 124 -4 b 117 728 113 253 111 491 b 347 190 183 544 259 364 b 445 4 378 127 411 65 b 458 -13 447 -3 452 -9 b 499 -16 470 -23 486 -23 b 518 9 508 -11 515 -3 b 519 16 519 11 519 14 b 519 16 519 16 519 16 b 527 738 529 257 531 497 z m 201 1048 b 201 1048 201 1048 201 1048 b 202 1049 201 1048 201 1049 l 202 1049 b 201 1048 201 1049 201 1048 z m 152 1016 b 198 1042 171 1010 194 1022 b 199 1045 199 1044 199 1045 b 201 1048 200 1046 200 1047 b 200 1047 201 1048 201 1048 b 201 1048 201 1048 201 1048 b 202 1049 201 1048 201 1049 b 202 1049 202 1049 202 1049 b 202 1049 202 1049 202 1049 b 202 1049 202 1049 202 1049 b 203 1049 202 1049 202 1049 b 207 1051 204 1050 206 1051 b 212 1053 209 1052 212 1053 b 215 1053 213 1053 214 1053 b 216 1053 215 1053 215 1053 b 217 1052 217 1052 219 1050 b 279 974 236 1025 247 991 b 387 981 313 956 356 957 b 424 1085 420 1006 432 1045 b 378 1111 421 1105 397 1116 b 352 1065 358 1105 348 1085 b 327 1036 355 1051 340 1034 b 303 1053 315 1038 310 1042 b 280 1094 295 1067 289 1081 b 126 1062 237 1149 142 1132 b 152 1016 122 1042 132 1021 z "},"":{"ha":557,"x_min":0,"x_max":0,"o":"m 518 686 b 444 903 506 760 487 840 b 261 992 402 965 338 1003 b 100 855 186 981 132 919 b 28 599 59 775 40 687 b 24 349 17 516 14 432 b 99 97 34 262 54 173 b 284 -21 138 30 202 -25 b 467 116 368 -16 430 44 b 535 386 510 199 528 294 b 537 451 536 408 537 429 b 518 686 537 530 531 608 z m 182 106 b 182 106 184 104 183 105 z m 425 209 b 377 113 414 175 399 145 b 375 110 377 112 376 111 b 373 108 374 109 374 108 b 365 98 371 104 368 101 b 347 80 359 92 353 86 b 345 79 346 79 345 79 b 344 78 345 78 344 78 b 334 71 340 75 337 73 b 324 65 331 69 327 67 b 316 62 322 64 315 61 b 296 56 309 59 303 57 b 290 55 294 55 291 55 b 279 54 286 54 282 54 b 267 54 275 54 271 54 b 260 55 265 54 261 55 b 239 61 253 57 246 58 b 236 61 238 61 237 61 b 235 62 236 62 236 62 b 225 68 232 64 228 66 b 215 74 222 70 219 72 b 212 76 214 75 213 76 b 211 77 211 77 211 77 b 210 78 211 77 211 77 b 194 93 205 82 199 87 b 186 101 192 95 189 98 b 182 107 185 103 184 105 b 181 108 182 107 182 107 b 104 314 137 168 118 239 b 97 537 92 382 91 462 b 144 769 103 614 116 693 b 189 859 154 798 169 829 b 194 865 190 860 194 864 b 199 871 196 867 197 869 b 216 889 204 877 210 883 b 224 896 218 891 221 893 b 225 897 225 896 225 897 b 228 898 226 897 226 898 b 247 910 234 903 240 906 b 250 912 248 911 249 911 b 250 912 250 912 250 912 b 260 915 254 913 257 914 b 269 917 263 916 266 917 b 277 919 271 918 279 919 b 296 919 283 919 290 919 b 303 919 297 919 301 919 b 311 917 305 918 310 917 b 325 913 316 916 320 914 b 331 910 324 913 329 911 b 341 904 334 908 338 906 b 349 899 344 903 346 901 b 351 896 343 903 349 899 b 367 881 357 892 362 886 b 373 873 369 878 371 876 b 375 870 374 872 375 871 b 388 850 380 864 384 857 b 400 829 392 843 396 836 b 405 819 401 826 403 822 b 406 815 405 817 406 816 b 408 811 407 814 407 812 b 438 708 421 778 431 743 b 461 497 453 638 459 572 b 462 451 462 482 462 466 b 425 209 462 368 452 289 z m 244 1039 b 297 1039 257 1024 283 1026 b 297 1092 312 1055 310 1077 b 232 1170 275 1118 254 1144 b 179 1170 219 1185 192 1183 b 179 1117 164 1154 166 1132 b 244 1039 201 1091 222 1065 z "},"":{"ha":576,"x_min":0,"x_max":0,"o":"m 534 686 b 488 853 525 742 512 800 b 532 947 503 884 518 916 b 519 998 541 965 538 988 b 468 985 503 1008 476 1003 b 441 928 459 966 450 947 b 277 992 399 975 343 1002 b 115 855 202 980 148 919 b 44 599 75 775 55 687 b 40 349 33 516 30 432 b 80 170 47 289 59 227 b 18 40 60 127 39 83 b 32 -12 10 21 13 -1 b 83 2 48 -21 74 -17 b 122 84 96 29 109 57 b 300 -21 162 23 223 -25 b 483 116 384 -16 446 44 b 550 386 525 199 544 294 b 553 451 552 408 553 429 b 534 686 553 530 547 608 z m 129 271 b 120 314 125 285 123 299 b 113 537 108 382 107 462 b 159 769 119 614 132 693 b 205 859 170 798 184 829 b 210 865 206 860 209 864 b 215 871 211 867 213 869 b 232 889 220 877 226 883 b 240 896 234 891 237 893 b 241 897 240 896 241 897 b 243 898 242 897 242 898 b 263 910 250 903 256 906 b 266 912 264 911 265 911 b 266 912 266 912 266 912 b 276 915 270 913 273 914 b 285 917 279 916 282 917 b 293 919 287 918 295 919 b 312 919 299 919 306 919 b 319 919 313 919 317 919 b 327 917 321 918 326 917 b 341 913 332 916 336 914 b 347 910 340 913 345 911 b 357 904 350 908 353 906 b 365 899 359 903 362 901 b 367 896 359 903 365 899 b 383 881 373 892 378 886 b 389 873 385 878 387 876 b 391 870 390 872 391 871 b 404 851 396 864 400 858 b 129 271 312 658 220 465 z m 198 106 b 198 106 200 104 199 105 z m 441 209 b 393 113 429 175 415 145 b 391 110 392 112 392 111 b 389 108 390 109 389 108 b 381 98 387 104 384 101 b 362 80 375 92 369 86 b 361 79 362 79 361 79 b 359 78 360 78 360 78 b 350 71 356 75 353 73 b 340 65 347 69 343 67 b 332 62 338 64 331 61 b 312 56 325 59 319 57 b 306 55 310 55 306 55 b 294 54 302 54 298 54 b 283 54 291 54 287 54 b 275 55 281 54 276 55 b 255 61 268 57 262 58 b 252 61 253 61 253 61 b 251 62 252 62 251 62 b 241 68 247 64 244 66 b 231 74 238 70 234 72 b 227 76 230 75 229 76 b 227 77 227 77 227 77 b 226 78 227 77 226 77 b 210 93 221 82 215 87 b 202 101 208 95 205 98 b 198 107 201 103 199 105 b 197 108 198 107 198 107 b 162 168 183 127 172 147 b 433 739 253 358 343 548 b 442 757 436 745 439 751 b 454 708 446 741 450 725 b 477 497 469 638 475 572 b 478 451 478 482 478 466 b 441 209 478 368 468 289 z "},"":{"ha":501,"x_min":0,"x_max":0,"o":"m 469 904 b 470 932 469 913 469 923 b 395 932 471 981 396 981 b 395 782 393 882 395 832 b 396 563 397 709 397 636 b 380 331 394 486 390 408 b 379 326 380 330 380 328 b 379 325 379 326 379 325 b 377 312 379 321 378 316 b 373 283 376 302 374 293 b 362 232 370 266 366 249 b 350 186 359 217 354 201 b 342 165 347 179 345 172 b 339 155 341 161 340 158 b 338 152 338 154 338 153 b 337 151 337 152 337 151 b 319 116 331 139 326 127 b 309 101 316 111 312 106 b 308 100 308 100 308 100 b 302 93 306 97 304 95 b 290 82 298 89 294 85 b 290 82 290 82 290 82 b 282 77 287 80 285 78 b 276 73 280 75 278 74 b 275 73 276 73 275 73 b 276 73 275 73 276 73 b 275 72 276 73 275 73 b 271 71 273 72 272 71 b 260 68 267 70 264 69 b 257 67 259 68 258 67 b 256 67 258 67 258 67 b 253 66 255 67 254 67 b 255 67 254 67 255 67 b 253 67 255 67 254 67 b 237 67 248 67 242 68 b 237 67 237 67 237 67 b 228 69 234 68 231 68 b 221 72 226 70 224 71 b 221 72 221 72 221 72 b 221 72 221 72 221 72 b 208 79 216 74 212 77 b 207 80 207 80 207 80 b 201 85 205 82 203 83 b 190 97 197 89 194 93 b 188 99 189 97 189 98 b 183 106 186 101 185 103 b 164 140 175 117 169 128 b 159 149 162 143 161 146 b 158 152 163 142 160 149 b 150 175 156 159 153 167 b 127 270 140 206 133 238 b 123 296 125 279 124 287 b 121 308 122 300 121 304 b 120 311 121 309 121 310 b 120 316 120 313 120 316 b 114 374 117 336 115 355 b 106 493 110 414 108 453 b 108 903 101 630 109 766 b 107 932 108 913 108 923 b 32 932 106 981 30 981 b 31 767 34 877 32 822 b 30 534 29 689 28 612 b 49 287 32 451 37 369 b 105 89 58 219 73 150 b 236 -8 133 38 176 -2 b 376 67 295 -13 344 21 b 442 248 413 119 430 186 b 468 488 457 327 464 407 b 469 904 475 626 468 765 z m 188 99 b 188 99 186 101 187 100 z m 309 101 b 309 101 310 102 312 104 z m 235 994 b 300 1031 261 953 326 990 b 236 1134 279 1066 258 1100 b 171 1096 211 1175 146 1137 b 235 994 193 1062 214 1028 z "},"":{"ha":518,"x_min":0,"x_max":0,"o":"m 393 453 b 336 533 374 480 355 507 b 283 628 315 561 283 592 b 326 679 284 652 301 674 b 341 679 332 681 336 680 b 342 679 341 679 342 679 b 345 678 344 678 351 673 b 350 673 347 676 349 675 b 352 671 351 672 351 671 b 352 670 352 671 352 670 b 356 663 353 668 355 665 b 360 656 357 662 359 656 b 378 598 367 637 369 616 b 449 581 390 568 425 558 b 475 629 462 594 469 612 b 491 694 483 650 488 672 b 469 869 500 753 497 815 b 300 968 436 932 369 963 b 149 923 246 972 191 958 b 84 834 120 900 99 867 b 28 555 44 747 33 650 b 65 29 20 379 38 202 b 69 1 66 19 68 10 b 115 -25 72 -19 97 -30 b 142 21 137 -19 145 1 b 132 86 138 43 135 64 b 129 107 131 93 130 100 b 129 107 129 107 129 107 b 129 105 129 107 129 106 b 129 108 129 106 129 107 b 128 111 128 109 128 112 b 128 111 128 111 128 111 b 126 125 128 116 127 120 b 120 180 124 143 122 162 b 102 452 110 270 103 361 b 106 595 101 500 102 548 b 109 629 107 606 108 618 b 111 644 110 634 110 639 b 111 649 111 646 111 647 b 112 655 112 649 112 654 b 124 719 115 677 119 698 b 141 777 129 739 134 758 b 146 790 143 781 144 786 b 147 792 146 791 147 792 b 148 795 147 793 148 794 b 160 819 152 803 156 811 b 173 840 164 826 169 833 b 176 844 174 842 175 843 b 184 853 179 847 181 850 b 200 868 189 858 195 863 b 203 871 201 869 202 870 b 214 878 207 873 210 876 b 223 882 217 879 220 881 b 223 882 223 882 223 882 b 224 883 224 882 224 882 b 231 885 226 883 229 884 b 269 893 245 890 259 892 b 352 880 298 895 324 892 b 402 836 373 871 391 854 b 409 821 404 831 407 826 b 413 808 408 822 412 811 b 417 790 415 802 416 796 b 419 781 418 787 418 784 b 420 774 419 779 419 776 b 420 738 421 762 421 750 b 419 722 420 733 420 727 b 418 711 419 718 419 715 b 418 710 418 710 418 710 b 418 707 418 709 418 708 b 418 706 418 707 418 706 b 388 739 410 719 400 730 b 293 747 361 758 324 760 b 226 557 216 718 187 628 b 259 511 235 541 248 526 b 293 465 270 496 282 481 b 340 397 309 443 325 420 b 386 322 357 373 373 348 b 388 319 387 321 388 320 b 390 316 388 320 388 320 b 391 313 390 315 390 314 b 392 311 391 312 391 312 b 391 313 392 312 391 312 b 396 298 393 308 394 303 b 412 238 402 279 408 258 b 415 221 413 232 414 227 b 416 216 415 221 416 218 b 417 209 416 214 417 211 b 418 167 418 195 419 181 b 402 103 418 146 413 121 b 379 76 396 93 391 85 b 340 58 367 68 354 62 b 306 61 329 56 318 57 b 305 61 306 61 305 61 b 303 62 305 61 304 62 b 297 65 301 63 299 64 b 292 69 298 65 294 68 b 285 75 291 70 286 74 b 267 100 276 84 274 87 b 252 137 259 113 256 122 b 248 230 244 167 243 199 b 221 276 251 250 242 270 b 175 250 204 281 178 270 b 221 34 164 175 172 95 b 410 7 269 -24 348 -32 b 466 326 518 76 502 221 b 393 453 450 372 421 413 z m 447 625 b 446 627 447 626 446 627 b 447 625 450 621 447 623 z m 343 679 b 343 679 344 678 346 677 z "},"":{"ha":558,"x_min":0,"x_max":0,"o":"m 516 730 b 523 931 518 797 520 864 b 486 969 524 952 505 969 b 448 931 464 969 449 952 b 443 798 446 887 444 842 b 311 950 418 862 378 926 b 126 885 242 973 169 939 b 47 713 87 835 63 774 b 38 272 11 570 9 415 b 105 92 51 209 71 145 b 269 -9 141 37 199 -13 b 438 149 356 -5 407 77 b 441 158 439 152 440 155 b 446 9 442 108 444 58 b 483 -29 447 -11 462 -29 b 521 9 503 -29 522 -11 b 516 730 511 249 510 490 z m 391 245 b 348 136 380 204 368 171 b 336 116 344 129 340 122 b 329 106 334 112 331 109 b 323 99 329 106 324 100 b 307 83 318 93 313 88 b 304 81 306 82 305 81 b 304 80 304 81 304 81 b 294 74 301 78 298 76 b 285 70 291 72 288 71 b 282 69 292 73 286 70 b 258 66 274 66 266 65 b 234 72 250 66 242 69 b 231 73 233 72 232 73 b 223 77 228 75 225 76 b 210 85 219 80 214 82 b 209 86 210 86 209 86 b 210 85 209 86 209 86 b 209 86 209 86 209 86 b 207 88 207 88 206 88 b 203 91 206 89 204 90 b 180 115 195 99 187 107 b 179 117 180 116 179 117 b 174 124 177 120 175 122 b 163 141 170 130 167 135 b 145 176 157 152 151 164 b 143 182 145 178 143 181 b 140 188 142 184 141 186 b 133 209 138 195 135 202 b 120 252 128 223 124 238 b 109 298 116 267 112 283 b 105 321 108 306 107 313 b 103 333 105 325 104 329 b 102 343 103 334 102 342 b 94 442 98 376 95 409 b 96 544 93 476 94 510 b 101 595 98 561 99 578 b 102 604 101 598 102 601 b 103 612 102 605 103 610 b 107 637 105 620 106 628 b 129 727 113 667 120 698 b 144 768 134 741 139 754 b 144 768 144 768 144 768 b 145 770 144 769 145 770 b 149 779 147 773 148 776 b 158 798 152 786 155 792 b 178 829 164 809 171 819 b 180 833 179 831 180 832 b 184 837 181 834 183 836 b 196 850 188 842 192 846 b 207 861 199 854 203 857 b 208 861 207 861 208 861 b 215 866 210 863 213 865 b 227 873 219 869 223 871 b 234 876 229 874 232 875 b 236 877 223 870 233 876 b 291 877 256 883 271 882 b 292 877 291 877 292 877 b 293 876 292 877 293 877 b 303 871 296 874 300 873 b 311 865 306 869 309 867 b 317 860 304 870 315 862 b 333 844 322 855 328 850 b 335 841 334 842 335 842 b 336 839 335 841 335 841 b 344 828 339 835 342 832 b 369 779 354 812 362 796 b 419 555 398 714 413 627 b 422 502 421 538 422 520 b 391 245 424 414 414 329 z m 278 1006 b 343 1044 301 964 366 1002 b 283 1156 323 1081 303 1119 b 218 1118 260 1198 195 1160 b 278 1006 238 1081 258 1044 z "},"":{"ha":1006,"x_min":0,"x_max":0,"o":"m 964 757 b 844 938 945 827 910 902 b 642 918 778 975 699 965 b 550 786 601 884 572 835 b 515 689 536 755 525 722 b 516 730 515 703 516 716 b 523 931 518 797 520 864 b 486 969 524 952 505 969 b 448 931 464 969 449 952 b 443 798 446 887 444 842 b 311 950 418 862 378 926 b 126 885 242 973 169 939 b 47 713 87 835 63 774 b 38 272 11 570 9 415 b 105 92 51 209 71 145 b 269 -9 141 37 199 -13 b 438 149 356 -5 407 77 b 441 158 439 152 440 155 b 446 9 442 108 444 58 b 483 -29 447 -11 462 -29 b 521 9 503 -29 522 -11 b 516 151 519 56 517 103 b 587 38 532 109 554 69 b 836 -1 652 -23 755 -37 b 962 197 914 34 952 116 b 964 219 963 204 964 212 b 927 257 965 240 947 257 b 889 219 906 257 890 240 b 888 200 889 213 888 206 b 887 198 888 199 888 199 b 886 190 887 195 886 192 b 881 168 885 183 883 175 b 874 147 879 161 877 154 b 866 128 871 138 871 138 b 837 89 857 111 850 101 b 728 55 809 62 768 52 b 675 68 711 56 690 61 b 657 78 671 70 663 74 b 651 82 655 79 653 80 b 650 83 651 82 650 82 b 650 83 650 83 650 83 b 627 104 642 90 634 96 b 622 111 626 106 624 109 b 622 111 622 111 622 111 b 622 111 622 111 622 111 b 612 126 618 116 615 121 b 595 157 605 136 600 146 b 591 166 593 160 592 163 b 590 166 590 166 590 166 b 590 167 590 166 590 167 b 583 186 588 173 585 180 b 562 266 574 212 567 239 b 559 287 561 273 560 280 b 558 294 558 290 558 292 b 557 303 558 295 557 302 b 553 349 555 319 554 334 b 551 410 551 370 551 390 b 940 417 681 413 810 415 b 978 454 962 417 975 434 b 964 757 989 555 989 659 z m 391 245 b 348 136 380 204 368 171 b 336 116 344 129 340 122 b 329 106 334 112 331 109 b 323 99 329 106 324 100 b 307 83 318 93 313 88 b 304 81 306 82 305 81 b 304 80 304 81 304 81 b 294 74 301 78 298 76 b 285 70 291 72 288 71 b 282 69 292 73 286 70 b 258 66 274 66 266 65 b 234 72 250 66 242 69 b 231 73 233 72 232 73 b 223 77 228 75 225 76 b 210 85 219 80 214 82 b 209 86 210 86 209 86 b 210 85 209 86 209 86 b 209 86 209 86 209 86 b 207 88 207 88 206 88 b 203 91 206 89 204 90 b 180 115 195 99 187 107 b 179 117 180 116 179 117 b 174 124 177 120 175 122 b 163 141 170 130 167 135 b 145 176 157 152 151 164 b 143 182 145 178 143 181 b 140 188 142 184 141 186 b 133 209 138 195 135 202 b 120 252 128 223 124 238 b 109 298 116 267 112 283 b 105 321 108 306 107 313 b 103 333 105 325 104 329 b 102 343 103 334 102 342 b 94 442 98 376 95 409 b 96 544 93 476 94 510 b 101 595 98 561 99 578 b 102 604 101 598 102 601 b 103 612 102 605 103 610 b 107 637 105 620 106 628 b 129 727 113 667 120 698 b 144 768 134 741 139 754 b 144 768 144 768 144 768 b 145 770 144 769 145 770 b 149 779 147 773 148 776 b 158 798 152 786 155 792 b 178 829 164 809 171 819 b 180 833 179 831 180 832 b 184 837 181 834 183 836 b 196 850 188 842 192 846 b 207 861 199 854 203 857 b 208 861 207 861 208 861 b 215 866 210 863 213 865 b 227 873 219 869 223 871 b 234 876 229 874 232 875 b 236 877 223 870 233 876 b 291 877 256 883 271 882 b 292 877 291 877 292 877 b 293 876 292 877 293 877 b 303 871 296 874 300 873 b 311 865 306 869 309 867 b 317 860 304 870 315 862 b 333 844 322 855 328 850 b 335 841 334 842 335 842 b 336 839 335 841 335 841 b 344 828 339 835 342 832 b 369 779 354 812 362 796 b 419 555 398 714 413 627 b 422 502 421 538 422 520 b 391 245 424 414 414 329 z m 909 532 b 906 491 908 518 907 505 b 554 486 789 489 672 487 b 555 492 555 488 555 490 b 557 515 555 500 556 507 b 558 526 557 519 558 522 b 560 536 559 528 559 534 b 561 544 560 538 560 543 b 563 556 561 548 562 552 b 567 580 564 564 565 572 b 576 625 569 595 572 610 b 601 711 583 654 591 683 b 608 730 603 718 605 724 b 612 741 609 734 610 737 b 613 744 612 742 613 743 b 613 744 613 744 613 744 b 631 781 619 757 624 769 b 650 813 636 792 643 802 b 659 827 653 818 656 823 b 661 830 660 828 661 829 b 666 836 661 830 665 834 b 688 859 673 844 680 852 b 694 864 691 862 703 870 b 706 872 698 867 702 870 b 718 879 710 875 714 877 b 725 881 721 880 723 881 b 783 882 745 888 764 887 b 799 877 789 881 794 879 b 800 877 799 877 799 877 b 810 871 803 875 807 873 b 818 866 813 870 815 868 b 820 865 819 866 819 865 b 821 864 820 865 820 864 b 837 849 826 859 832 855 b 843 842 839 847 841 844 b 846 838 844 841 846 839 b 859 820 851 832 855 826 b 878 780 867 805 874 791 b 909 532 908 701 912 616 z "},"":{"ha":518,"x_min":0,"x_max":0,"o":"m 472 263 b 434 225 450 263 436 245 b 434 220 434 223 434 222 b 434 219 434 219 434 219 b 434 219 434 219 434 219 b 427 187 432 208 430 197 b 400 115 420 157 414 139 b 343 61 386 91 370 72 b 293 56 327 55 310 54 b 272 61 289 56 279 59 b 260 64 268 62 264 63 b 250 68 259 65 249 69 b 222 83 240 73 231 78 b 216 87 220 84 218 86 b 216 88 215 88 208 94 b 208 94 213 90 210 92 b 185 117 200 101 192 109 b 180 123 184 119 182 121 b 169 140 177 129 173 134 b 151 171 163 150 157 160 b 143 188 148 176 146 182 b 141 193 142 189 141 191 b 140 194 140 194 140 194 b 138 199 139 196 139 198 b 114 276 128 224 120 250 b 105 318 110 290 107 304 b 101 339 104 325 102 332 b 100 350 101 343 100 347 b 100 351 100 351 100 351 b 99 359 99 354 99 356 b 92 448 95 388 93 418 b 95 539 92 478 93 509 b 99 579 96 552 97 566 b 100 588 99 582 99 585 b 101 595 100 589 101 595 b 105 620 102 603 103 612 b 124 702 110 648 116 675 b 137 739 128 715 132 727 b 141 750 138 741 141 750 b 150 768 144 756 147 762 b 167 800 155 779 160 789 b 176 814 170 804 173 809 b 183 824 178 816 186 827 b 203 845 189 831 196 839 b 214 855 207 849 211 852 b 214 855 214 855 214 855 b 215 856 215 855 215 856 b 221 860 217 857 219 858 b 297 885 245 875 267 885 b 352 869 317 885 335 880 b 382 842 363 863 372 854 b 387 836 382 842 387 836 b 395 823 390 832 392 827 b 407 801 399 816 403 808 b 411 791 408 798 410 795 b 412 790 412 791 412 791 b 414 785 413 788 413 786 b 421 765 417 778 419 772 b 434 713 426 748 431 731 b 480 687 437 693 462 682 b 506 733 501 693 509 713 b 454 870 498 781 481 830 b 373 943 433 901 407 928 b 231 948 328 964 277 965 b 43 689 121 908 69 795 b 34 289 11 559 9 420 b 197 11 55 185 99 65 b 218 1 204 7 211 4 b 217 -54 211 -16 210 -36 b 253 -104 225 -74 238 -90 b 276 -137 265 -116 274 -124 b 276 -147 276 -135 275 -150 b 274 -156 276 -150 275 -153 b 271 -162 274 -156 272 -161 b 252 -177 266 -170 260 -176 b 241 -177 249 -178 243 -178 b 225 -171 232 -176 233 -176 b 209 -148 216 -166 212 -159 b 137 -168 198 -102 126 -121 b 219 -249 146 -208 180 -240 b 330 -208 262 -260 305 -244 b 341 -94 354 -175 358 -130 b 300 -46 331 -75 315 -61 b 289 -31 297 -43 292 -34 b 307 -18 296 -29 303 -24 b 432 33 353 -18 397 -3 b 506 201 475 77 497 140 b 509 225 507 209 508 217 b 472 263 511 245 491 263 z m 181 123 b 180 123 181 123 180 123 b 181 123 185 118 182 122 z m 288 -30 b 288 -30 281 -26 290 -29 z "},"":{"ha":547,"x_min":0,"x_max":0,"o":"m 506 757 b 386 938 488 827 452 902 b 184 918 320 975 242 965 b 93 786 143 884 114 835 b 18 380 37 660 15 518 b 47 184 20 315 28 248 b 129 38 63 131 88 77 b 378 -1 194 -23 297 -37 b 505 197 456 34 494 116 b 507 219 506 204 506 212 b 469 257 507 240 489 257 b 432 219 448 257 432 240 b 430 200 431 213 431 206 b 430 198 430 199 430 199 b 428 190 429 195 429 192 b 423 168 427 183 425 175 b 416 147 421 161 419 154 b 408 128 413 138 413 138 b 379 89 399 111 392 101 b 271 55 351 62 310 52 b 217 68 254 56 232 61 b 199 78 213 70 205 74 b 193 82 197 79 195 80 b 192 83 193 82 192 82 b 192 83 192 83 192 83 b 170 104 184 90 176 96 b 164 111 168 106 166 109 b 164 111 164 111 164 111 b 164 111 164 111 164 111 b 154 126 161 116 157 121 b 137 157 148 136 142 146 b 133 166 135 160 134 163 b 133 166 133 166 133 166 b 132 167 132 166 132 167 b 125 186 130 173 127 180 b 104 266 116 212 109 239 b 101 287 103 273 102 280 b 100 294 100 290 100 292 b 99 303 100 295 99 302 b 95 349 97 319 96 334 b 93 410 94 370 93 390 b 482 417 223 413 353 415 b 520 454 504 417 517 434 b 506 757 531 555 532 659 z m 451 532 b 448 491 450 518 449 505 b 96 486 331 489 214 487 b 97 492 97 488 97 490 b 99 515 98 500 98 507 b 100 526 100 519 100 522 b 102 536 101 528 101 534 b 103 544 102 538 103 543 b 105 556 103 548 104 552 b 109 580 106 564 107 572 b 118 625 112 595 115 610 b 143 711 125 654 133 683 b 150 730 145 718 147 724 b 154 741 151 734 153 737 b 155 744 154 742 155 743 b 156 744 156 744 156 744 b 173 781 161 757 167 769 b 192 813 179 792 185 802 b 201 827 195 818 198 823 b 204 830 202 828 203 829 b 208 836 203 830 207 834 b 230 859 215 844 222 852 b 236 864 233 862 245 870 b 249 872 240 867 244 870 b 261 879 252 875 257 877 b 267 881 263 880 265 881 b 326 882 287 888 306 887 b 341 877 331 881 336 879 b 342 877 341 877 341 877 b 352 871 345 875 349 873 b 360 866 355 870 357 868 b 362 865 361 866 361 865 b 363 864 362 865 362 864 b 379 849 368 859 374 855 b 385 842 381 847 383 844 b 389 838 386 841 388 839 b 401 820 393 832 397 826 b 420 780 409 805 416 791 b 451 532 450 701 454 616 z m 276 1009 b 327 995 285 991 310 985 b 341 1047 346 1006 350 1028 b 292 1144 324 1079 308 1112 b 240 1158 283 1163 257 1168 b 227 1107 222 1147 218 1125 b 276 1009 243 1074 259 1041 z "},"":{"ha":157,"x_min":0,"x_max":0,"o":"m 41 900 b 40 220 41 674 40 447 b 40 28 40 156 40 92 b 115 28 40 -20 115 -20 b 116 708 115 255 115 482 b 116 900 116 772 116 836 b 41 900 116 949 41 949 z m 84 1028 b 26 1142 79 1072 61 1113 b -27 1142 11 1155 -11 1157 b -27 1089 -40 1129 -42 1102 b 9 1028 -8 1073 7 1053 b 47 990 12 1008 25 990 b 84 1028 65 990 87 1008 z "},"":{"ha":524,"x_min":0,"x_max":0,"o":"m 488 625 b 463 848 486 699 483 776 b 367 964 449 897 421 952 b 246 911 317 976 273 953 b 208 831 229 887 218 858 b 170 701 193 788 181 745 b 116 477 150 627 133 552 b 117 716 117 557 117 637 b 118 921 117 785 117 853 b 42 921 118 969 43 969 b 41 203 42 682 41 442 b 40 -2 41 135 40 67 b 115 -2 40 -50 115 -50 b 116 100 115 32 116 66 b 228 624 150 275 185 450 b 268 771 240 673 252 723 b 285 822 273 789 279 806 b 289 833 287 826 288 829 b 290 834 290 833 290 834 b 290 835 290 834 290 835 b 298 852 293 841 296 847 b 314 878 303 861 308 870 b 317 882 315 879 316 880 b 323 887 319 884 321 885 b 326 889 324 888 325 889 b 328 890 326 889 327 890 b 334 892 330 891 332 891 b 335 892 334 892 335 892 b 339 892 336 892 338 892 b 345 892 341 892 343 892 b 345 892 345 892 345 892 b 351 891 347 892 349 891 b 351 891 351 891 351 891 b 350 892 351 891 350 892 b 351 891 350 892 351 891 b 355 889 354 890 356 889 b 360 886 357 888 359 887 b 365 881 362 884 364 883 b 369 877 367 880 368 878 b 370 876 369 877 369 876 b 378 862 373 871 375 867 b 381 855 379 860 380 858 b 382 854 381 855 382 854 b 382 853 382 853 382 853 b 402 770 391 826 398 798 b 403 763 403 768 403 766 b 405 751 404 759 404 755 b 408 725 406 742 407 733 b 411 667 409 705 410 686 b 405 78 420 471 406 274 b 405 -2 405 52 405 25 b 480 -2 405 -50 480 -50 b 488 625 478 207 493 416 z m 403 764 b 403 764 403 766 403 767 z m 351 891 b 355 889 353 890 354 889 b 351 891 354 890 352 890 b 351 891 351 891 351 891 z m 205 997 b 240 1021 220 996 234 1007 b 243 1018 241 1020 242 1019 b 330 985 267 996 296 978 b 384 1035 356 990 376 1011 b 369 1108 393 1062 386 1088 b 316 1108 356 1124 329 1122 b 313 1059 301 1094 303 1074 b 313 1059 313 1059 313 1059 b 313 1058 313 1059 313 1059 b 310 1060 312 1059 311 1059 b 235 1111 285 1078 266 1103 b 151 1069 200 1120 163 1104 b 155 1021 146 1053 147 1035 b 205 997 167 1001 184 998 z m 314 1061 b 313 1061 313 1061 313 1061 b 314 1061 314 1062 314 1062 z m 312 1058 b 312 1057 312 1058 312 1058 b 312 1058 312 1058 312 1058 z m 312 1057 b 312 1057 312 1057 312 1057 b 312 1057 312 1057 312 1057 b 312 1057 312 1055 311 1053 z m 217 1039 b 217 1039 214 1037 214 1040 z "},"":{"ha":549,"x_min":0,"x_max":0,"o":"m 511 650 b 436 859 498 722 479 798 b 256 943 394 919 331 954 b 96 811 183 932 129 873 b 27 568 57 736 38 651 b 23 325 16 488 13 406 b 97 86 33 243 53 158 b 279 -26 136 22 200 -30 b 526 361 461 -15 515 215 b 529 426 528 383 529 404 b 511 650 529 501 523 576 z m 418 197 b 398 150 411 178 407 168 b 371 105 390 134 381 119 b 370 104 371 105 371 104 b 367 100 369 103 367 100 b 360 92 365 97 362 95 b 342 75 354 86 348 80 b 340 73 341 74 340 73 b 338 72 339 73 339 73 b 329 66 335 70 332 68 b 319 60 326 64 323 62 b 315 58 318 60 316 59 b 313 58 314 58 314 58 b 313 57 313 57 313 57 b 292 51 306 55 299 53 b 286 50 290 51 286 50 b 274 49 282 50 278 49 b 263 49 270 49 267 49 b 255 50 262 49 257 50 b 247 52 253 51 248 52 b 236 55 243 53 240 54 b 229 58 235 56 230 57 b 223 61 227 59 225 60 b 213 67 220 63 217 65 b 205 72 212 68 207 71 b 200 77 204 73 201 76 b 192 85 197 80 194 82 b 177 102 186 90 181 96 b 173 107 176 103 174 106 b 166 118 170 111 168 114 b 153 140 161 125 157 133 b 133 183 143 157 139 168 b 103 292 120 219 110 255 b 92 395 97 327 94 357 b 95 503 91 431 92 467 b 141 726 100 577 114 654 b 160 769 147 743 150 752 b 185 811 167 784 175 798 b 188 816 186 813 187 814 b 188 816 188 816 188 816 b 195 824 190 819 193 821 b 212 841 200 830 206 836 b 218 846 214 843 216 844 b 223 850 218 846 222 849 b 242 861 229 854 236 858 b 244 862 243 862 244 862 b 246 863 244 862 245 863 b 254 866 249 864 251 865 b 265 868 258 867 261 868 b 272 870 267 869 273 870 b 290 870 278 870 284 870 b 298 870 293 870 295 870 b 305 868 295 870 303 869 b 322 863 311 867 317 865 b 325 862 323 863 324 862 b 335 856 328 860 332 858 b 343 851 338 854 340 852 b 344 850 343 850 344 850 b 345 849 344 850 344 850 b 360 835 350 844 355 840 b 367 827 362 832 365 830 b 369 825 367 826 368 825 b 369 825 369 825 369 825 b 382 804 373 818 378 811 b 393 785 386 798 389 792 b 397 776 394 782 396 779 b 402 766 398 773 402 764 b 430 670 412 740 423 702 b 440 618 434 653 437 636 b 442 606 441 614 441 610 b 443 598 442 605 443 598 b 446 572 444 589 445 580 b 453 470 450 538 452 504 b 454 426 454 455 454 441 b 418 197 454 347 444 273 z m 211 1060 b 255 1008 233 1053 253 1030 b 293 971 258 988 271 971 b 330 1008 311 971 333 988 b 231 1133 324 1067 287 1114 b 185 1106 211 1139 190 1125 b 211 1060 179 1086 191 1066 z "},"":{"ha":301,"x_min":0,"x_max":0,"o":"m 158 493 b 239 536 192 484 227 502 b 209 618 249 567 236 601 b 194 623 205 621 199 623 b 177 627 189 626 183 627 b 107 571 144 629 114 603 b 158 493 100 535 123 502 z m 145 235 b 124 229 136 235 130 233 b 118 224 122 228 120 226 b 118 224 118 224 118 224 b 117 223 118 224 117 223 b 116 222 117 223 117 222 b 115 221 116 222 116 221 b 108 121 94 192 87 153 b 203 87 128 91 169 75 b 225 186 244 100 241 154 b 145 235 209 215 178 234 z m 171 171 b 171 171 171 171 171 171 b 171 172 171 171 171 172 b 171 171 171 172 171 171 z m 249 380 b 40 378 180 380 110 379 b 40 303 -8 378 -8 303 b 249 305 110 304 180 305 b 249 380 298 305 298 380 z "},"":{"ha":572,"x_min":0,"x_max":0,"o":"m 530 650 b 492 791 522 697 511 746 b 539 911 508 831 524 871 b 512 957 546 930 531 952 b 466 931 492 963 473 950 b 445 873 459 912 452 892 b 275 943 403 924 344 953 b 116 811 202 932 149 873 b 46 568 77 736 57 651 b 42 325 35 488 32 406 b 85 148 50 265 63 205 b 15 37 62 111 39 74 b 79 -1 -12 -4 53 -42 b 126 72 95 23 111 47 b 299 -26 166 14 226 -30 b 546 361 481 -15 534 215 b 549 426 548 383 548 404 b 530 650 548 501 543 576 z m 136 233 b 123 292 131 253 127 273 b 112 395 117 327 113 357 b 114 503 110 431 112 467 b 160 726 120 577 133 654 b 179 769 166 743 170 752 b 204 811 187 784 195 798 b 208 816 205 813 207 814 b 208 816 208 816 208 816 b 214 824 210 819 212 821 b 232 841 220 830 226 836 b 237 846 233 843 235 844 b 243 850 238 846 241 849 b 261 861 249 854 255 858 b 264 862 263 862 263 862 b 265 863 264 862 265 863 b 274 866 268 864 271 865 b 284 868 277 867 281 868 b 291 870 287 869 292 870 b 309 870 297 870 303 870 b 318 870 312 870 315 870 b 325 868 315 870 322 869 b 342 863 331 867 336 865 b 344 862 343 863 343 862 b 354 856 348 860 351 858 b 363 851 357 854 360 852 b 364 850 363 850 363 850 b 364 849 364 850 364 850 b 379 835 369 844 375 840 b 386 827 382 832 384 830 b 388 825 387 826 388 825 b 388 825 388 825 388 825 b 402 804 393 818 397 811 b 411 788 405 799 408 794 b 136 233 332 597 241 412 z m 438 197 b 418 150 431 178 427 168 b 391 105 410 134 401 119 b 389 104 391 105 390 104 b 387 100 389 103 387 100 b 379 92 384 97 382 95 b 362 75 374 86 368 80 b 359 73 360 74 360 73 b 357 72 359 73 359 73 b 349 66 354 70 352 68 b 339 60 346 64 342 62 b 334 58 337 60 336 59 b 333 58 334 58 333 58 b 332 57 333 57 333 57 b 311 51 325 55 319 53 b 305 50 310 51 306 50 b 294 49 301 50 297 49 b 283 49 290 49 287 49 b 274 50 282 49 276 50 b 267 52 272 51 268 52 b 256 55 263 53 259 54 b 249 58 254 56 250 57 b 243 61 247 59 245 60 b 233 67 239 63 236 65 b 225 72 231 68 227 71 b 220 77 224 73 221 76 b 211 85 217 80 214 82 b 196 102 206 90 201 96 b 192 107 196 103 193 106 b 185 118 190 111 188 114 b 172 140 181 125 176 133 b 170 144 171 141 171 143 b 447 683 275 317 367 497 b 450 670 448 678 449 674 b 460 618 454 653 457 636 b 462 606 460 614 461 610 b 463 598 462 605 463 598 b 466 572 464 589 465 580 b 473 470 469 538 472 504 b 473 426 473 455 473 441 b 438 197 473 347 464 273 z "},"":{"ha":507,"x_min":0,"x_max":0,"o":"m 434 957 b 379 924 412 966 380 955 b 361 598 377 815 371 706 b 350 499 358 565 355 532 b 344 454 348 481 347 474 b 336 405 342 437 339 421 b 294 226 326 345 313 284 b 280 188 290 213 285 200 b 278 183 279 186 279 185 b 275 177 278 182 276 178 b 268 160 273 171 270 166 b 250 130 262 150 257 140 b 242 118 248 126 245 122 b 242 117 242 118 242 117 b 237 111 240 115 238 113 b 227 101 233 108 230 104 b 219 94 225 100 221 95 b 218 93 219 94 218 93 b 212 89 216 92 214 91 b 207 87 210 88 209 87 b 205 86 207 86 206 86 b 202 84 204 85 203 85 b 197 83 200 84 199 83 b 183 81 191 81 188 80 b 180 83 182 82 181 82 b 172 87 177 84 174 86 b 168 91 171 89 169 90 b 164 96 167 93 165 94 b 149 121 159 105 153 112 b 147 126 149 122 148 125 b 145 130 146 128 146 130 b 139 149 143 136 141 142 b 129 187 135 161 132 174 b 121 230 126 201 123 215 b 115 271 118 248 118 252 b 108 380 112 307 109 343 b 122 862 101 540 110 702 b 126 918 123 881 125 899 b 89 955 128 938 108 955 b 51 918 67 955 53 938 b 31 417 38 751 27 584 b 51 193 33 342 38 267 b 110 43 61 140 75 84 b 253 27 147 0 207 -3 b 341 140 294 53 321 97 b 384 266 359 181 373 223 b 383 222 384 251 384 236 b 379 23 382 156 381 89 b 454 23 378 -25 453 -25 b 469 723 459 256 464 489 b 473 921 470 789 471 855 b 434 957 473 946 453 958 z m 172 87 b 172 87 172 87 172 87 b 172 87 174 85 175 84 z m 241 1003 b 306 1040 267 962 332 999 b 227 1167 280 1083 253 1125 b 162 1129 202 1208 137 1170 b 241 1003 189 1087 215 1045 z "},"":{"ha":907,"x_min":0,"x_max":0,"o":"m 872 50 b 571 45 772 48 672 47 b 565 270 568 120 566 195 b 840 269 657 269 748 269 b 840 344 888 268 888 344 b 564 345 748 344 656 344 b 567 732 563 474 564 603 b 573 891 569 785 571 838 b 864 894 670 892 767 893 b 864 969 912 894 912 969 b 560 966 762 968 661 967 b 556 966 559 966 557 966 b 537 971 550 969 544 971 b 499 934 516 971 500 954 b 497 877 499 915 498 896 b 410 946 474 907 445 931 b 259 952 362 966 309 966 b 45 692 141 916 77 804 b 36 287 8 562 6 418 b 223 10 61 178 116 59 b 478 37 307 -28 407 -30 b 496 56 484 43 490 49 b 497 18 496 43 497 31 b 532 -31 491 -4 502 -31 b 872 -25 645 -29 759 -27 b 872 50 921 -24 921 51 z m 491 240 b 488 228 489 236 488 232 b 487 227 488 228 488 228 b 487 226 487 227 487 227 b 487 222 487 225 487 223 b 487 222 487 222 487 222 b 487 222 487 222 487 222 b 480 192 485 212 483 202 b 469 156 477 180 473 168 b 468 154 468 155 468 155 b 467 152 468 154 468 153 b 463 143 466 149 464 146 b 450 120 459 135 455 128 b 387 66 436 98 416 77 b 277 69 351 52 313 57 b 266 73 273 70 270 71 b 264 74 265 73 264 74 b 262 74 263 74 263 74 b 247 82 257 77 252 79 b 225 96 239 86 232 90 b 221 98 223 96 222 97 b 217 102 220 99 217 101 b 204 113 212 105 208 109 b 180 139 196 121 188 130 b 172 150 181 139 174 148 b 163 166 169 155 166 161 b 143 202 155 177 149 190 b 139 211 142 205 140 208 b 137 216 139 211 137 215 b 130 232 134 222 132 227 b 117 275 125 246 121 260 b 91 447 99 336 93 384 b 94 540 90 478 91 509 b 106 624 96 573 99 590 b 129 707 111 652 119 680 b 136 726 131 714 133 720 b 138 733 136 728 137 731 b 141 738 139 734 140 738 b 159 775 146 751 152 763 b 178 805 165 785 171 796 b 181 809 179 807 180 808 b 185 814 182 810 184 813 b 198 829 189 819 193 824 b 220 850 205 836 212 843 b 230 856 218 847 228 855 b 243 864 234 859 239 862 b 257 871 248 867 252 869 b 259 872 258 872 258 872 b 260 873 259 872 260 872 b 275 878 265 874 270 876 b 337 887 295 884 316 888 b 432 839 378 885 407 868 b 457 801 440 829 449 817 b 467 780 461 794 464 787 b 468 779 468 779 468 779 b 469 777 468 778 468 778 b 473 766 470 773 472 770 b 487 715 479 749 484 733 b 492 704 487 711 489 707 b 491 240 488 549 488 395 z "},"":{"ha":983,"x_min":0,"x_max":0,"o":"m 942 757 b 822 938 923 827 888 902 b 620 918 756 975 677 965 b 528 786 579 884 550 835 b 499 709 517 761 507 735 b 436 859 486 762 467 815 b 256 943 394 919 331 954 b 96 811 183 932 129 873 b 27 568 57 736 38 651 b 23 325 16 488 13 406 b 97 86 33 243 53 158 b 279 -26 136 22 200 -30 b 488 168 389 -19 453 68 b 565 38 504 120 528 73 b 814 -1 630 -23 733 -37 b 940 197 892 34 930 116 b 942 219 941 204 942 212 b 905 257 943 240 925 257 b 867 219 884 257 868 240 b 866 200 867 213 866 206 b 865 198 866 199 865 199 b 864 190 865 195 864 192 b 859 168 863 183 861 175 b 852 147 857 161 855 154 b 844 128 849 138 849 138 b 815 89 835 111 828 101 b 706 55 787 62 746 52 b 653 68 689 56 668 61 b 635 78 649 70 641 74 b 629 82 633 79 631 80 b 628 83 629 82 628 82 b 628 83 628 83 628 83 b 605 104 620 90 612 96 b 600 111 604 106 602 109 b 600 111 600 111 600 111 b 600 111 600 111 600 111 b 590 126 596 116 593 121 b 573 157 583 136 578 146 b 569 166 571 160 570 163 b 568 166 568 166 568 166 b 568 167 568 166 568 167 b 561 186 565 173 563 180 b 540 266 552 212 545 239 b 537 287 539 273 538 280 b 536 294 536 290 536 292 b 534 303 536 295 535 302 b 531 349 533 319 531 334 b 529 410 529 370 529 390 b 918 417 659 413 788 415 b 955 454 940 417 953 434 b 942 757 967 555 967 659 z m 418 197 b 398 150 411 178 407 168 b 371 105 390 134 381 119 b 370 104 371 105 371 104 b 367 100 369 103 367 100 b 360 92 365 97 362 95 b 342 75 354 86 348 80 b 340 73 341 74 340 73 b 338 72 339 73 339 73 b 329 66 335 70 332 68 b 319 60 326 64 323 62 b 315 58 318 60 316 59 b 313 58 314 58 314 58 b 313 57 313 57 313 57 b 292 51 306 55 299 53 b 286 50 290 51 286 50 b 274 49 282 50 278 49 b 263 49 270 49 267 49 b 255 50 262 49 257 50 b 247 52 253 51 248 52 b 236 55 243 53 240 54 b 229 58 235 56 230 57 b 223 61 227 59 225 60 b 213 67 220 63 217 65 b 205 72 212 68 207 71 b 200 77 204 73 201 76 b 192 85 197 80 194 82 b 177 102 186 90 181 96 b 173 107 176 103 174 106 b 166 118 170 111 168 114 b 153 140 161 125 157 133 b 133 183 143 157 139 168 b 103 292 120 219 110 255 b 92 395 97 327 94 357 b 95 503 91 431 92 467 b 141 726 100 577 114 654 b 160 769 147 743 150 752 b 185 811 167 784 175 798 b 188 816 186 813 187 814 b 188 816 188 816 188 816 b 195 824 190 819 193 821 b 212 841 200 830 206 836 b 218 846 214 843 216 844 b 223 850 218 846 222 849 b 242 861 229 854 236 858 b 244 862 243 862 244 862 b 246 863 244 862 245 863 b 254 866 249 864 251 865 b 265 868 258 867 261 868 b 272 870 267 869 273 870 b 290 870 278 870 284 870 b 298 870 293 870 295 870 b 305 868 295 870 303 869 b 322 863 311 867 317 865 b 325 862 323 863 324 862 b 335 856 328 860 331 858 b 343 851 338 854 340 852 b 344 850 343 850 344 850 b 345 849 344 850 344 850 b 360 835 350 844 355 840 b 367 827 362 832 364 830 b 369 825 367 826 368 825 b 369 825 369 825 369 825 b 382 804 373 818 378 811 b 392 785 386 798 389 792 b 397 776 394 782 396 779 b 402 766 398 773 402 764 b 430 670 412 740 423 702 b 440 618 434 653 437 636 b 442 606 441 614 441 610 b 443 598 442 605 443 598 b 446 572 444 589 445 580 b 453 470 450 538 452 504 b 454 426 454 455 454 441 b 418 197 454 347 444 273 z m 887 532 b 884 491 886 518 885 505 b 532 486 767 489 650 487 b 533 492 532 488 533 490 b 535 515 533 500 534 507 b 536 526 535 519 536 522 b 538 536 536 528 537 534 b 539 544 538 538 538 543 b 540 556 539 548 540 552 b 545 580 542 564 543 572 b 554 625 547 595 550 610 b 579 711 561 654 569 683 b 586 730 581 718 583 724 b 590 741 587 734 588 737 b 591 744 590 742 591 743 b 591 744 591 744 591 744 b 609 781 597 757 602 769 b 628 813 614 792 621 802 b 637 827 631 818 634 823 b 639 830 638 828 639 829 b 644 836 639 830 643 834 b 666 859 651 844 658 852 b 672 864 669 862 681 870 b 684 872 676 867 680 870 b 696 879 688 875 692 877 b 703 881 699 880 701 881 b 761 882 722 888 742 887 b 776 877 767 881 771 879 b 778 877 777 877 777 877 b 788 871 781 875 785 873 b 795 866 791 870 793 868 b 798 865 797 866 797 865 b 799 864 798 865 798 864 b 815 849 804 859 810 855 b 821 842 817 847 819 844 b 824 838 822 841 824 839 b 836 820 829 832 833 826 b 856 780 845 805 852 791 b 887 532 886 701 890 616 z "},"":{"ha":917,"x_min":0,"x_max":0,"o":"m 576 907 b 563 958 585 925 581 948 b 511 945 546 968 520 963 b 171 241 398 710 284 475 b 74 41 138 174 106 107 b 87 -10 65 23 69 0 b 139 3 104 -20 130 -15 b 480 707 252 238 366 473 b 576 907 512 774 544 840 z m 234 645 b 286 658 251 633 276 641 b 289 689 292 668 292 679 b 312 849 315 739 336 794 b 176 902 289 900 228 933 b 124 771 132 876 113 819 b 234 645 138 714 188 676 z m 196 806 b 197 809 196 806 196 807 b 203 825 199 819 198 818 b 206 830 203 826 205 829 b 210 835 207 831 210 834 b 213 837 211 836 212 836 b 218 839 214 837 216 838 b 221 839 218 839 220 839 b 228 837 223 838 229 837 b 245 813 234 834 242 822 b 231 740 253 790 243 764 b 200 780 218 752 207 765 b 197 789 199 783 198 786 b 196 792 197 791 196 792 b 196 795 196 793 196 794 b 196 805 196 798 196 801 b 196 806 196 806 196 806 z m 617 225 b 510 322 609 278 566 323 b 442 292 484 322 459 312 b 423 204 421 267 417 235 b 455 124 428 176 442 149 b 502 50 468 98 484 74 b 553 37 514 34 534 26 b 572 76 566 44 574 61 b 617 225 601 121 625 169 z m 528 146 b 504 194 519 162 511 178 b 496 238 499 207 492 225 b 510 247 499 246 502 247 b 534 236 520 247 527 245 b 544 200 542 226 544 212 b 528 146 544 181 537 163 z m 838 270 b 718 344 819 320 774 356 b 633 226 665 333 631 279 b 692 99 635 176 660 135 b 682 50 677 88 674 65 b 734 36 693 31 715 28 b 838 270 817 74 872 182 z m 765 176 b 750 145 762 165 756 155 b 708 232 727 170 707 198 b 728 268 709 248 715 261 b 755 266 739 274 747 273 b 765 176 777 244 775 205 z "},"":{"ha":582,"x_min":0,"x_max":0,"o":"m 523 279 b 486 241 502 279 487 262 b 484 228 485 237 485 232 b 484 222 484 226 484 224 b 484 225 484 223 484 224 b 484 222 484 224 484 223 b 481 206 483 217 482 211 b 473 171 479 194 476 182 b 466 150 471 164 468 157 b 462 139 465 146 464 143 b 461 137 462 138 461 138 b 460 135 461 137 461 136 b 441 101 455 123 448 111 b 436 95 440 100 436 96 b 428 88 433 93 431 90 b 423 83 428 87 423 83 b 414 78 420 81 417 79 b 339 87 387 64 361 74 b 326 96 335 90 330 93 b 305 116 319 103 312 109 b 301 122 304 118 302 120 b 302 120 301 121 302 121 b 300 123 302 121 301 122 b 293 134 298 126 295 130 b 277 162 287 143 282 153 b 269 178 274 168 271 173 b 268 180 269 179 268 180 b 266 186 268 180 266 185 b 253 222 261 198 257 210 b 234 298 245 247 239 272 b 233 302 234 299 233 301 b 399 300 289 302 344 301 b 399 375 448 299 448 374 b 223 378 341 376 282 377 b 218 448 220 401 219 424 b 387 444 274 447 330 445 b 387 519 435 442 435 518 b 218 523 330 520 274 522 b 219 550 218 532 219 541 b 222 592 220 564 221 578 b 224 611 223 598 224 604 b 226 622 225 614 225 618 b 227 629 226 624 226 626 b 227 630 227 629 227 629 b 263 782 234 682 245 733 b 269 796 265 787 267 792 b 269 797 269 797 269 797 b 270 798 269 798 270 798 b 273 806 271 801 272 804 b 289 836 278 816 283 826 b 302 856 293 843 298 849 b 308 863 303 857 307 862 b 319 875 312 867 315 871 b 323 878 322 877 334 886 b 334 886 326 881 330 883 b 341 890 336 887 339 889 b 350 894 342 890 351 895 b 374 901 357 898 366 900 b 417 889 387 903 404 898 b 418 888 417 889 418 888 b 420 886 419 888 419 887 b 431 876 424 883 427 880 b 435 871 432 875 434 873 b 436 870 438 867 438 867 b 440 864 438 868 439 866 b 474 784 459 836 466 817 b 482 750 477 773 480 761 b 484 738 483 746 484 742 b 485 735 484 737 485 736 b 484 740 485 736 484 738 b 522 702 487 720 500 702 b 559 740 540 702 562 719 b 516 884 553 790 540 839 b 446 960 499 914 476 943 b 311 959 403 983 354 979 b 163 701 218 914 182 795 b 143 525 151 643 145 584 b 125 525 137 525 131 525 b 125 450 77 527 77 451 b 143 450 131 450 137 450 b 147 379 144 426 145 402 b 106 379 134 379 120 379 b 106 304 57 380 57 305 b 157 303 123 304 140 304 b 287 32 173 206 204 92 b 388 -3 316 11 352 -3 b 495 49 430 -4 469 17 b 559 225 535 99 552 163 b 561 241 560 230 560 236 b 523 279 562 262 542 279 z "}}}
